SplineFontDB: 3.2
FontName: TlwgMono-BoldOblique
FullName: Tlwg Mono Bold Oblique
FamilyName: TlwgMono
Weight: Bold
Copyright: TlwgMono-Bold, Free Thai Monospace outline font.\n\nCopyright (C) 2003 Poonlap Veerathanabutr <poonlap@linux.thai.net>
UComments: "2003-11-26: Created. +AAoA-PfaEdit 1.0 (http://pfaedit.sf.net).+AAoACgAA-TLWG is Thai Linux Working Group http://linux.thai.net+AAoACgAA-Imported ISO-8859-1 from FreeMono.sfd.+AAoA-http://www.nongnu.org/freefont/+AAoACgAA-Created from PseudoMono-BoldOblique+AAoA"
Version: 002.002
ItalicAngle: -12
UnderlinePosition: -100
UnderlineWidth: 50
Ascent: 800
Descent: 200
InvalidEm: 0
LayerCount: 3
Layer: 0 0 "Back" 1
Layer: 1 0 "Fore" 0
Layer: 2 1 "Quad" 0
FSType: 0
OS2Version: 4
OS2_WeightWidthSlopeOnly: 0
OS2_UseTypoMetrics: 1
CreationTime: 1153666223
ModificationTime: 1587973910
PfmFamily: 49
TTFWeight: 700
TTFWidth: 5
LineGap: 0
VLineGap: 0
Panose: 2 0 6 3 0 0 0 0 0 0
OS2TypoAscent: 861
OS2TypoAOffset: 0
OS2TypoDescent: -371
OS2TypoDOffset: 0
OS2TypoLinegap: 0
OS2WinAscent: 0
OS2WinAOffset: 1
OS2WinDescent: 0
OS2WinDOffset: 1
HheadAscent: 0
HheadAOffset: 1
HheadDescent: 0
HheadDOffset: 1
OS2Vendor: 'PfEd'
Lookup: 1 0 0 "'ccmp' Pali-Sanskrit Descender Removal" { "'ccmp' Pali-Sanskrit Descender Removal" ("descless") } ['ccmp' ('thai' <'PAL ' 'SAN ' > ) ]
MarkAttachClasses: 1
DEI: 91125
ShortTable: maxp 16
  0
  0
  0
  0
  0
  0
  0
  2
  1
  2
  22
  0
  256
  0
  0
  0
EndShort
TtTable: prep
PUSHW_1
 511
SCANCTRL
PUSHB_1
 1
SCANTYPE
SVTCA[y-axis]
MPPEM
PUSHB_1
 8
LT
IF
PUSHB_2
 1
 1
INSTCTRL
EIF
PUSHB_2
 70
 6
CALL
IF
POP
PUSHB_1
 16
EIF
MPPEM
PUSHB_1
 20
GT
IF
POP
PUSHB_1
 128
EIF
SCVTCI
PUSHB_1
 6
CALL
NOT
IF
SVTCA[y-axis]
PUSHB_1
 6
DUP
RCVT
PUSHB_1
 3
CALL
WCVTP
SVTCA[x-axis]
PUSHB_1
 7
DUP
RCVT
PUSHB_1
 3
CALL
WCVTP
PUSHB_1
 9
DUP
RCVT
PUSHB_3
 7
 15
 2
CALL
PUSHB_2
 3
 70
SROUND
CALL
WCVTP
PUSHB_1
 8
DUP
RCVT
PUSHB_3
 9
 87
 2
CALL
PUSHB_2
 3
 70
SROUND
CALL
WCVTP
PUSHB_1
 10
DUP
RCVT
PUSHW_3
 7
 32767
 2
CALL

StartChar: micro
Encoding: 181 181 0
Width: 600
Flags: W
HStem: -16 100<226.298 372.242> 0 21G<410 527.5> 337 100<108.637 167 405 482>
DStem2: 62.9713 -153 162.971 -153 0.207912 0.978148<41.5781 170.052 303.517 500.921> 377.146 -153 477.223 -153 0.207912 0.978148<281.097 501.093>
LayerCount: 3
Fore
SplineSet
583 62 m 0xa0
 583 19 550 0 505 0 c 2
 410 0 l 1x60
 415 22 l 1
 355 -4 302 -16 250 -16 c 0
 229 -16 213 -13 194 -7 c 1
 177 -87 l 2
 168 -130 147 -153 112 -153 c 0
 86 -153 73 -139 73 -113 c 0
 73 -105 75 -97 77 -87 c 2
 167 337 l 1
 151 337 l 2
 115 337 94 348 94 374 c 0
 94 418 126 437 172 437 c 2
 288 437 l 1
 226 144 l 2
 224 136 223 129 223 123 c 0
 223 95 240 84 278 84 c 0
 322 84 367 99 439 138 c 1
 482 337 l 1
 447 337 l 2
 411 337 390 349 390 374 c 0
 390 418 423 437 468 437 c 2
 603 437 l 1
 531 100 l 1
 565 100 583 86 583 62 c 0xa0
EndSplineSet
Validated: 1
Layer: 2
SplineSet
583 62 m 0,0,1
 583 31 583 31 561.5 15.5 c 128,-1,2
 540 0 540 0 505 0 c 2,3,-1
 410 0 l 1,4,-1
 415 22 l 1,5,6
 327 -16 327 -16 250 -16 c 0,7,8
 222 -16 222 -16 194 -7 c 1,9,-1
 177 -87 l 2,10,11
 163 -153 163 -153 112 -153 c 0,12,13
 73 -153 73 -153 73 -113 c 0,14,15
 73 -107 73 -107 77 -87 c 2,16,-1
 167 337 l 1,17,-1
 151 337 l 2,18,19
 94 337 94 337 94 374 c 0,20,21
 94 437 94 437 172 437 c 2,22,-1
 288 437 l 1,23,-1
 226 144 l 2,24,25
 223 132 223 132 223 123 c 0,26,27
 223 84 223 84 278 84 c 0,28,29
 339 84 339 84 439 138 c 1,30,-1
 482 337 l 1,31,-1
 447 337 l 2,32,33
 390 337 390 337 390 374 c 0,34,35
 390 437 390 437 468 437 c 2,36,-1
 603 437 l 1,37,-1
 531 100 l 1,38,39
 583 100 583 100 583 62 c 0,0,1
EndSplineSet
EndChar

StartChar: uni0E31
Encoding: 3633 3633 1
Width: 600
Flags: W
HStem: 502 60<373.256 475.5> 642 55<383.698 451.849>
VStem: 328 44<563.848 630.763> 454 53<599.957 659.5>
LayerCount: 3
Fore
SplineSet
422 642 m 0
 395 642 372 612 372 592 c 0
 372 574 386 562 405 562 c 0
 427 562 454 579 454 608 c 0
 454 626 441 642 422 642 c 0
328 583 m 0
 328 626 371 697 434 697 c 16
 468 697 507 676 507 643 c 0
 507 630 502 615 498 599 c 1
 556 599 607 659 637 682 c 9
 688 621 l 17
 633 564 601 539 534 515 c 16
 508 505 486 502 465 502 c 0
 439 502 416 507 389 514 c 0
 354 523 328 547 328 583 c 0
EndSplineSet
Validated: 1
Layer: 2
SplineSet
422 642 m 0,0,1
 403 642 403 642 387.5 625 c 128,-1,2
 372 608 372 608 372 592 c 0,3,4
 372 579 372 579 381.5 570.5 c 128,-1,5
 391 562 391 562 405 562 c 0,6,7
 423 562 423 562 438.5 575 c 128,-1,8
 454 588 454 588 454 608 c 0,9,10
 454 622 454 622 445 632 c 128,-1,11
 436 642 436 642 422 642 c 0,0,1
328 583 m 0,12,13
 328 620 328 620 359 658.5 c 128,-1,14
 390 697 390 697 434 697 c 0,15,16
 461 697 461 697 484 681.5 c 128,-1,17
 507 666 507 666 507 643 c 0,18,19
 507 635 507 635 498 599 c 1,20,21
 518 599 518 599 540.5 609.5 c 128,-1,22
 563 620 563 620 577.5 631.5 c 128,-1,23
 592 643 592 643 611.5 660 c 128,-1,24
 631 677 631 677 637 682 c 1,25,-1
 688 621 l 1,26,27
 645 576 645 576 613.5 554 c 128,-1,28
 582 532 582 532 534 515 c 0,29,30
 500 502 500 502 465 502 c 0,31,32
 435 502 435 502 389 514 c 0,33,34
 328 530 328 530 328 583 c 0,12,13
EndSplineSet
EndChar

StartChar: uni0E34
Encoding: 3636 3636 2
Width: 600
Flags: W
HStem: 500 57<322 496> 586 80<326.374 495.578>
LayerCount: 3
Fore
SplineSet
446 586 m 2
 392 586 l 2
 361 586 328 583 322 557 c 9
 495 557 l 17
 496 560 496 562 496 564 c 0
 496 584 471 586 446 586 c 2
438 666 m 0
 523 666 577 641 577 558 c 0
 577 541 575 522 570 500 c 9
 230 500 l 17
 257 626 326 666 438 666 c 0
EndSplineSet
Validated: 1
Layer: 2
SplineSet
446 586 m 2,0,-1
 392 586 l 2,1,2
 329 586 329 586 322 557 c 1,3,-1
 495 557 l 2,4,5
 496 560 496 560 496 564 c 0,6,7
 496 586 496 586 446 586 c 2,0,-1
438 666 m 0,8,9
 506 666 506 666 541.5 641.5 c 128,-1,10
 577 617 577 617 577 558 c 0,11,12
 577 531 577 531 570 500 c 1,13,-1
 230 500 l 1,14,15
 250 591 250 591 300 628.5 c 128,-1,16
 350 666 350 666 438 666 c 0,8,9
EndSplineSet
EndChar

StartChar: uni0E35
Encoding: 3637 3637 3
Width: 600
Flags: W
HStem: 500 72<252 380> 603 65<256.092 379.34>
LayerCount: 3
Fore
SplineSet
325 603 m 8
 296 603 258 602 252 572 c 9
 380 572 l 17
 380 574 381 576 381 578 c 0
 381 600 350 603 325 603 c 8
339 668 m 0
 429 668 476 642 479 572 c 9
 499 668 l 25
 596 668 l 25
 560 500 l 25
 135 500 l 17
 158 606 231 668 339 668 c 0
EndSplineSet
Validated: 1
Layer: 2
SplineSet
325 603 m 8,0,1
 258 603 258 603 252 572 c 1,2,-1
 380 572 l 2,3,4
 380 573 380 573 380.5 575 c 128,-1,5
 381 577 381 577 381 578 c 0,6,7
 381 603 381 603 325 603 c 8,0,1
339 668 m 0,8,9
 408 668 408 668 442.5 645.5 c 128,-1,10
 477 623 477 623 479 572 c 1,11,-1
 499 668 l 1,12,-1
 596 668 l 1,13,-1
 560 500 l 1,14,-1
 135 500 l 1,15,16
 152 580 152 580 205 624 c 128,-1,17
 258 668 258 668 339 668 c 0,8,9
EndSplineSet
EndChar

StartChar: uni0E36
Encoding: 3638 3638 4
Width: 600
Flags: W
HStem: 500 64<282 417> 500 49<483.85 548> 594 72<285.633 415.741> 642 44<495.215 565.686>
VStem: 417 62<564.486 589.509> 571 46<563.083 638.251>
LayerCount: 3
Fore
SplineSet
518 549 m 0x5c
 545 549 571 582 571 602 c 0
 571 620 556 642 534 642 c 0
 508 642 479 609 479 589 c 0
 479 571 495 549 518 549 c 0x5c
348 594 m 0xac
 326 594 287 589 282 564 c 9
 417 564 l 17
 417 590 389 594 348 594 c 0xac
347 666 m 16
 393 666 454 633 454 633 c 1
 454 633 507 686 544 686 c 16
 587 686 617 657 617 617 c 0
 617 518 479 500 479 500 c 9
 176 500 l 17x5c
 204 630 264 666 347 666 c 16
EndSplineSet
Validated: 1
Layer: 2
SplineSet
518 549 m 0,0,1
 537 549 537 549 554 567.5 c 128,-1,2
 571 586 571 586 571 602 c 0,3,4
 571 617 571 617 560.5 629.5 c 128,-1,5
 550 642 550 642 534 642 c 0,6,7
 515 642 515 642 497 623.5 c 128,-1,8
 479 605 479 605 479 589 c 0,9,10
 479 575 479 575 490.5 562 c 128,-1,11
 502 549 502 549 518 549 c 0,0,1
348 594 m 0,12,13
 288 594 288 594 282 564 c 1,14,-1
 417 564 l 1,15,16
 417 582 417 582 400 588 c 128,-1,17
 383 594 383 594 348 594 c 0,12,13
347 666 m 16,18,19
 367 666 367 666 394 658 c 128,-1,20
 421 650 421 650 437.5 641.5 c 2,21,-1
 454 633 l 1,22,23
 507 686 507 686 544 686 c 0,24,25
 576 686 576 686 596.5 666.5 c 128,-1,26
 617 647 617 647 617 617 c 0,27,28
 617 589 617 589 603 567 c 128,-1,29
 589 545 589 545 568.5 533 c 128,-1,30
 548 521 548 521 527.5 513 c 128,-1,31
 507 505 507 505 493 502.5 c 2,32,-1
 479 500 l 1,33,-1
 176 500 l 1,34,35
 196 592 196 592 238 629 c 128,-1,36
 280 666 280 666 347 666 c 16,18,19
EndSplineSet
EndChar

StartChar: uni0E37
Encoding: 3639 3639 5
Width: 600
Flags: W
HStem: 500 76<235 334 480 516> 605 63<237.464 334.479>
DStem2: 499.846 500 566 500 0.207912 0.978148<77.6979 169.889>
LayerCount: 3
Fore
SplineSet
287 605 m 8
 266 605 241 603 235 576 c 9
 334 576 l 17
 334 578 335 580 335 582 c 0
 335 600 312 605 287 605 c 8
301 668 m 16
 361 668 391 635 412 576 c 9
 432 667 l 25
 500 667 l 25
 480 576 l 25
 516 576 l 25
 536 666 l 25
 602 666 l 25
 566 500 l 25
 153 500 l 17
 181 631 222 668 301 668 c 16
EndSplineSet
Validated: 1
Layer: 2
SplineSet
287 605 m 8,0,1
 241 605 241 605 235 576 c 1,2,-1
 334 576 l 2,3,4
 334 577 334 577 334.5 579 c 128,-1,5
 335 581 335 581 335 582 c 0,6,7
 335 605 335 605 287 605 c 8,0,1
301 668 m 16,8,9
 344 668 344 668 369.5 645.5 c 128,-1,10
 395 623 395 623 412 576 c 1,11,-1
 432 667 l 1,12,-1
 500 667 l 1,13,-1
 480 576 l 1,14,-1
 516 576 l 1,15,-1
 536 666 l 1,16,-1
 602 666 l 1,17,-1
 566 500 l 1,18,-1
 153 500 l 1,19,20
 173 596 173 596 206.5 632 c 128,-1,21
 240 668 240 668 301 668 c 16,8,9
EndSplineSet
EndChar

StartChar: uni0E48
Encoding: 3656 3656 6
Width: 600
Flags: W
HStem: 700 155<534 598>
VStem: 501 130
DStem2: 501 700 598 700 0.207912 0.978148<20.1674 158.474>
LayerCount: 3
Fore
SplineSet
534 855 m 1
 631 855 l 1
 598 700 l 1
 501 700 l 1
 534 855 l 1
EndSplineSet
Validated: 1
Layer: 2
SplineSet
534 855 m 1,0,-1
 631 855 l 1,1,-1
 598 700 l 1,2,-1
 501 700 l 1,3,-1
 534 855 l 1,0,-1
EndSplineSet
EndChar

StartChar: uni0E49
Encoding: 3657 3657 7
Width: 600
Flags: W
HStem: 700 108<463.181 522.789> 700 79<411 455> 871 33<470.659 524.969>
VStem: 420 43<808.483 866.016> 527 43<812.703 870.643>
LayerCount: 3
Fore
SplineSet
488 808 m 0xb8
 512 808 527 830 527 845 c 0
 527 860 517 871 501 871 c 0
 482 871 463 854 463 833 c 0
 463 818 473 808 488 808 c 0xb8
420 827 m 0
 420 863 457 904 508 904 c 16
 541 904 570 879 570 850 c 0
 570 824 543 782 543 781 c 2
 543 781 626 796 664 847 c 9
 722 813 l 17
 722 813 685 755 650 732 c 24
 609 706 544 700 535 700 c 2
 394 700 l 9
 411 779 l 17
 455 779 l 1x78
 455 779 420 793 420 827 c 0
EndSplineSet
Validated: 1
Layer: 2
SplineSet
488 808 m 0,0,1
 505 808 505 808 516 820 c 128,-1,2
 527 832 527 832 527 845 c 0,3,4
 527 856 527 856 520 863.5 c 128,-1,5
 513 871 513 871 501 871 c 0,6,7
 486 871 486 871 474.5 859.5 c 128,-1,8
 463 848 463 848 463 833 c 0,9,10
 463 808 463 808 488 808 c 0,0,1
420 827 m 0,11,12
 420 856 420 856 445.5 880 c 128,-1,13
 471 904 471 904 508 904 c 0,14,15
 533 904 533 904 551.5 888 c 128,-1,16
 570 872 570 872 570 850 c 0,17,18
 570 843 570 843 567 833 c 128,-1,19
 564 823 564 823 560 814.5 c 128,-1,20
 556 806 556 806 552.5 798.5 c 128,-1,21
 549 791 549 791 546 786 c 2,22,-1
 543 781 l 1,23,24
 552 783 552 783 567 786.5 c 128,-1,25
 582 790 582 790 614.5 807 c 128,-1,26
 647 824 647 824 664 847 c 1,27,-1
 722 813 l 1,28,29
 685 755 685 755 650 732 c 0,30,31
 624 715 624 715 587.5 707.5 c 128,-1,32
 551 700 551 700 535 700 c 2,33,-1
 394 700 l 1,34,-1
 411 779 l 1,35,-1
 455 779 l 2,36,37
 451 781 451 781 445 784 c 128,-1,38
 439 787 439 787 429.5 799.5 c 128,-1,39
 420 812 420 812 420 827 c 0,11,12
EndSplineSet
EndChar

StartChar: uni0E4A
Encoding: 3658 3658 8
Width: 600
Flags: W
HStem: 697 25<347.704 380.184>
VStem: 309 38<722.068 773.893> 383 36<722.447 757.991> 541 67<753.5 815.5>
DStem2: 603 769 616 700 0.503871 0.863779<0 160.015>
LayerCount: 3
Fore
SplineSet
369 758 m 0
 355 758 347 746 347 736 c 0
 347 729 351 722 361 722 c 0
 375 722 383 734 383 744 c 0
 383 751 379 758 369 758 c 0
309 757 m 0
 309 790 356 874 423 874 c 24
 453 874 477 831 477 831 c 1
 477 831 513 873 540 873 c 16
 572 873 587 863 602 840 c 16
 607 832 608 821 608 810 c 0
 608 790 603 769 603 769 c 9
 684 907 l 25
 728 892 l 25
 616 700 l 1
 528 700 l 17
 537 724 541 744 541 763 c 0
 541 780 538 796 532 810 c 9
 495 775 l 25
 440 775 l 17
 409 813 l 1
 397 804 389 792 386 778 c 1
 400 776 419 767 419 751 c 0
 419 730 391 697 360 697 c 0
 327 697 309 729 309 757 c 0
EndSplineSet
Validated: 1
Layer: 2
SplineSet
369 758 m 0,0,1
 359 758 359 758 353 751 c 128,-1,2
 347 744 347 744 347 736 c 0,3,4
 347 722 347 722 361 722 c 0,5,6
 371 722 371 722 377 729 c 128,-1,7
 383 736 383 736 383 744 c 0,8,9
 383 758 383 758 369 758 c 0,0,1
309 757 m 0,10,11
 309 788 309 788 343.5 831 c 128,-1,12
 378 874 378 874 423 874 c 0,13,14
 436 874 436 874 449.5 863 c 128,-1,15
 463 852 463 852 470 841.5 c 2,16,-1
 477 831 l 1,17,18
 513 873 513 873 540 873 c 0,19,20
 580 873 580 873 602 840 c 0,21,22
 608 830 608 830 608 810 c 2,23,-1
 603 769 l 1,24,-1
 684 907 l 1,25,-1
 728 892 l 1,26,-1
 616 700 l 1,27,-1
 528 700 l 1,28,29
 541 735 541 735 541 763 c 0,30,31
 541 789 541 789 532 810 c 1,32,-1
 495 775 l 1,33,-1
 440 775 l 1,34,-1
 409 813 l 1,35,36
 391 799 391 799 386 778 c 1,37,38
 419 773 419 773 419 751 c 0,39,40
 419 734 419 734 400.5 715.5 c 128,-1,41
 382 697 382 697 360 697 c 0,42,43
 337 697 337 697 323 715.5 c 128,-1,44
 309 734 309 734 309 757 c 0,10,11
EndSplineSet
EndChar

StartChar: uni0E4B
Encoding: 3659 3659 9
Width: 600
Flags: W
HStem: 773 72<453 515 633 705>
VStem: 437 284
LayerCount: 3
Fore
SplineSet
515 773 m 1
 437 773 l 1
 453 846 l 1
 531 846 l 1
 548 926 l 1
 650 926 l 1
 633 845 l 1
 721 845 l 1
 705 773 l 1
 617 773 l 1
 602 700 l 1
 500 700 l 1
 515 773 l 1
EndSplineSet
Validated: 1
Layer: 2
SplineSet
515 773 m 1,0,-1
 437 773 l 1,1,-1
 453 846 l 1,2,-1
 531 846 l 1,3,-1
 548 926 l 1,4,-1
 650 926 l 1,5,-1
 633 845 l 1,6,-1
 721 845 l 1,7,-1
 705 773 l 1,8,-1
 617 773 l 1,9,-1
 602 700 l 1,10,-1
 500 700 l 1,11,-1
 515 773 l 1,0,-1
EndSplineSet
EndChar

StartChar: uni0E4C
Encoding: 3660 3660 10
Width: 600
Flags: W
HStem: 695 41<490.883 550.102>
VStem: 444 46<737.115 794.727> 556 48<740.62 772>
DStem2: 533 849 604 772 0.890605 0.454777<13.2643 186.534>
LayerCount: 3
Fore
SplineSet
530 800 m 0
 506 800 490 778 490 761 c 0
 490 746 500 736 516 736 c 0
 540 736 556 758 556 775 c 0
 556 790 546 800 530 800 c 0
519 695 m 0
 496 695 444 707 444 754 c 0
 444 809 503 836 533 849 c 16
 580 870 646 903 717 938 c 25
 745 844 l 25
 604 772 l 1
 604 765 603 738 590 726 c 0
 568 705 544 695 519 695 c 0
EndSplineSet
Validated: 1
Layer: 2
SplineSet
530 800 m 0,0,1
 513 800 513 800 501.5 787.5 c 128,-1,2
 490 775 490 775 490 761 c 0,3,4
 490 736 490 736 516 736 c 0,5,6
 533 736 533 736 544.5 748.5 c 128,-1,7
 556 761 556 761 556 775 c 0,8,9
 556 800 556 800 530 800 c 0,0,1
519 695 m 0,10,11
 494 695 494 695 469 709 c 128,-1,12
 444 723 444 723 444 754 c 0,13,14
 444 810 444 810 533 849 c 0,15,16
 570 865 570 865 717 938 c 1,17,-1
 745 844 l 1,18,-1
 604 772 l 1,19,20
 604 739 604 739 590 726 c 0,21,22
 558 695 558 695 519 695 c 0,10,11
EndSplineSet
EndChar

StartChar: uni0E4D
Encoding: 3661 3661 11
Width: 600
Flags: W
HStem: 500 70<473.504 532.23> 619 63<494.042 553.696>
VStem: 425 68<570.523 616.573>
LayerCount: 3
Fore
SplineSet
520 619 m 0
 513 619 493 607 493 591 c 0
 493 579 504 570 509 570 c 0
 514 570 531 581 534 595 c 0
 537 608 525 619 520 619 c 0
425 573 m 0
 425 639 486 682 533 682 c 0
 573 682 600 651 600 613 c 0
 600 561 549 500 494 500 c 0
 454 500 425 531 425 573 c 0
EndSplineSet
Validated: 1
Layer: 2
SplineSet
520 619 m 0,0,1
 513 619 513 619 503 610.5 c 128,-1,2
 493 602 493 602 493 591 c 0,3,4
 493 583 493 583 499 576.5 c 128,-1,5
 505 570 505 570 509 570 c 0,6,7
 514 570 514 570 523 578 c 128,-1,8
 532 586 532 586 534 595 c 128,-1,9
 536 604 536 604 530.5 611.5 c 128,-1,10
 525 619 525 619 520 619 c 0,0,1
425 573 m 0,11,12
 425 620 425 620 459.5 651 c 128,-1,13
 494 682 494 682 533 682 c 0,14,15
 562 682 562 682 581 662 c 128,-1,16
 600 642 600 642 600 613 c 0,17,18
 600 573 600 573 567 536.5 c 128,-1,19
 534 500 534 500 494 500 c 0,20,21
 464 500 464 500 444.5 520.5 c 128,-1,22
 425 541 425 541 425 573 c 0,11,12
EndSplineSet
EndChar

StartChar: exclam
Encoding: 33 33 13
Width: 600
Flags: W
HStem: -15 132<263.246 360.359> 618 20G<413.5 457>
VStem: 234 154<13.6636 88.1026> 299 99<192.671 250.355> 339 163<492.516 601.923>
LayerCount: 3
Fore
SplineSet
502 576 m 0xc8
 502 555 502 559 491 525 c 2
 398 228 l 2xd0
 389 197 367 179 339 179 c 0xc8
 313 179 299 195 299 221 c 2
 299 228 l 1xd0
 334 525 l 2
 335 537 337 551 339 558 c 0
 348 604 390 638 437 638 c 0
 477 638 502 612 502 576 c 0xc8
388 65 m 0xe0
 388 27 353 -15 306 -15 c 2
 289 -15 l 2
 257 -15 234 8 234 37 c 0
 234 83 279 117 317 117 c 2
 334 117 l 2
 366 117 388 95 388 65 c 0xe0
EndSplineSet
Validated: 1
Layer: 2
SplineSet
502 576 m 0,0,1
 502 559 502 559 491 525 c 2,2,-1
 398 228 l 2,3,4
 384 179 384 179 339 179 c 0,5,6
 299 179 299 179 299 221 c 2,7,-1
 299 228 l 1,8,-1
 334 525 l 2,9,10
 336 547 336 547 339 558 c 0,11,12
 346 592 346 592 374 615 c 128,-1,13
 402 638 402 638 437 638 c 0,14,15
 467 638 467 638 484.5 620.5 c 128,-1,16
 502 603 502 603 502 576 c 0,0,1
388 65 m 0,17,18
 388 35 388 35 364 10 c 128,-1,19
 340 -15 340 -15 306 -15 c 2,20,-1
 289 -15 l 2,21,22
 265 -15 265 -15 249.5 0 c 128,-1,23
 234 15 234 15 234 37 c 0,24,25
 234 70 234 70 260.5 93.5 c 128,-1,26
 287 117 287 117 317 117 c 2,27,-1
 334 117 l 2,28,29
 358 117 358 117 373 102.5 c 128,-1,30
 388 88 388 88 388 65 c 0,17,18
EndSplineSet
EndChar

StartChar: quotedbl
Encoding: 34 34 14
Width: 600
Flags: W
HStem: 312 290<264 300.733 464 500.733>
LayerCount: 3
Fore
SplineSet
264 602 m 1
 392 602 l 1
 307 348 l 2
 298 322 287 312 267 312 c 0
 251 312 243 319 243 337 c 0
 243 340 244 343 244 347 c 2
 264 602 l 1
464 602 m 1
 592 602 l 1
 507 348 l 2
 498 322 487 312 467 312 c 0
 451 312 443 319 443 337 c 0
 443 340 444 343 444 347 c 2
 464 602 l 1
EndSplineSet
Validated: 1
Layer: 2
SplineSet
264 602 m 1,0,-1
 392 602 l 1,1,-1
 307 348 l 2,2,3
 295 312 295 312 267 312 c 0,4,5
 243 312 243 312 243 337 c 0,6,7
 243 338 243 338 243.5 341.5 c 128,-1,8
 244 345 244 345 244 347 c 2,9,-1
 264 602 l 1,0,-1
464 602 m 1,10,-1
 592 602 l 1,11,-1
 507 348 l 2,12,13
 495 312 495 312 467 312 c 0,14,15
 443 312 443 312 443 337 c 0,16,17
 443 338 443 338 443.5 341.5 c 128,-1,18
 444 345 444 345 444 347 c 2,19,-1
 464 602 l 1,10,-1
EndSplineSet
EndChar

StartChar: numbersign
Encoding: 35 35 15
Width: 600
Flags: W
HStem: 139 99<115.099 184 312 356 483 544.75> 344 100<178.41 241 370 413 541 608.363>
DStem2: 138 -22 236 -29 0.271425 0.96246<-30.9265 167.442 297.467 380.217 511.477 710.79> 310 -22 408 -29 0.271425 0.96246<-31.197 167.442 297.196 380.217 511.205 710.519>
LayerCount: 3
Fore
SplineSet
164 381 m 0
 164 426 195 444 243 444 c 2
 269 444 l 1
 317 612 l 2
 329 653 346 675 381 675 c 0
 404 675 424 656 424 636 c 0
 424 633 422 630 421 627 c 2
 421 627 387 504 370 444 c 1
 441 444 l 1
 489 612 l 2
 501 653 518 675 553 675 c 0
 576 675 595 656 595 636 c 0
 595 633 594 630 593 627 c 2
 541 444 l 1
 566 444 l 2
 603 444 623 432 623 407 c 0
 623 362 591 344 545 344 c 2
 513 344 l 1
 483 238 l 1
 502 238 l 2
 540 238 559 227 559 201 c 0
 559 157 527 139 482 139 c 2
 455 139 l 1
 408 -29 l 2
 394 -79 363 -92 342 -92 c 0
 319 -92 303 -74 303 -53 c 0
 303 -41 306 -33 310 -22 c 2
 310 -22 341 86 356 139 c 1
 284 139 l 1
 236 -29 l 2
 224 -70 208 -92 172 -92 c 0
 147 -92 132 -76 132 -53 c 0
 132 -41 134 -34 138 -22 c 2
 184 139 l 1
 158 139 l 2
 122 139 101 150 101 176 c 0
 101 220 133 238 179 238 c 2
 212 238 l 1
 241 344 l 1
 222 344 l 2
 184 344 164 355 164 381 c 0
413 344 m 1
 342 344 l 1
 312 238 l 1
 384 238 l 1
 413 344 l 1
EndSplineSet
Validated: 1
Layer: 2
SplineSet
164 381 m 0,0,1
 164 444 164 444 243 444 c 2,2,-1
 269 444 l 1,3,-1
 317 612 l 2,4,5
 335 675 335 675 381 675 c 0,6,7
 398 675 398 675 411 663 c 128,-1,8
 424 651 424 651 424 636 c 1,9,-1
 421 627 l 1,10,11
 387 504 387 504 370 444 c 1,12,-1
 441 444 l 1,13,-1
 489 612 l 2,14,15
 507 675 507 675 553 675 c 0,16,17
 570 675 570 675 582.5 663 c 128,-1,18
 595 651 595 651 595 636 c 0,19,20
 595 633 595 633 593 627 c 2,21,-1
 541 444 l 1,22,-1
 566 444 l 2,23,24
 623 444 623 444 623 407 c 0,25,26
 623 344 623 344 545 344 c 2,27,-1
 513 344 l 1,28,-1
 483 238 l 1,29,-1
 502 238 l 2,30,31
 559 238 559 238 559 201 c 0,32,33
 559 139 559 139 482 139 c 2,34,-1
 455 139 l 1,35,-1
 408 -29 l 2,36,37
 390 -92 390 -92 342 -92 c 0,38,39
 325 -92 325 -92 314 -80.5 c 128,-1,40
 303 -69 303 -69 303 -53 c 0,41,42
 303 -41 303 -41 310 -22 c 0,43,44
 341 86 341 86 356 139 c 1,45,-1
 284 139 l 1,46,-1
 236 -29 l 2,47,48
 226 -62 226 -62 212 -77 c 128,-1,49
 198 -92 198 -92 172 -92 c 0,50,51
 154 -92 154 -92 143 -81 c 128,-1,52
 132 -70 132 -70 132 -53 c 0,53,54
 132 -40 132 -40 138 -22 c 2,55,-1
 184 139 l 1,56,-1
 158 139 l 2,57,58
 101 139 101 139 101 176 c 0,59,60
 101 238 101 238 179 238 c 2,61,-1
 212 238 l 1,62,-1
 241 344 l 1,63,-1
 222 344 l 2,64,65
 164 344 164 344 164 381 c 0,0,1
413 344 m 1,66,-1
 342 344 l 1,67,-1
 312 238 l 1,68,-1
 384 238 l 1,69,-1
 413 344 l 1,66,-1
EndSplineSet
EndChar

StartChar: dollar
Encoding: 36 36 16
Width: 600
Flags: W
HStem: -123 247<259.064 360> 495 189<401.276 476.552>
VStem: 196 106<392.233 467.805> 457 107<162.953 247.188>
DStem2: 225.759 -123 324.759 -123 0.207912 0.978148<41.8308 153.828 751.612 804.957> 366 377 319 280 0.977802 -0.209529<-65.372 116.867>
LayerCount: 3
Fore
SplineSet
326 124 m 0
 394 124 457 158 457 213 c 0
 457 240 435 255 389 265 c 2
 319 280 l 2
 238 297 196 339 196 401 c 0
 196 504 282 576 378 592 c 1
 383 618 l 2
 392 661 412 684 447 684 c 0
 473 684 486 671 486 645 c 0
 486 637 484 628 482 618 c 2
 477 592 l 1
 501 587 518 584 540 574 c 1
 552 579 560 581 569 581 c 0
 597 581 608 565 608 540 c 0
 608 532 607 524 605 515 c 2
 599 483 l 2
 590 439 570 417 535 417 c 0
 508 417 492 432 492 459 c 0
 492 478 456 495 415 495 c 0
 355 495 302 469 302 424 c 0
 302 402 323 386 366 377 c 2
 428 363 l 2
 467 354 564 335 564 237 c 0
 564 123 473 48 357 27 c 1
 339 -56 l 2
 330 -100 310 -123 276 -123 c 0
 249 -123 237 -109 237 -83 c 0
 237 -75 238 -66 240 -56 c 2
 258 27 l 1
 218 36 213 38 184 52 c 1
 165 38 155 34 141 34 c 0
 114 34 101 48 101 75 c 0
 101 83 102 91 104 101 c 2
 117 162 l 2
 126 206 147 229 182 229 c 0
 220 229 222 197 222 185 c 0
 222 149 268 124 326 124 c 0
EndSplineSet
Validated: 1
Layer: 2
SplineSet
326 124 m 0,0,1
 379 124 379 124 418 148.5 c 128,-1,2
 457 173 457 173 457 213 c 0,3,4
 457 250 457 250 389 265 c 2,5,-1
 319 280 l 2,6,7
 196 306 196 306 196 401 c 0,8,9
 196 475 196 475 249 527 c 128,-1,10
 302 579 302 579 378 592 c 1,11,-1
 383 618 l 2,12,13
 397 684 397 684 447 684 c 0,14,15
 486 684 486 684 486 645 c 0,16,17
 486 638 486 638 482 618 c 2,18,-1
 477 592 l 1,19,20
 520 583 520 583 540 574 c 1,21,22
 557 581 557 581 569 581 c 0,23,24
 608 581 608 581 608 540 c 0,25,26
 608 528 608 528 605 515 c 2,27,-1
 599 483 l 2,28,29
 586 417 586 417 535 417 c 0,30,31
 492 417 492 417 492 459 c 0,32,33
 492 473 492 473 469 484 c 128,-1,34
 446 495 446 495 415 495 c 0,35,36
 368 495 368 495 335 476 c 128,-1,37
 302 457 302 457 302 424 c 0,38,39
 302 390 302 390 366 377 c 2,40,-1
 428 363 l 2,41,42
 449 358 449 358 458.5 355.5 c 128,-1,43
 468 353 468 353 492 343 c 128,-1,44
 516 333 516 333 528.5 321 c 128,-1,45
 541 309 541 309 552.5 287 c 128,-1,46
 564 265 564 265 564 237 c 0,47,48
 564 155 564 155 506 99 c 128,-1,49
 448 43 448 43 357 27 c 1,50,-1
 339 -56 l 2,51,52
 325 -123 325 -123 276 -123 c 0,53,54
 237 -123 237 -123 237 -83 c 0,55,56
 237 -71 237 -71 240 -56 c 2,57,-1
 258 27 l 1,58,59
 216 36 216 36 184 52 c 1,60,61
 160 34 160 34 141 34 c 0,62,63
 101 34 101 34 101 75 c 0,64,65
 101 86 101 86 104 101 c 2,66,-1
 117 162 l 2,67,68
 131 229 131 229 182 229 c 0,69,70
 222 229 222 229 222 185 c 0,71,72
 222 158 222 158 252 141 c 128,-1,73
 282 124 282 124 326 124 c 0,0,1
EndSplineSet
EndChar

StartChar: percent
Encoding: 37 37 17
Width: 600
Flags: W
HStem: -15 65<332.528 434.388> 199 65<355.125 457.808> 338 65<267.77 369.779> 552 65<290.125 392.808>
VStem: 188 66<416.715 517.021> 253 66<63.7148 164.021> 406 66<439.591 538.624> 471 66<86.1246 185.624>
DStem2: 555 390 174 213 0.956524 0.291653<-437.128 20.9873>
LayerCount: 3
Fore
SplineSet
188 448 m 0xfa
 188 532 269 617 359 617 c 0
 427 617 472 571 472 507 c 0
 472 421 390 338 301 338 c 0
 234 338 188 385 188 448 c 0xfa
314 403 m 0
 360 403 406 446 406 493 c 0
 406 527 381 552 345 552 c 0
 301 552 254 510 254 462 c 0
 254 429 279 403 314 403 c 0
599 369 m 0
 599 339 567 333 561 331 c 2
 174 213 l 2
 167 211 157 209 153 209 c 0
 140 209 130 221 130 235 c 0
 130 257 148 266 168 272 c 2
 555 390 l 2
 568 394 570 394 576 394 c 0
 589 394 599 383 599 369 c 0
253 95 m 0xf5
 253 179 334 264 424 264 c 0
 492 264 537 218 537 154 c 0
 537 59 447 -15 365 -15 c 0
 299 -15 253 32 253 95 c 0xf5
380 50 m 0
 423 50 471 91 471 140 c 0
 471 174 446 199 410 199 c 0
 366 199 319 157 319 109 c 0
 319 76 344 50 380 50 c 0
EndSplineSet
Validated: 1
Layer: 2
SplineSet
188 448 m 0,0,1
 188 512 188 512 240 564.5 c 128,-1,2
 292 617 292 617 359 617 c 0,3,4
 410 617 410 617 441 586 c 128,-1,5
 472 555 472 555 472 507 c 0,6,7
 472 442 472 442 419.5 390 c 128,-1,8
 367 338 367 338 301 338 c 0,9,10
 251 338 251 338 219.5 369 c 128,-1,11
 188 400 188 400 188 448 c 0,0,1
314 403 m 0,12,13
 349 403 349 403 377.5 430.5 c 128,-1,14
 406 458 406 458 406 493 c 0,15,16
 406 519 406 519 389 535.5 c 128,-1,17
 372 552 372 552 345 552 c 0,18,19
 311 552 311 552 282.5 524.5 c 128,-1,20
 254 497 254 497 254 462 c 0,21,22
 254 437 254 437 271 420 c 128,-1,23
 288 403 288 403 314 403 c 0,12,13
599 369 m 0,24,25
 599 363 599 363 597.5 357.5 c 128,-1,26
 596 352 596 352 592.5 348.5 c 128,-1,27
 589 345 589 345 586 342 c 128,-1,28
 583 339 583 339 578.5 337 c 128,-1,29
 574 335 574 335 571.5 334 c 128,-1,30
 569 333 569 333 565 332 c 2,31,-1
 561 331 l 1,32,-1
 174 213 l 2,33,34
 160 209 160 209 153 209 c 0,35,36
 143 209 143 209 136.5 216.5 c 128,-1,37
 130 224 130 224 130 235 c 0,38,39
 130 261 130 261 168 272 c 2,40,-1
 555 390 l 2,41,42
 568 394 568 394 576 394 c 0,43,44
 586 394 586 394 592.5 387 c 128,-1,45
 599 380 599 380 599 369 c 0,24,25
253 95 m 0,46,47
 253 159 253 159 305 211.5 c 128,-1,48
 357 264 357 264 424 264 c 0,49,50
 475 264 475 264 506 233 c 128,-1,51
 537 202 537 202 537 154 c 0,52,53
 537 85 537 85 483 35 c 128,-1,54
 429 -15 429 -15 365 -15 c 0,55,56
 316 -15 316 -15 284.5 16 c 128,-1,57
 253 47 253 47 253 95 c 0,46,47
380 50 m 0,58,59
 413 50 413 50 442 77 c 128,-1,60
 471 104 471 104 471 140 c 0,61,62
 471 166 471 166 454 182.5 c 128,-1,63
 437 199 437 199 410 199 c 0,64,65
 376 199 376 199 347.5 171.5 c 128,-1,66
 319 144 319 144 319 109 c 0,67,68
 319 84 319 84 336 67 c 128,-1,69
 353 50 353 50 380 50 c 0,58,59
EndSplineSet
EndChar

StartChar: ampersand
Encoding: 38 38 18
Width: 600
Flags: W
HStem: -14 100<211.229 332.362> 0 100<455 505.069> 450 100<337.1 429.22>
VStem: 102 102<96.3931 185.927> 219 102<333.691 433.265>
LayerCount: 3
Fore
SplineSet
386 450 m 0xb8
 358 450 321 426 321 394 c 0
 321 383 327 366 338 343 c 2
 407 198 l 1
 448 280 l 1
 501 280 l 2
 539 280 557 269 557 243 c 0
 557 208 530 182 502 180 c 1
 482 139 471 121 455 100 c 1
 463 100 l 2
 500 100 520 88 520 63 c 0
 520 18 487 0 442 0 c 2
 381 0 l 1x78
 373 15 l 1
 339 -6 307 -14 254 -14 c 0
 159 -14 102 33 102 108 c 0
 102 192 159 264 235 303 c 1
 223 334 219 353 219 372 c 0
 219 471 321 550 406 550 c 0
 430 550 449 545 472 533 c 1
 485 537 495 540 502 540 c 0
 524 540 540 521 540 499 c 0
 540 468 524 456 487 438 c 2
 441 416 l 1
 418 442 406 450 386 450 c 0xb8
333 100 m 1
 275 220 l 1
 235 203 204 172 204 130 c 0
 204 101 227 86 275 86 c 0xb8
 300 86 312 89 333 100 c 1
EndSplineSet
Validated: 1
Layer: 2
SplineSet
386 450 m 0,0,1
 363 450 363 450 342 433.5 c 128,-1,2
 321 417 321 417 321 394 c 0,3,4
 321 379 321 379 338 343 c 2,5,-1
 407 198 l 1,6,-1
 448 280 l 1,7,-1
 501 280 l 2,8,9
 557 280 557 280 557 243 c 0,10,11
 557 218 557 218 540.5 200 c 128,-1,12
 524 182 524 182 502 180 c 1,13,14
 477 129 477 129 455 100 c 1,15,-1
 463 100 l 2,16,17
 520 100 520 100 520 63 c 0,18,19
 520 0 520 0 442 0 c 2,20,-1
 381 0 l 1,21,-1
 373 15 l 1,22,23
 326 -14 326 -14 254 -14 c 0,24,25
 183 -14 183 -14 142.5 19 c 128,-1,26
 102 52 102 52 102 108 c 0,27,28
 102 169 102 169 139 221 c 128,-1,29
 176 273 176 273 235 303 c 1,30,31
 219 344 219 344 219 372 c 0,32,33
 219 443 219 443 279 496.5 c 128,-1,34
 339 550 339 550 406 550 c 0,35,36
 439 550 439 550 472 533 c 1,37,38
 495 540 495 540 502 540 c 0,39,40
 518 540 518 540 529 528 c 128,-1,41
 540 516 540 516 540 499 c 0,42,43
 540 477 540 477 528.5 465 c 128,-1,44
 517 453 517 453 487 438 c 2,45,-1
 441 416 l 1,46,47
 411 450 411 450 386 450 c 0,0,1
333 100 m 1,48,-1
 275 220 l 1,49,50
 204 190 204 190 204 130 c 0,51,52
 204 86 204 86 275 86 c 0,53,54
 306 86 306 86 333 100 c 1,48,-1
EndSplineSet
EndChar

StartChar: quotesingle
Encoding: 39 39 19
Width: 600
Flags: W
HStem: 312 290<364 400.733>
VStem: 343 149
LayerCount: 3
Fore
SplineSet
364 602 m 1
 492 602 l 1
 407 348 l 2
 398 322 387 312 367 312 c 0
 351 312 343 319 343 337 c 0
 343 340 344 343 344 347 c 2
 364 602 l 1
EndSplineSet
Validated: 1
Layer: 2
SplineSet
364 602 m 1,0,-1
 492 602 l 1,1,-1
 407 348 l 2,2,3
 395 312 395 312 367 312 c 0,4,5
 343 312 343 312 343 337 c 0,6,7
 343 338 343 338 343.5 341.5 c 128,-1,8
 344 345 344 345 344 347 c 2,9,-1
 364 602 l 1,0,-1
EndSplineSet
EndChar

StartChar: parenleft
Encoding: 40 40 20
Width: 600
Flags: W
VStem: 304 111<1.14342 275.784>
LayerCount: 3
Fore
SplineSet
467 -93 m 0
 467 -126 435 -153 404 -153 c 0
 380 -153 370 -142 351 -95 c 0
 320 -20 304 56 304 131 c 0
 304 313 406 474 505 587 c 0
 536 622 549 632 571 632 c 0
 596 632 613 615 613 593 c 0
 613 576 605 564 593 549 c 0
 500 438 415 305 415 142 c 0
 415 21 467 -75 467 -93 c 0
EndSplineSet
Validated: 1
Layer: 2
SplineSet
467 -93 m 0,0,1
 467 -117 467 -117 447.5 -135 c 128,-1,2
 428 -153 428 -153 404 -153 c 0,3,4
 386 -153 386 -153 375.5 -141.5 c 128,-1,5
 365 -130 365 -130 351 -95 c 0,6,7
 304 19 304 19 304 131 c 0,8,9
 304 358 304 358 505 587 c 0,10,11
 529 614 529 614 542 623 c 128,-1,12
 555 632 555 632 571 632 c 0,13,14
 590 632 590 632 601.5 621 c 128,-1,15
 613 610 613 610 613 593 c 0,16,17
 613 574 613 574 593 549 c 0,18,19
 415 337 415 337 415 142 c 0,20,21
 415 89 415 89 428 34.5 c 128,-1,22
 441 -20 441 -20 454 -54 c 128,-1,23
 467 -88 467 -88 467 -93 c 0,0,1
EndSplineSet
EndChar

StartChar: parenright
Encoding: 41 41 21
Width: 600
Flags: W
VStem: 291 112<206.707 478.964>
LayerCount: 3
Fore
SplineSet
239 572 m 0
 239 598 264 632 302 632 c 0
 326 632 337 621 356 574 c 0
 387 499 403 423 403 348 c 0
 403 165 298 2 202 -109 c 0
 171 -144 157 -153 135 -153 c 0
 110 -153 94 -137 94 -115 c 0
 94 -97 99 -88 114 -70 c 0
 207 41 291 174 291 337 c 0
 291 461 239 557 239 572 c 0
EndSplineSet
Validated: 1
Layer: 2
SplineSet
239 572 m 0,0,1
 239 593 239 593 257 612.5 c 128,-1,2
 275 632 275 632 302 632 c 0,3,4
 320 632 320 632 331 620.5 c 128,-1,5
 342 609 342 609 356 574 c 0,6,7
 403 460 403 460 403 348 c 0,8,9
 403 123 403 123 202 -109 c 0,10,11
 179 -135 179 -135 165.5 -144 c 128,-1,12
 152 -153 152 -153 135 -153 c 0,13,14
 116 -153 116 -153 105 -142.5 c 128,-1,15
 94 -132 94 -132 94 -115 c 0,16,17
 94 -94 94 -94 114 -70 c 0,18,19
 291 141 291 141 291 337 c 0,20,21
 291 392 291 392 278 446.5 c 128,-1,22
 265 501 265 501 252 535 c 128,-1,23
 239 569 239 569 239 572 c 0,0,1
EndSplineSet
EndChar

StartChar: asterisk
Encoding: 42 42 22
Width: 600
Flags: W
HStem: 400 102<194.036 218 529 595.358> 602 20G<413.5 442>
DStem2: 231 301 299 242 0.686624 0.727013<-57.7248 97.6217> 449 467 460 372 0.956674 0.291162<0 131.288>
LayerCount: 3
Fore
SplineSet
508 268 m 0
 508 242 480 208 446 208 c 0
 425 208 418 214 403 242 c 2
 367 314 l 1
 299 242 l 2
 273 214 262 208 242 208 c 0
 219 208 202 225 202 248 c 0
 202 269 215 284 231 301 c 2
 298 372 l 1
 218 400 l 2
 189 410 177 420 177 439 c 0
 177 472 208 502 237 502 c 0
 247 502 249 501 269 495 c 2
 349 467 l 1
 368 556 l 2
 376 596 395 622 432 622 c 0
 452 622 472 609 472 585 c 0
 472 578 471 570 468 556 c 2
 449 467 l 1
 541 495 l 2
 563 501 567 502 576 502 c 0
 598 502 614 484 614 462 c 0
 614 423 579 408 552 400 c 2
 460 372 l 1
 497 301 l 2
 505 286 508 277 508 268 c 0
EndSplineSet
Validated: 1
Layer: 2
SplineSet
508 268 m 0,0,1
 508 247 508 247 489 227.5 c 128,-1,2
 470 208 470 208 446 208 c 0,3,4
 430 208 430 208 422 214.5 c 128,-1,5
 414 221 414 221 403 242 c 2,6,-1
 367 314 l 1,7,-1
 299 242 l 2,8,9
 280 221 280 221 268.5 214.5 c 128,-1,10
 257 208 257 208 242 208 c 0,11,12
 225 208 225 208 213.5 219.5 c 128,-1,13
 202 231 202 231 202 248 c 0,14,15
 202 270 202 270 231 301 c 2,16,-1
 298 372 l 1,17,-1
 218 400 l 2,18,19
 177 414 177 414 177 439 c 0,20,21
 177 463 177 463 196 482.5 c 128,-1,22
 215 502 215 502 237 502 c 0,23,24
 246 502 246 502 269 495 c 2,25,-1
 349 467 l 1,26,-1
 368 556 l 2,27,28
 381 622 381 622 432 622 c 0,29,30
 448 622 448 622 460 612 c 128,-1,31
 472 602 472 602 472 585 c 0,32,33
 472 575 472 575 468 556 c 2,34,-1
 449 467 l 1,35,-1
 541 495 l 2,36,37
 567 502 567 502 576 502 c 0,38,39
 592 502 592 502 603 490.5 c 128,-1,40
 614 479 614 479 614 462 c 0,41,42
 614 418 614 418 552 400 c 2,43,-1
 460 372 l 1,44,-1
 497 301 l 2,45,46
 508 280 508 280 508 268 c 0,0,1
EndSplineSet
EndChar

StartChar: plus
Encoding: 43 43 23
Width: 600
Flags: W
HStem: 0 21G<286.5 317.5> 230 100<114.637 299 420 604.296>
DStem2: 249.971 0 349.971 0 0.207912 0.978148<41.7859 235.168 358.14 552.499>
LayerCount: 3
Fore
SplineSet
619 293 m 0
 619 248 587 230 540 230 c 2
 399 230 l 1
 364 66 l 2
 355 23 335 0 300 0 c 0
 273 0 261 14 261 40 c 0
 261 48 262 56 264 66 c 2
 299 230 l 1
 157 230 l 2
 120 230 100 242 100 267 c 0
 100 312 132 330 178 330 c 2
 320 330 l 1
 355 494 l 2
 364 537 385 560 419 560 c 0
 446 560 458 547 458 521 c 0
 458 513 457 504 455 494 c 2
 420 330 l 1
 561 330 l 2
 599 330 619 319 619 293 c 0
EndSplineSet
Validated: 1
Layer: 2
SplineSet
619 293 m 0,0,1
 619 230 619 230 540 230 c 2,2,-1
 399 230 l 1,3,-1
 364 66 l 2,4,5
 350 0 350 0 300 0 c 0,6,7
 261 0 261 0 261 40 c 0,8,9
 261 51 261 51 264 66 c 2,10,-1
 299 230 l 1,11,-1
 157 230 l 2,12,13
 100 230 100 230 100 267 c 0,14,15
 100 330 100 330 178 330 c 2,16,-1
 320 330 l 1,17,-1
 355 494 l 2,18,19
 369 560 369 560 419 560 c 0,20,21
 458 560 458 560 458 521 c 0,22,23
 458 509 458 509 455 494 c 2,24,-1
 420 330 l 1,25,-1
 561 330 l 2,26,27
 619 330 619 330 619 293 c 0,0,1
EndSplineSet
EndChar

StartChar: comma
Encoding: 44 44 24
Width: 600
Flags: W
HStem: -158 292
VStem: 119 260
LayerCount: 3
Fore
SplineSet
247 134 m 1
 379 134 l 1
 182 -134 l 2
 170 -150 156 -158 144 -158 c 0
 129 -158 119 -148 119 -135 c 0
 119 -130 121 -122 126 -111 c 2
 247 134 l 1
EndSplineSet
Validated: 1
Layer: 2
SplineSet
247 134 m 1,0,-1
 379 134 l 1,1,-1
 182 -134 l 2,2,3
 164 -158 164 -158 144 -158 c 0,4,5
 133 -158 133 -158 126 -151.5 c 128,-1,6
 119 -145 119 -145 119 -135 c 0,7,8
 119 -126 119 -126 126 -111 c 2,9,-1
 247 134 l 1,0,-1
EndSplineSet
EndChar

StartChar: hyphen
Encoding: 45 45 25
Width: 600
Flags: W
HStem: 229 100<114.637 604.363>
LayerCount: 3
Fore
SplineSet
619 293 m 0
 619 248 587 229 541 229 c 2
 157 229 l 2
 120 229 100 241 100 266 c 0
 100 310 132 329 178 329 c 2
 562 329 l 2
 600 329 619 318 619 293 c 0
EndSplineSet
Validated: 1
Layer: 2
SplineSet
619 293 m 0,0,1
 619 229 619 229 541 229 c 2,2,-1
 157 229 l 2,3,4
 100 229 100 229 100 266 c 0,5,6
 100 329 100 329 178 329 c 2,7,-1
 562 329 l 2,8,9
 619 329 619 329 619 293 c 0,0,1
EndSplineSet
EndChar

StartChar: period
Encoding: 46 46 26
Width: 600
Flags: W
HStem: -15 132<262.964 360.359>
VStem: 234 154<13.6636 88.1026>
LayerCount: 3
Fore
SplineSet
388 65 m 0
 388 27 353 -15 306 -15 c 2
 288 -15 l 2
 257 -15 234 8 234 37 c 0
 234 80 276 117 316 117 c 2
 334 117 l 2
 366 117 388 95 388 65 c 0
EndSplineSet
Validated: 1
Layer: 2
SplineSet
388 65 m 0,0,1
 388 35 388 35 364 10 c 128,-1,2
 340 -15 340 -15 306 -15 c 2,3,-1
 288 -15 l 2,4,5
 265 -15 265 -15 249.5 0 c 128,-1,6
 234 15 234 15 234 37 c 0,7,8
 234 69 234 69 259.5 93 c 128,-1,9
 285 117 285 117 316 117 c 2,10,-1
 334 117 l 2,11,12
 358 117 358 117 373 102.5 c 128,-1,13
 388 88 388 88 388 65 c 0,0,1
EndSplineSet
EndChar

StartChar: slash
Encoding: 47 47 27
Width: 600
Flags: W
DStem2: 89 -27 170 -69 0.565032 0.825069<-49.2366 882.367>
LayerCount: 3
Fore
SplineSet
656 655 m 0
 656 637 641 618 635 610 c 2
 170 -69 l 2
 147 -102 133 -113 109 -113 c 0
 86 -113 68 -95 68 -73 c 0
 68 -58 76 -45 89 -27 c 2
 554 651 l 2
 577 685 592 695 615 695 c 0
 639 695 656 677 656 655 c 0
EndSplineSet
Validated: 1
Layer: 2
SplineSet
656 655 m 128,-1,1
 656 638 656 638 635 610 c 2,2,-1
 170 -69 l 2,3,4
 152 -94 152 -94 139.5 -103.5 c 128,-1,5
 127 -113 127 -113 109 -113 c 0,6,7
 92 -113 92 -113 80 -101.5 c 128,-1,8
 68 -90 68 -90 68 -73 c 128,-1,9
 68 -56 68 -56 89 -27 c 2,10,-1
 554 651 l 2,11,12
 571 676 571 676 584.5 685.5 c 128,-1,13
 598 695 598 695 615 695 c 0,14,15
 633 695 633 695 644.5 683.5 c 128,-1,0
 656 672 656 672 656 655 c 128,-1,1
EndSplineSet
EndChar

StartChar: zero
Encoding: 48 48 28
Width: 600
Flags: W
HStem: -15 100<260.698 382.435> 538 100<350.187 469.538>
VStem: 130 101<116.192 324.992> 502 101<302.789 504.75>
DStem2: 79.6967 -15 180.185 -15 0.207912 0.978148<238.675 517.999> 414.185 -15 513.697 -15 0.207912 0.978148<164.445 448.794>
LayerCount: 3
Fore
SplineSet
436 638 m 0
 555 638 603 552 603 446 c 0
 603 418 599 389 593 359 c 2
 573 264 l 2
 543 120 446 -15 297 -15 c 0
 178 -15 130 71 130 178 c 0
 130 205 133 235 139 264 c 2
 159 359 l 2
 190 503 287 638 436 638 c 0
261 366 m 2
 238 257 l 2
 233 235 231 214 231 196 c 0
 231 127 262 85 318 85 c 0
 389 85 450 153 472 257 c 2
 495 366 l 2
 500 388 502 408 502 426 c 0
 502 496 470 538 414 538 c 0
 343 538 283 470 261 366 c 2
EndSplineSet
Validated: 1
Layer: 2
SplineSet
436 638 m 0,0,1
 521 638 521 638 562 584.5 c 128,-1,2
 603 531 603 531 603 446 c 0,3,4
 603 409 603 409 593 359 c 2,5,-1
 573 264 l 2,6,7
 549 147 549 147 476 66 c 128,-1,8
 403 -15 403 -15 297 -15 c 0,9,10
 212 -15 212 -15 171 38.5 c 128,-1,11
 130 92 130 92 130 178 c 0,12,13
 130 220 130 220 139 264 c 2,14,-1
 159 359 l 2,15,16
 184 476 184 476 257 557 c 128,-1,17
 330 638 330 638 436 638 c 0,0,1
261 366 m 2,18,-1
 238 257 l 2,19,20
 231 226 231 226 231 196 c 0,21,22
 231 144 231 144 253.5 114.5 c 128,-1,23
 276 85 276 85 318 85 c 0,24,25
 371 85 371 85 413.5 132 c 128,-1,26
 456 179 456 179 472 257 c 2,27,-1
 495 366 l 2,28,29
 502 397 502 397 502 426 c 0,30,31
 502 479 502 479 479 508.5 c 128,-1,32
 456 538 456 538 414 538 c 0,33,34
 361 538 361 538 319.5 491 c 128,-1,35
 278 444 278 444 261 366 c 2,18,-1
EndSplineSet
EndChar

StartChar: one
Encoding: 49 49 29
Width: 600
Flags: W
HStem: 0 100<105.795 271 371 514.069> 618 20G<404.545 481.725>
DStem2: 249.744 0 349.744 0 0.207912 0.978148<123.025 520.385> 262 583 266 486 0.971154 0.238453<-52.2736 75.5853>
LayerCount: 3
Fore
SplineSet
529 63 m 0
 529 19 496 0 451 0 c 2
 149 0 l 2
 103 0 92 20 92 38 c 0
 92 82 124 100 170 100 c 2
 271 100 l 1
 358 509 l 1
 266 486 l 2
 246 481 243 480 233 480 c 0
 211 480 197 496 197 519 c 0
 197 559 217 572 262 583 c 2
 486 638 l 1
 371 100 l 1
 472 100 l 2
 509 100 529 88 529 63 c 0
EndSplineSet
Validated: 1
Layer: 2
SplineSet
529 63 m 0,0,1
 529 0 529 0 451 0 c 2,2,-1
 149 0 l 2,3,4
 92 0 92 0 92 38 c 0,5,6
 92 100 92 100 170 100 c 2,7,-1
 271 100 l 1,8,-1
 358 509 l 1,9,-1
 266 486 l 2,10,11
 242 480 242 480 233 480 c 0,12,13
 217 480 217 480 207 491 c 128,-1,14
 197 502 197 502 197 519 c 0,15,16
 197 548 197 548 211.5 561 c 128,-1,17
 226 574 226 574 262 583 c 2,18,-1
 486 638 l 1,19,-1
 371 100 l 1,20,-1
 472 100 l 2,21,22
 529 100 529 100 529 63 c 0,0,1
EndSplineSet
EndChar

StartChar: two
Encoding: 50 50 30
Width: 600
Flags: W
HStem: 0 154<445.277 508> 0 100<228 437.532> 538 100<323.062 472.836>
VStem: 173 92<430.101 483.59> 500 102<410.567 510.763>
LayerCount: 3
Fore
SplineSet
173 460 m 0x78
 173 505 265 638 426 638 c 0
 532 638 602 575 602 485 c 0
 602 360 514 309 228 100 c 1
 429 100 l 1x78
 440 136 460 154 491 154 c 0
 511 154 531 141 531 117 c 0
 531 110 530 102 527 88 c 2
 508 0 l 1xb8
 54 0 l 1
 76 105 l 1
 471 382 500 411 500 464 c 0
 500 507 460 538 402 538 c 0
 299 538 265 451 265 451 c 1
 256 434 235 422 214 422 c 0
 190 422 173 439 173 460 c 0x78
EndSplineSet
Validated: 1
Layer: 2
SplineSet
173 460 m 0,0,1
 173 478 173 478 190.5 507 c 128,-1,2
 208 536 208 536 238.5 566 c 128,-1,3
 269 596 269 596 319.5 617 c 128,-1,4
 370 638 370 638 426 638 c 0,5,6
 505 638 505 638 553.5 595.5 c 128,-1,7
 602 553 602 553 602 485 c 0,8,9
 602 406 602 406 547 349.5 c 128,-1,10
 492 293 492 293 303.145588716 154.688878019 c 0,11,12
 255 120 255 120 228 100 c 1,13,-1
 429 100 l 1,14,15
 446 154 446 154 491 154 c 0,16,17
 507 154 507 154 519 144 c 128,-1,18
 531 134 531 134 531 117 c 0,19,20
 531 107 531 107 527 88 c 2,21,-1
 508 0 l 1,22,-1
 54 0 l 1,23,-1
 76 105 l 1,24,25
 280 248 280 248 364.5 312.5 c 128,-1,26
 449 377 449 377 474.5 406 c 128,-1,27
 500 435 500 435 500 464 c 0,28,29
 500 496 500 496 472.5 517 c 128,-1,30
 445 538 445 538 402 538 c 0,31,32
 373 538 373 538 348.5 529 c 128,-1,33
 324 520 324 520 309 507 c 128,-1,34
 294 494 294 494 283.5 481.5 c 128,-1,35
 273 469 273 469 269 460 c 2,36,-1
 265 451 l 2,37,38
 250 422 250 422 214 422 c 0,39,40
 196 422 196 422 184.5 433 c 128,-1,41
 173 444 173 444 173 460 c 0,0,1
EndSplineSet
EndChar

StartChar: three
Encoding: 51 51 31
Width: 600
Flags: W
HStem: -15 100<173.283 405.52> 287 96<309.289 425.797> 538 100<317.633 487.64>
VStem: 470 101<137.174 247.999> 507 102<422.052 517.804>
LayerCount: 3
Fore
SplineSet
80 60 m 0xf0
 80 94 113 120 142 120 c 0
 182 120 153 85 286 85 c 0
 379 85 470 108 470 199 c 0xf0
 470 251 412 287 337 287 c 0
 309 287 294 301 294 322 c 0
 294 358 325 383 357 383 c 0
 441 383 507 410 507 477 c 0
 507 515 471 538 409 538 c 0
 294 538 297 477 245 477 c 0
 222 477 206 495 206 517 c 0
 206 585 331 638 437 638 c 0
 567 638 609 561 609 495 c 0xe8
 609 415 567 376 487 333 c 1
 544 302 571 262 571 213 c 0
 571 56 418 -15 268 -15 c 0
 153 -15 80 14 80 60 c 0xf0
EndSplineSet
Validated: 1
Layer: 2
SplineSet
80 60 m 0,0,1
 80 85 80 85 99.5 102.5 c 128,-1,2
 119 120 119 120 142 120 c 0,3,4
 154 120 154 120 163 114.5 c 128,-1,5
 172 109 172 109 179 102.5 c 128,-1,6
 186 96 186 96 213.5 90.5 c 128,-1,7
 241 85 241 85 286 85 c 0,8,9
 470 85 470 85 470 199 c 0,10,11
 470 238 470 238 432 262.5 c 128,-1,12
 394 287 394 287 337 287 c 0,13,14
 294 287 294 287 294 322 c 0,15,16
 294 348 294 348 313 365.5 c 128,-1,17
 332 383 332 383 357 383 c 0,18,19
 424 383 424 383 465.5 406 c 128,-1,20
 507 429 507 429 507 477 c 0,21,22
 507 506 507 506 481 522 c 128,-1,23
 455 538 455 538 409 538 c 0,24,25
 370 538 370 538 342.5 528.5 c 128,-1,26
 315 519 315 519 303.5 507.5 c 128,-1,27
 292 496 292 496 277 486.5 c 128,-1,28
 262 477 262 477 245 477 c 128,-1,29
 228 477 228 477 217 488.5 c 128,-1,30
 206 500 206 500 206 517 c 0,31,32
 206 566 206 566 279.5 602 c 128,-1,33
 353 638 353 638 437 638 c 0,34,35
 526 638 526 638 567.5 595.5 c 128,-1,36
 609 553 609 553 609 495 c 0,37,38
 609 438 609 438 580.5 403 c 128,-1,39
 552 368 552 368 487 333 c 1,40,41
 571 287 571 287 571 213 c 0,42,43
 571 103 571 103 481.5 44 c 128,-1,44
 392 -15 392 -15 268 -15 c 0,45,46
 182 -15 182 -15 131 5.5 c 128,-1,47
 80 26 80 26 80 60 c 0,0,1
EndSplineSet
EndChar

StartChar: four
Encoding: 52 52 32
Width: 600
Flags: W
HStem: 0 100<265.854 368 468 505.002> 138 100<248 376 498 534.258> 602 20G<431.741 579>
DStem2: 122 221 248 238 0.630811 0.775936<92.6731 407.243> 346.744 0 446.744 0 0.207912 0.978148<123.025 141.067 264.247 490.771>
LayerCount: 3
Fore
SplineSet
520 62 m 0
 520 19 487 0 441 0 c 2
 309 0 l 2
 263 0 252 20 252 38 c 0
 252 82 285 100 330 100 c 2
 368 100 l 1
 376 138 l 1
 104 138 l 1
 122 221 l 1
 448 622 l 1
 579 622 l 1
 498 238 l 1
 532 238 549 224 549 200 c 0
 549 159 519 139 476 138 c 1
 468 100 l 1
 502 100 520 86 520 62 c 0
398 238 m 1
 449 480 l 1
 248 238 l 1
 398 238 l 1
EndSplineSet
Validated: 1
Layer: 2
SplineSet
520 62 m 0,0,1
 520 0 520 0 441 0 c 2,2,-1
 309 0 l 2,3,4
 252 0 252 0 252 38 c 0,5,6
 252 100 252 100 330 100 c 2,7,-1
 368 100 l 1,8,-1
 376 138 l 1,9,-1
 104 138 l 1,10,-1
 122 221 l 1,11,-1
 448 622 l 1,12,-1
 579 622 l 1,13,-1
 498 238 l 1,14,15
 549 238 549 238 549 200 c 0,16,17
 549 140 549 140 476 138 c 1,18,-1
 468 100 l 1,19,20
 520 100 520 100 520 62 c 0,0,1
398 238 m 1,21,-1
 449 480 l 1,22,-1
 248 238 l 1,23,-1
 398 238 l 1,21,-1
EndSplineSet
EndChar

StartChar: five
Encoding: 53 53 33
Width: 600
Flags: W
HStem: -15 100<189.282 404.574> 324 100<307.186 448.895> 522 100<330 595.363>
VStem: 475 103<150.143 296.202>
LayerCount: 3
Fore
SplineSet
83 73 m 0
 83 107 115 133 144 133 c 0
 192 133 159 85 295 85 c 0
 408 85 475 130 475 235 c 0
 475 290 442 324 386 324 c 0
 316 324 254 282 229 282 c 0
 204 282 189 299 189 324 c 0
 189 329 190 333 191 338 c 2
 251 622 l 1
 553 622 l 2
 590 622 610 610 610 585 c 0
 610 540 578 522 532 522 c 2
 330 522 l 1
 306 407 l 1
 344 418 379 424 408 424 c 0
 511 424 578 355 578 255 c 0
 578 75 437 -15 275 -15 c 0
 163 -15 83 22 83 73 c 0
EndSplineSet
Validated: 1
Layer: 2
SplineSet
83 73 m 0,0,1
 83 98 83 98 102 115.5 c 128,-1,2
 121 133 121 133 144 133 c 0,3,4
 159 133 159 133 169 125.5 c 128,-1,5
 179 118 179 118 186 109 c 128,-1,6
 193 100 193 100 221 92.5 c 128,-1,7
 249 85 249 85 295 85 c 0,8,9
 475 85 475 85 475 235 c 0,10,11
 475 276 475 276 451.5 300 c 128,-1,12
 428 324 428 324 386 324 c 0,13,14
 345 324 345 324 290.5 303 c 128,-1,15
 236 282 236 282 229 282 c 0,16,17
 210 282 210 282 199.5 293.5 c 128,-1,18
 189 305 189 305 189 324 c 0,19,20
 189 328 189 328 191 338 c 2,21,-1
 251 622 l 1,22,-1
 553 622 l 2,23,24
 610 622 610 622 610 585 c 0,25,26
 610 522 610 522 532 522 c 2,27,-1
 330 522 l 1,28,-1
 306 407 l 1,29,30
 365 424 365 424 408 424 c 0,31,32
 485 424 485 424 531.5 377 c 128,-1,33
 578 330 578 330 578 255 c 0,34,35
 578 126 578 126 491 55.5 c 128,-1,36
 404 -15 404 -15 275 -15 c 0,37,38
 191 -15 191 -15 137 10 c 128,-1,39
 83 35 83 35 83 73 c 0,0,1
EndSplineSet
EndChar

StartChar: six
Encoding: 54 54 34
Width: 600
Flags: W
HStem: -15 100<289.577 421.648> 294 100<344.718 454.233> 535 103<452.761 622.512>
VStem: 154 108<115.524 227.166> 478 102<142.852 269.604>
LayerCount: 3
Fore
SplineSet
663 583 m 0
 663 549 629 522 600 522 c 0
 587 522 560 535 543 535 c 0
 437 535 326 447 277 324 c 1
 336 375 378 394 429 394 c 0
 519 394 580 326 580 235 c 0
 580 86 466 -15 328 -15 c 0
 206 -15 154 66 154 181 c 0
 154 430 359 638 559 638 c 0
 623 638 663 617 663 583 c 0
262 209 m 1
 262 125 284 85 352 85 c 0
 418 85 478 135 478 214 c 0
 478 260 446 294 400 294 c 0
 357 294 299 258 262 209 c 1
EndSplineSet
Validated: 1
Layer: 2
SplineSet
663 583 m 128,-1,1
 663 558 663 558 643 540 c 128,-1,2
 623 522 623 522 600 522 c 0,3,4
 594 522 594 522 573 528.5 c 128,-1,5
 552 535 552 535 543 535 c 0,6,7
 463 535 463 535 388.5 475.5 c 128,-1,8
 314 416 314 416 277 324 c 1,9,10
 358 394 358 394 429 394 c 0,11,12
 496 394 496 394 538 349 c 128,-1,13
 580 304 580 304 580 235 c 0,14,15
 580 125 580 125 507 55 c 128,-1,16
 434 -15 434 -15 328 -15 c 0,17,18
 240 -15 240 -15 197 37.5 c 128,-1,19
 154 90 154 90 154 181 c 0,20,21
 154 302 154 302 213.5 408.5 c 128,-1,22
 273 515 273 515 366.5 576.5 c 128,-1,23
 460 638 460 638 559 638 c 0,24,25
 607 638 607 638 635 623 c 128,-1,0
 663 608 663 608 663 583 c 128,-1,1
262 209 m 1,26,27
 262 144 262 144 282 114.5 c 128,-1,28
 302 85 302 85 352 85 c 0,29,30
 404 85 404 85 441 121 c 128,-1,31
 478 157 478 157 478 214 c 0,32,33
 478 249 478 249 456 271.5 c 128,-1,34
 434 294 434 294 400 294 c 0,35,36
 368 294 368 294 329 270 c 128,-1,37
 290 246 290 246 262 209 c 1,26,27
EndSplineSet
EndChar

StartChar: seven
Encoding: 55 55 35
Width: 600
Flags: W
HStem: -1 21G<284 310> 468 154<207 269.723> 522 100<277.468 514>
LayerCount: 3
Fore
SplineSet
224 468 m 0xc0
 192 468 184 494 184 505 c 0
 184 512 186 521 189 534 c 2
 207 622 l 1xc0
 640 622 l 1
 619 523 l 1
 359 48 l 2
 339 12 323 -1 297 -1 c 0
 271 -1 255 17 255 41 c 0
 255 48 256 56 270 81 c 2
 514 522 l 1
 286 522 l 1xa0
 275 486 255 468 224 468 c 0xc0
EndSplineSet
Validated: 1
Layer: 2
SplineSet
224 468 m 0,0,1
 203 468 203 468 193.5 480.5 c 128,-1,2
 184 493 184 493 184 505 c 0,3,4
 184 512 184 512 189 534 c 2,5,-1
 207 622 l 1,6,-1
 640 622 l 1,7,-1
 619 523 l 1,8,-1
 359 48 l 2,9,10
 332 -1 332 -1 297 -1 c 0,11,12
 278 -1 278 -1 266.5 11 c 128,-1,13
 255 23 255 23 255 41 c 0,14,15
 255 54 255 54 270 81 c 2,16,-1
 514 522 l 1,17,-1
 286 522 l 1,18,19
 270 468 270 468 224 468 c 0,0,1
EndSplineSet
EndChar

StartChar: eight
Encoding: 56 56 36
Width: 600
Flags: W
HStem: -15 100<245.101 401.214> 263 101<308.703 425.422> 538 100<337.575 482.653>
VStem: 114 104<110.545 212.381> 186 100<385.883 491.964> 455 101<133.638 235.578> 506 103<410.77 514.115>
LayerCount: 3
Fore
SplineSet
609 490 m 0xea
 609 387 513 334 488 319 c 1
 533 286 556 246 556 199 c 0
 556 102 464 -15 296 -15 c 0
 184 -15 114 41 114 127 c 0xf4
 114 203 160 271 248 319 c 1
 206 351 186 386 186 425 c 0
 186 527 297 638 436 638 c 0
 538 638 609 574 609 490 c 0xea
377 364 m 0
 444 364 506 407 506 468 c 0
 506 510 470 538 414 538 c 0
 342 538 286 491 286 434 c 0xea
 286 392 321 364 377 364 c 0
318 85 m 0
 390 85 455 129 455 187 c 0
 455 231 415 263 356 263 c 0
 295 263 218 223 218 157 c 0xf4
 218 114 257 85 318 85 c 0
EndSplineSet
Validated: 1
Layer: 2
SplineSet
609 490 m 0,0,1
 609 454 609 454 595.5 423.5 c 128,-1,2
 582 393 582 393 556 370 c 128,-1,3
 530 347 530 347 519 339 c 128,-1,4
 508 331 508 331 488 319 c 1,5,6
 556 269 556 269 556 199 c 0,7,8
 556 119 556 119 485 52 c 128,-1,9
 414 -15 414 -15 296 -15 c 0,10,11
 212 -15 212 -15 163 23.5 c 128,-1,12
 114 62 114 62 114 127 c 0,13,14
 114 246 114 246 248 319 c 1,15,16
 186 366 186 366 186 425 c 0,17,18
 186 504 186 504 260.5 571 c 128,-1,19
 335 638 335 638 436 638 c 0,20,21
 512 638 512 638 560.5 596 c 128,-1,22
 609 554 609 554 609 490 c 0,0,1
377 364 m 0,23,24
 429 364 429 364 467.5 393.5 c 128,-1,25
 506 423 506 423 506 468 c 0,26,27
 506 500 506 500 481 519 c 128,-1,28
 456 538 456 538 414 538 c 0,29,30
 360 538 360 538 323 507.5 c 128,-1,31
 286 477 286 477 286 434 c 0,32,33
 286 402 286 402 310.5 383 c 128,-1,34
 335 364 335 364 377 364 c 0,23,24
318 85 m 0,35,36
 373 85 373 85 414 114.5 c 128,-1,37
 455 144 455 144 455 187 c 0,38,39
 455 220 455 220 427.5 241.5 c 128,-1,40
 400 263 400 263 356 263 c 0,41,42
 306 263 306 263 262 233 c 128,-1,43
 218 203 218 203 218 157 c 0,44,45
 218 125 218 125 245 105 c 128,-1,46
 272 85 272 85 318 85 c 0,35,36
EndSplineSet
EndChar

StartChar: nine
Encoding: 57 57 37
Width: 600
Flags: W
HStem: -15 103<155.989 326.239> 229 100<324.627 433.82> 538 100<356.782 488.923>
VStem: 198 102<353.396 482.861> 516 109<395.834 507.476>
LayerCount: 3
Fore
SplineSet
116 40 m 0
 116 74 149 101 178 101 c 0
 191 101 219 88 236 88 c 0
 342 88 453 176 502 299 c 1
 443 248 401 229 351 229 c 0
 260 229 198 297 198 388 c 0
 198 536 313 638 451 638 c 0
 573 638 625 557 625 442 c 0
 625 193 420 -15 220 -15 c 0
 156 -15 116 6 116 40 c 0
516 414 m 1
 516 498 494 538 426 538 c 0
 360 538 300 488 300 409 c 0
 300 363 332 329 378 329 c 0
 421 329 479 365 516 414 c 1
EndSplineSet
Validated: 1
Layer: 2
SplineSet
116 40 m 128,-1,1
 116 65 116 65 135.5 83 c 128,-1,2
 155 101 155 101 178 101 c 0,3,4
 184 101 184 101 205.5 94.5 c 128,-1,5
 227 88 227 88 236 88 c 0,6,7
 316 88 316 88 390.5 147.5 c 128,-1,8
 465 207 465 207 502 299 c 1,9,10
 421 229 421 229 351 229 c 0,11,12
 283 229 283 229 240.5 274 c 128,-1,13
 198 319 198 319 198 388 c 0,14,15
 198 497 198 497 271.5 567.5 c 128,-1,16
 345 638 345 638 451 638 c 0,17,18
 539 638 539 638 582 585.5 c 128,-1,19
 625 533 625 533 625 442 c 0,20,21
 625 321 625 321 565.5 214.5 c 128,-1,22
 506 108 506 108 412.5 46.5 c 128,-1,23
 319 -15 319 -15 220 -15 c 0,24,25
 172 -15 172 -15 144 0 c 128,-1,0
 116 15 116 15 116 40 c 128,-1,1
516 414 m 1,26,27
 516 479 516 479 496 508.5 c 128,-1,28
 476 538 476 538 426 538 c 0,29,30
 374 538 374 538 337 502 c 128,-1,31
 300 466 300 466 300 409 c 0,32,33
 300 374 300 374 322 351.5 c 128,-1,34
 344 329 344 329 378 329 c 0,35,36
 410 329 410 329 449 353 c 128,-1,37
 488 377 488 377 516 414 c 1,26,27
EndSplineSet
EndChar

StartChar: colon
Encoding: 58 58 38
Width: 600
Flags: W
HStem: -15 132<262.964 360.359> 304 133<330.898 426.871>
VStem: 234 154<13.6636 88.1026> 302 154<333.21 408.103>
LayerCount: 3
Fore
SplineSet
388 65 m 0xe0
 388 27 353 -15 306 -15 c 2
 288 -15 l 2
 257 -15 234 8 234 37 c 0
 234 80 276 117 316 117 c 2
 334 117 l 2
 366 117 388 95 388 65 c 0xe0
456 385 m 0xd0
 456 347 421 304 374 304 c 2
 356 304 l 2
 325 304 302 327 302 356 c 0
 302 395 340 437 384 437 c 2
 402 437 l 2
 434 437 456 415 456 385 c 0xd0
EndSplineSet
Validated: 1
Layer: 2
SplineSet
388 65 m 0,0,1
 388 35 388 35 364 10 c 128,-1,2
 340 -15 340 -15 306 -15 c 2,3,-1
 288 -15 l 2,4,5
 265 -15 265 -15 249.5 0 c 128,-1,6
 234 15 234 15 234 37 c 0,7,8
 234 69 234 69 259.5 93 c 128,-1,9
 285 117 285 117 316 117 c 2,10,-1
 334 117 l 2,11,12
 358 117 358 117 373 102.5 c 128,-1,13
 388 88 388 88 388 65 c 0,0,1
456 385 m 0,14,15
 456 355 456 355 432 329.5 c 128,-1,16
 408 304 408 304 374 304 c 2,17,-1
 356 304 l 2,18,19
 333 304 333 304 317.5 319 c 128,-1,20
 302 334 302 334 302 356 c 0,21,22
 302 386 302 386 327 411.5 c 128,-1,23
 352 437 352 437 384 437 c 2,24,-1
 402 437 l 2,25,26
 426 437 426 437 441 422.5 c 128,-1,27
 456 408 456 408 456 385 c 0,14,15
EndSplineSet
EndChar

StartChar: semicolon
Encoding: 59 59 39
Width: 600
Flags: W
HStem: 304 133<307.851 402.995>
VStem: 278 154<332.125 407.601>
LayerCount: 3
Fore
SplineSet
247 134 m 1
 379 134 l 1
 182 -134 l 2
 170 -150 156 -158 144 -158 c 0
 129 -158 119 -148 119 -135 c 0
 119 -130 121 -122 126 -111 c 2
 247 134 l 1
278 355 m 0
 278 390 307 437 369 437 c 0
 409 437 432 417 432 385 c 0
 432 352 405 304 341 304 c 0
 302 304 278 324 278 355 c 0
EndSplineSet
Validated: 1
Layer: 2
SplineSet
247 134 m 1,0,-1
 379 134 l 1,1,-1
 182 -134 l 2,2,3
 164 -158 164 -158 144 -158 c 0,4,5
 133 -158 133 -158 126 -151.5 c 128,-1,6
 119 -145 119 -145 119 -135 c 0,7,8
 119 -126 119 -126 126 -111 c 2,9,-1
 247 134 l 1,0,-1
278 355 m 0,10,11
 278 385 278 385 302 411 c 128,-1,12
 326 437 326 437 369 437 c 0,13,14
 399 437 399 437 415.5 423 c 128,-1,15
 432 409 432 409 432 385 c 0,16,17
 432 356 432 356 408.5 330 c 128,-1,18
 385 304 385 304 341 304 c 0,19,20
 312 304 312 304 295 318 c 128,-1,21
 278 332 278 332 278 355 c 0,10,11
EndSplineSet
EndChar

StartChar: less
Encoding: 60 60 40
Width: 600
Flags: W
DStem2: 310 279 102 280 0.870055 -0.492955<0 287.207> 102 280 310 279 0.913176 0.407565<189.533 551.794>
LayerCount: 3
Fore
SplineSet
608 501 m 0
 621 501 641 490 641 460 c 0
 641 431 608 416 600 412 c 2
 310 279 l 1
 542 143 l 2
 559 133 566 124 566 110 c 0
 566 82 537 54 513 54 c 0
 505 54 495 57 485 63 c 2
 102 280 l 1
 577 492 l 2
 590 498 600 501 608 501 c 0
EndSplineSet
Validated: 1
Layer: 2
SplineSet
608 501 m 128,-1,1
 620 501 620 501 630.5 490.5 c 128,-1,2
 641 480 641 480 641 460 c 0,3,4
 641 432 641 432 600 412 c 2,5,-1
 310 279 l 1,6,-1
 542 143 l 2,7,8
 566 129 566 129 566 110 c 0,9,10
 566 89 566 89 548.5 71.5 c 128,-1,11
 531 54 531 54 513 54 c 0,12,13
 500 54 500 54 485 63 c 2,14,-1
 102 280 l 1,15,-1
 577 492 l 2,16,0
 596 501 596 501 608 501 c 128,-1,1
EndSplineSet
EndChar

StartChar: equal
Encoding: 61 61 41
Width: 600
Flags: W
HStem: 138 100<95.6317 584.657> 322 100<135.117 623.657>
LayerCount: 3
Fore
SplineSet
582 422 m 2
 630 422 638 407 638 382 c 0
 638 343 607 322 560 322 c 2
 176 322 l 2
 139 322 120 332 120 362 c 0
 120 399 150 422 198 422 c 2
 582 422 l 2
137 138 m 2
 118 138 81 138 81 178 c 0
 81 217 112 238 159 238 c 2
 543 238 l 2
 591 238 599 223 599 198 c 0
 599 159 568 138 521 138 c 2
 137 138 l 2
EndSplineSet
Validated: 1
Layer: 2
SplineSet
582 422 m 2,0,1
 616 422 616 422 627 412.5 c 128,-1,2
 638 403 638 403 638 382 c 0,3,4
 638 353 638 353 617 337.5 c 128,-1,5
 596 322 596 322 560 322 c 2,6,-1
 176 322 l 2,7,8
 120 322 120 322 120 362 c 0,9,10
 120 390 120 390 141 406 c 128,-1,11
 162 422 162 422 198 422 c 2,12,-1
 582 422 l 2,0,1
137 138 m 2,13,14
 81 138 81 138 81 178 c 0,15,16
 81 207 81 207 102 222.5 c 128,-1,17
 123 238 123 238 159 238 c 2,18,-1
 543 238 l 2,19,20
 577 238 577 238 588 228.5 c 128,-1,21
 599 219 599 219 599 198 c 0,22,23
 599 169 599 169 578 153.5 c 128,-1,24
 557 138 557 138 521 138 c 2,25,-1
 137 138 l 2,13,14
EndSplineSet
EndChar

StartChar: greater
Encoding: 62 62 42
Width: 600
Flags: W
DStem2: 616 274 176 412 0.870605 -0.491983<-469.548 -182.448> 407 275 141 62 0.913176 0.407565<-362.302 0>
LayerCount: 3
Fore
SplineSet
109 53 m 0
 89 53 76 73 76 92 c 0
 76 112 88 128 118 142 c 2
 407 275 l 1
 176 412 l 2
 159 421 151 431 151 444 c 0
 151 467 178 500 204 500 c 0
 212 500 223 497 232 491 c 2
 616 274 l 1
 141 62 l 2
 128 56 116 53 109 53 c 0
EndSplineSet
Validated: 1
Layer: 2
SplineSet
109 53 m 0,0,1
 95 53 95 53 85.5 65 c 128,-1,2
 76 77 76 77 76 92 c 0,3,4
 76 122 76 122 118 142 c 2,5,-1
 407 275 l 1,6,-1
 176 412 l 2,7,8
 151 425 151 425 151 444 c 0,9,10
 151 462 151 462 168 481 c 128,-1,11
 185 500 185 500 204 500 c 0,12,13
 218 500 218 500 232 491 c 2,14,-1
 616 274 l 1,15,-1
 141 62 l 2,16,17
 122 53 122 53 109 53 c 0,0,1
EndSplineSet
EndChar

StartChar: question
Encoding: 63 63 43
Width: 600
Flags: W
HStem: -15 132<265.246 362.359> 498 100<312.481 486.579>
VStem: 198 104<412 481.541> 236 154<13.6636 88.1026> 300 101<189.625 235.295> 507 102<378.681 476.204>
LayerCount: 3
Fore
SplineSet
238 394 m 0xe4
 219 394 198 407 198 431 c 0xe4
 198 438 199 447 202 460 c 2
 219 539 l 1
 324 585 371 598 435 598 c 0
 543 598 609 540 609 452 c 0
 609 317 496 266 401 228 c 1
 390 192 369 174 340 174 c 0
 318 174 300 189 300 211 c 0xcc
 300 218 301 227 304 240 c 2
 316 296 l 1
 463 348 507 376 507 431 c 0
 507 472 471 498 415 498 c 0
 377 498 341 490 305 474 c 1
 302 460 l 2
 293 420 275 394 238 394 c 0xe4
390 65 m 0xd4
 390 27 355 -15 308 -15 c 2
 291 -15 l 2
 259 -15 236 8 236 37 c 0
 236 83 281 117 319 117 c 2
 336 117 l 2
 368 117 390 95 390 65 c 0xd4
EndSplineSet
Validated: 1
Layer: 2
SplineSet
238 394 m 0,0,1
 222 394 222 394 210 404 c 128,-1,2
 198 414 198 414 198 431 c 0,3,4
 198 443 198 443 202 460 c 2,5,-1
 219 539 l 1,6,7
 298 574 298 574 342.5 586 c 128,-1,8
 387 598 387 598 435 598 c 0,9,10
 515 598 515 598 562 558 c 128,-1,11
 609 518 609 518 609 452 c 0,12,13
 609 404 609 404 591.5 366.5 c 128,-1,14
 574 329 574 329 539 302.5 c 128,-1,15
 504 276 504 276 475 261 c 128,-1,16
 446 246 446 246 401 228 c 1,17,18
 384 174 384 174 340 174 c 0,19,20
 323 174 323 174 311.5 184.5 c 128,-1,21
 300 195 300 195 300 211 c 0,22,23
 300 223 300 223 304 240 c 2,24,-1
 316 296 l 1,25,26
 428 336 428 336 467.5 363 c 128,-1,27
 507 390 507 390 507 431 c 0,28,29
 507 462 507 462 482 480 c 128,-1,30
 457 498 457 498 415 498 c 0,31,32
 359 498 359 498 305 474 c 1,33,-1
 302 460 l 2,34,35
 287 394 287 394 238 394 c 0,0,1
390 65 m 0,36,37
 390 35 390 35 366 10 c 128,-1,38
 342 -15 342 -15 308 -15 c 2,39,-1
 291 -15 l 2,40,41
 267 -15 267 -15 251.5 0 c 128,-1,42
 236 15 236 15 236 37 c 0,43,44
 236 70 236 70 262.5 93.5 c 128,-1,45
 289 117 289 117 319 117 c 2,46,-1
 336 117 l 2,47,48
 360 117 360 117 375 102.5 c 128,-1,49
 390 88 390 88 390 65 c 0,36,37
EndSplineSet
EndChar

StartChar: at
Encoding: 64 64 44
Width: 600
Flags: W
HStem: -152 78<226.557 382.091> 72 81<358.226 439.35> 316 81<403.656 474> 541 79<348.608 477.173>
VStem: 98 81<-22.843 204.523> 263 80<169.103 265.223> 501 81<397.883 517.291>
DStem2: 43.9577 -152 122.47 -152 0.207912 0.978148<253.222 617.98> 374.745 -152 453.233 -152 0.207912 0.978148<307.243 478.409 555.364 622.506>
LayerCount: 3
Fore
SplineSet
534 123 m 0
 534 103 523 72 469 72 c 2
 422 72 l 1
 423 75 l 1
 408 73 398 72 389 72 c 0
 315 72 263 126 263 195 c 0
 263 291 356 387 491 397 c 1
 498 429 l 2
 500 439 501 449 501 458 c 0
 501 508 469 541 417 541 c 0
 333 541 250 445 222 317 c 2
 189 161 l 2
 183 131 179 102 179 77 c 0
 179 8 201 -74 289 -74 c 0
 393 -74 400 -25 434 -25 c 0
 453 -25 466 -38 466 -57 c 0
 466 -114 357 -152 270 -152 c 0
 133 -152 98 -46 98 56 c 0
 98 88 102 121 109 154 c 2
 145 323 l 2
 181 495 303 620 433 620 c 0
 525 620 582 562 582 476 c 0
 582 461 581 445 577 429 c 2
 517 148 l 1
 529 143 534 135 534 123 c 0
474 316 m 1
 397 309 343 262 343 211 c 0
 343 177 372 153 414 153 c 0
 421 153 426 153 440 155 c 1
 474 316 l 1
EndSplineSet
Validated: 1
Layer: 2
SplineSet
534 123 m 0,0,1
 534 103 534 103 519.5 87.5 c 128,-1,2
 505 72 505 72 469 72 c 2,3,-1
 422 72 l 1,4,-1
 423 75 l 1,5,6
 400 72 400 72 389 72 c 0,7,8
 334 72 334 72 298.5 107.5 c 128,-1,9
 263 143 263 143 263 195 c 0,10,11
 263 269 263 269 328 329.5 c 128,-1,12
 393 390 393 390 491 397 c 1,13,-1
 498 429 l 2,14,15
 501 444 501 444 501 458 c 0,16,17
 501 496 501 496 478.5 518.5 c 128,-1,18
 456 541 456 541 417 541 c 0,19,20
 354 541 354 541 298.5 477 c 128,-1,21
 243 413 243 413 222 317 c 2,22,-1
 189 161 l 2,23,24
 179 111 179 111 179 77 c 0,25,26
 179 38 179 38 187.5 6.5 c 128,-1,27
 196 -25 196 -25 222 -49.5 c 128,-1,28
 248 -74 248 -74 289 -74 c 0,29,30
 324 -74 324 -74 350.5 -66.5 c 128,-1,31
 377 -59 377 -59 388 -49.5 c 128,-1,32
 399 -40 399 -40 411 -32.5 c 128,-1,33
 423 -25 423 -25 434 -25 c 0,34,35
 448 -25 448 -25 457 -34 c 128,-1,36
 466 -43 466 -43 466 -57 c 0,37,38
 466 -97 466 -97 403.5 -124.5 c 128,-1,39
 341 -152 341 -152 270 -152 c 0,40,41
 205 -152 205 -152 165 -120 c 128,-1,42
 125 -88 125 -88 111.5 -44.5 c 128,-1,43
 98 -1 98 -1 98 56 c 0,44,45
 98 102 98 102 109 154 c 2,46,-1
 145 323 l 2,47,48
 172 452 172 452 253.5 536 c 128,-1,49
 335 620 335 620 433 620 c 0,50,51
 501 620 501 620 541.5 580.5 c 128,-1,52
 582 541 582 541 582 476 c 0,53,54
 582 449 582 449 577 429 c 2,55,-1
 517 148 l 1,56,57
 534 141 534 141 534 123 c 0,0,1
474 316 m 1,58,59
 417 311 417 311 380 280.5 c 128,-1,60
 343 250 343 250 343 211 c 0,61,62
 343 185 343 185 363 169 c 128,-1,63
 383 153 383 153 414 153 c 0,64,65
 426 153 426 153 440 155 c 1,66,-1
 474 316 l 1,58,59
EndSplineSet
EndChar

StartChar: A
Encoding: 65 65 45
Width: 600
Flags: W
HStem: 0 100<2.70395 67 176 241.069 372.795 460 574 618.069> 158 100<273 430> 483 100<197.41 304>
DStem2: 67 100 176 100 0.526202 0.85036<57.356 125.62 242.754 450.398> 478 583 393 450 0.194944 -0.980814<113.878 309.407 411.388 470.224>
LayerCount: 3
Fore
SplineSet
633 63 m 0
 633 18 600 0 555 0 c 2
 416 0 l 2
 370 0 359 20 359 38 c 0
 359 82 391 100 437 100 c 2
 460 100 l 1
 450 158 l 1
 212 158 l 1
 176 100 l 1
 199 100 l 2
 236 100 256 88 256 63 c 0
 256 18 223 0 178 0 c 2
 45 0 l 2
 7 0 -12 12 -12 37 c 0
 -12 81 20 100 67 100 c 1
 304 483 l 1
 241 483 l 2
 204 483 183 494 183 520 c 0
 183 565 214 583 262 583 c 2
 478 583 l 1
 574 100 l 1
 612 100 633 89 633 63 c 0
430 258 m 1
 393 450 l 1
 273 258 l 1
 430 258 l 1
EndSplineSet
Validated: 1
Layer: 2
SplineSet
633 63 m 0,0,1
 633 0 633 0 555 0 c 2,2,-1
 416 0 l 2,3,4
 359 0 359 0 359 38 c 0,5,6
 359 100 359 100 437 100 c 2,7,-1
 460 100 l 1,8,-1
 450 158 l 1,9,-1
 212 158 l 1,10,-1
 176 100 l 1,11,-1
 199 100 l 2,12,13
 256 100 256 100 256 63 c 0,14,15
 256 0 256 0 178 0 c 2,16,-1
 45 0 l 2,17,18
 -12 0 -12 0 -12 37 c 0,19,20
 -12 100 -12 100 67 100 c 1,21,-1
 304 483 l 1,22,-1
 241 483 l 2,23,24
 183 483 183 483 183 520 c 0,25,26
 183 583 183 583 262 583 c 2,27,-1
 478 583 l 1,28,-1
 574 100 l 1,29,30
 633 100 633 100 633 63 c 0,0,1
430 258 m 1,31,-1
 393 450 l 1,32,-1
 273 258 l 1,33,-1
 430 258 l 1,31,-1
EndSplineSet
EndChar

StartChar: B
Encoding: 66 66 46
Width: 600
Flags: W
HStem: 0 100<35.8545 115 215 483.008> 242 100<267 473.579> 483 100<139.931 197 297 504.23>
VStem: 505 104<121.171 212.666> 518 102<381.346 468.188>
DStem2: 93.7443 0 193.744 0 0.207912 0.978148<123.025 268.16 370.548 493.913>
LayerCount: 3
Fore
SplineSet
125 520 m 0xf0
 125 564 158 583 203 583 c 2
 456 583 l 2
 556 583 620 528 620 450 c 0xe8
 620 380 588 344 530 305 c 1
 583 275 609 239 609 192 c 0
 609 73 497 0 374 0 c 2
 79 0 l 2
 33 0 22 20 22 38 c 0
 22 82 55 100 100 100 c 2
 115 100 l 1
 197 483 l 1
 182 483 l 2
 145 483 125 495 125 520 c 0xf0
267 342 m 1
 380 342 l 2
 453 342 518 374 518 431 c 0
 518 464 486 483 430 483 c 2
 297 483 l 1
 267 342 l 1
505 166 m 0xf0
 505 199 478 242 380 242 c 2
 245 242 l 1
 215 100 l 1
 390 100 l 2
 461 100 505 118 505 166 c 0xf0
EndSplineSet
Validated: 1
Layer: 2
SplineSet
125 520 m 0,0,1
 125 583 125 583 203 583 c 2,2,-1
 456 583 l 2,3,4
 530 583 530 583 575 546 c 128,-1,5
 620 509 620 509 620 450 c 0,6,7
 620 400 620 400 598.5 368.5 c 128,-1,8
 577 337 577 337 530 305 c 1,9,10
 609 260 609 260 609 192 c 0,11,12
 609 106 609 106 539.5 53 c 128,-1,13
 470 0 470 0 374 0 c 2,14,-1
 79 0 l 2,15,16
 22 0 22 0 22 38 c 0,17,18
 22 100 22 100 100 100 c 2,19,-1
 115 100 l 1,20,-1
 197 483 l 1,21,-1
 182 483 l 2,22,23
 125 483 125 483 125 520 c 0,0,1
267 342 m 1,24,-1
 380 342 l 2,25,26
 438 342 438 342 478 366 c 128,-1,27
 518 390 518 390 518 431 c 0,28,29
 518 483 518 483 430 483 c 2,30,-1
 297 483 l 1,31,-1
 267 342 l 1,24,-1
505 166 m 0,32,33
 505 196 505 196 476 219 c 128,-1,34
 447 242 447 242 380 242 c 2,35,-1
 245 242 l 1,36,-1
 215 100 l 1,37,-1
 390 100 l 2,38,39
 505 100 505 100 505 166 c 0,32,33
EndSplineSet
EndChar

StartChar: C
Encoding: 67 67 47
Width: 600
Flags: W
HStem: -14 100<246.131 457.369> 497 100<325.511 502.324> 563 20G<614.5 636.5>
VStem: 80 102<144.216 321.187>
DStem2: 30.0976 -14 129.673 -14 0.207912 0.978148<255.15 452.058>
LayerCount: 3
Fore
SplineSet
567 563 m 1xb0
 576 559 l 1
 593 577 606 583 623 583 c 0xb0
 650 583 662 569 662 543 c 0
 662 535 661 527 659 517 c 2
 641 433 l 2
 632 390 612 367 577 367 c 0
 543 367 539 385 539 420 c 0
 539 469 476 497 415 497 c 0
 313 497 222 420 200 315 c 2
 186 251 l 2
 183 238 182 226 182 214 c 0
 182 135 243 86 348 86 c 0
 456 86 487 126 508 143 c 0
 521 154 535 159 548 159 c 0
 572 159 588 141 588 119 c 0
 588 59 472 -14 324 -14 c 0
 175 -14 80 71 80 194 c 0
 80 212 82 230 86 249 c 2
 100 315 l 2
 134 475 278 597 432 597 c 0xd0
 484 597 518 589 567 563 c 1xb0
EndSplineSet
Validated: 1
Layer: 2
SplineSet
567 563 m 1,0,-1
 576 559 l 1,1,2
 599 583 599 583 623 583 c 0,3,4
 662 583 662 583 662 543 c 0,5,6
 662 532 662 532 659 517 c 2,7,-1
 641 433 l 2,8,9
 627 367 627 367 577 367 c 0,10,11
 553 367 553 367 546 379 c 128,-1,12
 539 391 539 391 539 420 c 0,13,14
 539 455 539 455 501.5 476 c 128,-1,15
 464 497 464 497 415 497 c 0,16,17
 338 497 338 497 277 445.5 c 128,-1,18
 216 394 216 394 200 315 c 2,19,-1
 186 251 l 2,20,21
 182 234 182 234 182 214 c 0,22,23
 182 154 182 154 226 120 c 128,-1,24
 270 86 270 86 348 86 c 0,25,26
 374 86 374 86 396.5 89.5 c 128,-1,27
 419 93 419 93 432.5 97 c 128,-1,28
 446 101 446 101 460.5 108.5 c 128,-1,29
 475 116 475 116 480.5 120 c 128,-1,30
 486 124 486 124 496.5 133 c 128,-1,31
 507 142 507 142 508 143 c 0,32,33
 527 159 527 159 548 159 c 0,34,35
 566 159 566 159 577 147.5 c 128,-1,36
 588 136 588 136 588 119 c 0,37,38
 588 71 588 71 509 28.5 c 128,-1,39
 430 -14 430 -14 324 -14 c 0,40,41
 213 -14 213 -14 146.5 43.5 c 128,-1,42
 80 101 80 101 80 194 c 0,43,44
 80 220 80 220 86 249 c 2,45,-1
 100 315 l 2,46,47
 125 435 125 435 220.5 516 c 128,-1,48
 316 597 316 597 432 597 c 0,49,50
 503 597 503 597 567 563 c 1,0,-1
EndSplineSet
EndChar

StartChar: D
Encoding: 68 68 48
Width: 600
Flags: W
HStem: 0 100<37.6677 95 195 402.337> 483 100<139.083 177 277 466.021>
VStem: 520 102<240.656 431.444>
DStem2: 73.7443 0 173.744 0 0.207912 0.978148<123.025 493.913> 449.523 0 550.16 0 0.207912 0.978148<172.591 355.339>
LayerCount: 3
Fore
SplineSet
22 38 m 0
 22 79 55 100 95 100 c 1
 177 483 l 1
 143 483 125 497 125 521 c 0
 125 565 157 583 204 583 c 2
 416 583 l 2
 541 583 622 495 622 371 c 0
 622 350 620 328 615 305 c 2
 605 258 l 2
 572 103 442 0 284 0 c 2
 80 0 l 2
 43 0 22 12 22 38 c 0
515 307 m 2
 518 319 520 334 520 349 c 0
 520 410 493 483 387 483 c 2
 277 483 l 1
 195 100 l 1
 306 100 l 2
 412 100 483 158 505 261 c 2
 515 307 l 2
EndSplineSet
Validated: 1
Layer: 2
SplineSet
22 38 m 0,0,1
 22 68 22 68 42.5 84 c 128,-1,2
 63 100 63 100 95 100 c 1,3,-1
 177 483 l 1,4,5
 125 483 125 483 125 521 c 0,6,7
 125 583 125 583 204 583 c 2,8,-1
 416 583 l 2,9,10
 509 583 509 583 565.5 524 c 128,-1,11
 622 465 622 465 622 371 c 0,12,13
 622 337 622 337 615 305 c 2,14,-1
 605 258 l 2,15,16
 580 142 580 142 491.5 71 c 128,-1,17
 403 0 403 0 284 0 c 2,18,-1
 80 0 l 2,19,20
 22 0 22 0 22 38 c 0,0,1
515 307 m 2,21,22
 520 327 520 327 520 349 c 0,23,24
 520 404 520 404 489.5 443.5 c 128,-1,25
 459 483 459 483 387 483 c 2,26,-1
 277 483 l 1,27,-1
 195 100 l 1,28,-1
 306 100 l 2,29,30
 385 100 385 100 436.5 142 c 128,-1,31
 488 184 488 184 505 261 c 2,32,-1
 515 307 l 2,21,22
EndSplineSet
EndChar

StartChar: E
Encoding: 69 69 49
Width: 600
Flags: W
HStem: 0 100<37 115 215 471> 243 99<267 331> 366 217<531.047 601.536> 483 100<139.343 197 297 531>
DStem2: 93.7443 0 193.744 0 0.207912 0.978148<123.025 269.346 370.548 493.913>
LayerCount: 3
Fore
SplineSet
352 342 m 1xd0
 362 387 379 416 416 416 c 0
 443 416 455 400 455 374 c 0
 455 366 454 358 452 349 c 2
 428 236 l 2
 419 193 399 170 365 170 c 0
 338 170 326 184 326 210 c 0
 326 219 329 233 331 243 c 1
 246 243 l 1
 215 100 l 1
 471 100 l 1
 482 152 l 2
 492 197 512 219 547 219 c 0
 574 219 586 205 586 179 c 0
 586 171 584 162 582 152 c 2
 550 0 l 1
 79 0 l 2
 43 0 22 12 22 38 c 0
 22 81 55 100 100 100 c 2
 115 100 l 1
 197 483 l 1
 182 483 l 2
 145 483 125 495 125 520 c 0
 125 565 156 583 203 583 c 2
 652 583 l 1xd0
 620 433 l 2
 611 389 591 366 556 366 c 0xe0
 529 366 517 380 517 406 c 0
 517 414 518 423 520 433 c 2
 531 483 l 1
 297 483 l 1
 267 342 l 1
 352 342 l 1xd0
EndSplineSet
Validated: 1
Layer: 2
SplineSet
352 342 m 1,0,1
 368 416 368 416 416 416 c 0,2,3
 455 416 455 416 455 374 c 0,4,5
 455 362 455 362 452 349 c 2,6,-1
 428 236 l 2,7,8
 414 170 414 170 365 170 c 0,9,10
 326 170 326 170 326 210 c 0,11,12
 326 218 326 218 331 243 c 1,13,-1
 246 243 l 1,14,-1
 215 100 l 1,15,-1
 471 100 l 1,16,-1
 482 152 l 2,17,18
 497 219 497 219 547 219 c 0,19,20
 586 219 586 219 586 179 c 0,21,22
 586 172 586 172 582 152 c 2,23,-1
 550 0 l 1,24,-1
 79 0 l 2,25,26
 22 0 22 0 22 38 c 0,27,28
 22 69 22 69 43.5 84.5 c 128,-1,29
 65 100 65 100 100 100 c 2,30,-1
 115 100 l 1,31,-1
 197 483 l 1,32,-1
 182 483 l 2,33,34
 125 483 125 483 125 520 c 0,35,36
 125 583 125 583 203 583 c 2,37,-1
 652 583 l 1,38,-1
 620 433 l 2,39,40
 606 366 606 366 556 366 c 0,41,42
 517 366 517 366 517 406 c 0,43,44
 517 418 517 418 520 433 c 2,45,-1
 531 483 l 1,46,-1
 297 483 l 1,47,-1
 267 342 l 1,48,-1
 352 342 l 1,0,1
EndSplineSet
EndChar

StartChar: F
Encoding: 70 70 50
Width: 600
Flags: W
HStem: 0 100<36.0992 115 215 356.845> 243 99<267 331> 366 217<553.482 623.536> 483 100<139.343 197 297 553>
DStem2: 93.7443 0 193.744 0 0.207912 0.978148<123.025 269.346 370.548 493.913>
LayerCount: 3
Fore
SplineSet
372 64 m 0xd0
 372 20 339 0 294 0 c 2
 79 0 l 2
 43 0 22 12 22 38 c 0
 22 82 55 100 100 100 c 2
 115 100 l 1
 197 483 l 1
 182 483 l 2
 145 483 125 495 125 520 c 0
 125 565 156 583 203 583 c 2
 674 583 l 1xd0
 642 432 l 2
 633 389 613 366 578 366 c 0xe0
 552 366 539 380 539 406 c 0
 539 414 540 422 542 432 c 2
 553 483 l 1
 297 483 l 1
 267 342 l 1
 352 342 l 1
 362 387 378 415 417 415 c 0
 443 415 455 402 455 376 c 0
 455 368 454 359 452 349 c 2
 428 236 l 2
 419 193 399 169 365 169 c 0
 338 169 326 183 326 209 c 0
 326 219 329 233 331 243 c 1
 246 243 l 1
 215 100 l 1
 315 100 l 2
 353 100 372 89 372 64 c 0xd0
EndSplineSet
Validated: 1
Layer: 2
SplineSet
372 64 m 0,0,1
 372 32 372 32 350.5 16 c 128,-1,2
 329 0 329 0 294 0 c 2,3,-1
 79 0 l 2,4,5
 22 0 22 0 22 38 c 0,6,7
 22 100 22 100 100 100 c 2,8,-1
 115 100 l 1,9,-1
 197 483 l 1,10,-1
 182 483 l 2,11,12
 125 483 125 483 125 520 c 0,13,14
 125 583 125 583 203 583 c 2,15,-1
 674 583 l 1,16,-1
 642 432 l 2,17,18
 628 366 628 366 578 366 c 0,19,20
 539 366 539 366 539 406 c 0,21,22
 539 417 539 417 542 432 c 2,23,-1
 553 483 l 1,24,-1
 297 483 l 1,25,-1
 267 342 l 1,26,-1
 352 342 l 1,27,28
 360 379 360 379 374.5 397 c 128,-1,29
 389 415 389 415 417 415 c 0,30,31
 455 415 455 415 455 376 c 0,32,33
 455 364 455 364 452 349 c 2,34,-1
 428 236 l 2,35,36
 414 169 414 169 365 169 c 0,37,38
 326 169 326 169 326 209 c 0,39,40
 326 218 326 218 331 243 c 1,41,-1
 246 243 l 1,42,-1
 215 100 l 1,43,-1
 315 100 l 2,44,45
 372 100 372 100 372 64 c 0,0,1
EndSplineSet
EndChar

StartChar: G
Encoding: 71 71 51
Width: 600
Flags: W
HStem: -14 100<235.413 463.913> 180 100<346.292 488> 497 100<324.891 521.742>
VStem: 78 103<134.538 316.993>
DStem2: 29.7353 -14 130.247 -14 0.207912 0.978148<245.375 453.247>
LayerCount: 3
Fore
SplineSet
545 432 m 0
 545 475 501 497 424 497 c 0
 276 497 214 383 200 317 c 2
 187 253 l 2
 183 235 181 219 181 204 c 0
 181 120 242 86 343 86 c 0
 391 86 432 94 474 111 c 1
 488 180 l 1
 388 180 l 2
 352 180 331 192 331 217 c 0
 331 261 365 280 410 280 c 2
 585 280 l 2
 623 280 642 269 642 243 c 0
 642 209 621 189 588 180 c 1
 560 48 l 1
 461 1 406 -14 328 -14 c 0
 174 -14 78 51 78 180 c 0
 78 200 80 222 85 246 c 2
 100 317 l 2
 126 441 248 597 444 597 c 0
 498 597 544 586 582 565 c 1
 599 589 611 597 630 597 c 0
 653 597 667 588 667 560 c 0
 667 552 665 543 663 531 c 2
 646 453 l 2
 637 409 617 387 582 387 c 0
 546 387 545 416 545 432 c 0
EndSplineSet
Validated: 1
Layer: 2
SplineSet
545 432 m 0,0,1
 545 497 545 497 424 497 c 0,2,3
 372 497 372 497 329.5 478.5 c 128,-1,4
 287 460 287 460 261.5 431 c 128,-1,5
 236 402 236 402 221 373.5 c 128,-1,6
 206 345 206 345 200 317 c 2,7,-1
 187 253 l 2,8,9
 181 226 181 226 181 204 c 0,10,11
 181 86 181 86 343 86 c 0,12,13
 412 86 412 86 474 111 c 1,14,-1
 488 180 l 1,15,-1
 388 180 l 2,16,17
 331 180 331 180 331 217 c 0,18,19
 331 249 331 249 352.5 264.5 c 128,-1,20
 374 280 374 280 410 280 c 2,21,-1
 585 280 l 2,22,23
 642 280 642 280 642 243 c 0,24,25
 642 195 642 195 588 180 c 1,26,-1
 560 48 l 1,27,28
 485 13 485 13 435.5 -0.5 c 128,-1,29
 386 -14 386 -14 328 -14 c 0,30,31
 210 -14 210 -14 144 35.5 c 128,-1,32
 78 85 78 85 78 180 c 0,33,34
 78 212 78 212 85 246 c 2,35,-1
 100 317 l 2,36,37
 110 365 110 365 137.5 413 c 128,-1,38
 165 461 165 461 207.5 503 c 128,-1,39
 250 545 250 545 312 571 c 128,-1,40
 374 597 374 597 444 597 c 0,41,42
 524 597 524 597 582 565 c 1,43,44
 605 597 605 597 630 597 c 0,45,46
 667 597 667 597 667 560 c 0,47,48
 667 555 667 555 663 531 c 2,49,-1
 646 453 l 2,50,51
 632 387 632 387 582 387 c 0,52,53
 545 387 545 387 545 432 c 0,0,1
EndSplineSet
EndChar

StartChar: H
Encoding: 72 72 52
Width: 600
Flags: W
HStem: 0 100<46.6369 116 216 273.069 351.637 430 530 577.845> 241 100<267 460> 483 100<168.882 198 298 376.363 454.637 512 612 659.953>
VStem: 155 236<498.125 567.546> 440 236<498.932 567.94>
DStem2: 94.7443 0 194.744 0 0.207912 0.978148<123.025 267.181 369.362 493.913> 408.744 0 508.744 0 0.207912 0.978148<123.025 246.39 348.571 493.913>
LayerCount: 3
Fore
SplineSet
337 37 m 0
 337 81 369 100 415 100 c 2
 430 100 l 1
 460 241 l 1
 246 241 l 1
 216 100 l 1
 231 100 l 2
 268 100 288 88 288 63 c 0
 288 18 255 0 210 0 c 2
 89 0 l 2
 52 0 32 12 32 37 c 0
 32 82 64 100 110 100 c 2
 116 100 l 1
 198 483 l 1
 170 486 155 499 155 521 c 0
 155 565 188 583 233 583 c 2
 334 583 l 2
 372 583 391 572 391 547 c 0
 391 502 359 483 313 483 c 2
 298 483 l 1
 267 341 l 1
 481 341 l 1
 512 483 l 1
 497 483 l 2
 460 483 440 495 440 520 c 0
 440 565 472 583 518 583 c 2
 619 583 l 2
 657 583 676 572 676 547 c 0
 676 509 649 486 612 483 c 1
 530 100 l 1
 536 100 l 2
 574 100 593 89 593 64 c 0
 593 19 560 0 515 0 c 2
 394 0 l 2
 357 0 337 12 337 37 c 0
EndSplineSet
Validated: 1
Layer: 2
SplineSet
337 37 m 0,0,1
 337 100 337 100 415 100 c 2,2,-1
 430 100 l 1,3,-1
 460 241 l 1,4,-1
 246 241 l 1,5,-1
 216 100 l 1,6,-1
 231 100 l 2,7,8
 288 100 288 100 288 63 c 0,9,10
 288 0 288 0 210 0 c 2,11,-1
 89 0 l 2,12,13
 32 0 32 0 32 37 c 0,14,15
 32 100 32 100 110 100 c 2,16,-1
 116 100 l 1,17,-1
 198 483 l 1,18,19
 155 488 155 488 155 521 c 0,20,21
 155 583 155 583 233 583 c 2,22,-1
 334 583 l 2,23,24
 391 583 391 583 391 547 c 0,25,26
 391 483 391 483 313 483 c 2,27,-1
 298 483 l 1,28,-1
 267 341 l 1,29,-1
 481 341 l 1,30,-1
 512 483 l 1,31,-1
 497 483 l 2,32,33
 440 483 440 483 440 520 c 0,34,35
 440 583 440 583 518 583 c 2,36,-1
 619 583 l 2,37,38
 676 583 676 583 676 547 c 0,39,40
 676 519 676 519 658.5 502 c 128,-1,41
 641 485 641 485 612 483 c 1,42,-1
 530 100 l 1,43,-1
 536 100 l 2,44,45
 593 100 593 100 593 64 c 0,46,47
 593 0 593 0 515 0 c 2,48,-1
 394 0 l 2,49,50
 337 0 337 0 337 37 c 0,0,1
EndSplineSet
EndChar

StartChar: I
Encoding: 73 73 53
Width: 600
Flags: W
HStem: 0 100<107.733 271 371 513.25> 483 100<209.637 353 453 615.126>
DStem2: 249.744 0 349.744 0 0.207912 0.978148<123.025 493.913>
LayerCount: 3
Fore
SplineSet
575 583 m 2
 615 583 632 575 632 545 c 0
 632 521 616 483 554 483 c 2
 453 483 l 1
 371 100 l 1
 472 100 l 2
 512 100 529 90 529 60 c 0
 529 36 513 0 451 0 c 2
 149 0 l 2
 124 0 93 3 93 40 c 0
 93 78 122 100 170 100 c 2
 271 100 l 1
 353 483 l 1
 252 483 l 2
 212 483 195 492 195 524 c 0
 195 562 227 583 273 583 c 2
 575 583 l 2
EndSplineSet
Validated: 1
Layer: 2
SplineSet
575 583 m 2,0,1
 606 583 606 583 619 575 c 128,-1,2
 632 567 632 567 632 545 c 0,3,4
 632 522 632 522 614 502.5 c 128,-1,5
 596 483 596 483 554 483 c 2,6,-1
 453 483 l 1,7,-1
 371 100 l 1,8,-1
 472 100 l 2,9,10
 503 100 503 100 516 91 c 128,-1,11
 529 82 529 82 529 60 c 0,12,13
 529 37 529 37 511 18.5 c 128,-1,14
 493 0 493 0 451 0 c 2,15,-1
 149 0 l 2,16,17
 93 0 93 0 93 40 c 0,18,19
 93 68 93 68 113.5 84 c 128,-1,20
 134 100 134 100 170 100 c 2,21,-1
 271 100 l 1,22,-1
 353 483 l 1,23,-1
 252 483 l 2,24,25
 221 483 221 483 208 492 c 128,-1,26
 195 501 195 501 195 524 c 0,27,28
 195 552 195 552 216.5 567.5 c 128,-1,29
 238 583 238 583 273 583 c 2,30,-1
 575 583 l 2,0,1
EndSplineSet
EndChar

StartChar: J
Encoding: 74 74 54
Width: 600
Flags: W
HStem: -14 100<198.755 371.819> 483 100<331.343 493 593 713.363>
DStem2: 386.938 -14 487.276 -14 0.207912 0.978148<138.902 508.191>
LayerCount: 3
Fore
SplineSet
728 547 m 0
 728 502 696 483 650 483 c 2
 593 483 l 1
 530 187 l 2
 504 66 387 -14 266 -14 c 0
 209 -14 146 6 65 51 c 1
 99 213 l 2
 108 257 129 280 164 280 c 0
 191 280 203 266 203 240 c 0
 203 232 201 223 199 213 c 2
 179 117 l 1
 223 95 255 86 289 86 c 0
 359 86 415 120 432 198 c 2
 493 483 l 1
 374 483 l 2
 337 483 317 495 317 520 c 0
 317 565 348 583 395 583 c 2
 671 583 l 2
 709 583 728 572 728 547 c 0
EndSplineSet
Validated: 1
Layer: 2
SplineSet
728 547 m 0,0,1
 728 483 728 483 650 483 c 2,2,-1
 593 483 l 1,3,-1
 530 187 l 2,4,5
 511 98 511 98 435 42 c 128,-1,6
 359 -14 359 -14 266 -14 c 0,7,8
 182 -14 182 -14 65 51 c 1,9,-1
 99 213 l 2,10,11
 113 280 113 280 164 280 c 0,12,13
 203 280 203 280 203 240 c 0,14,15
 203 233 203 233 199 213 c 2,16,-1
 179 117 l 1,17,18
 241 86 241 86 289 86 c 0,19,20
 344 86 344 86 382 114 c 128,-1,21
 420 142 420 142 432 198 c 2,22,-1
 493 483 l 1,23,-1
 374 483 l 2,24,25
 317 483 317 483 317 520 c 0,26,27
 317 583 317 583 395 583 c 2,28,-1
 671 583 l 2,29,30
 728 583 728 583 728 547 c 0,0,1
EndSplineSet
EndChar

StartChar: K
Encoding: 75 75 55
Width: 600
Flags: W
HStem: 0 100<35.8545 115 215 292.069 520.62 599.069> 483 100<139.343 197 297 395.363 614 673.183>
VStem: 426 188<15.9771 92.5543> 453 235<498.143 567.193>
DStem2: 93.7443 0 193.744 0 0.207912 0.978148<123.025 233.447 362.307 493.913> 265 334 405 330 0.807155 0.590339<0 1.61599 110.64 260.632>
LayerCount: 3
Fore
SplineSet
307 63 m 0xe0
 307 19 274 0 229 0 c 2
 79 0 l 2
 33 0 22 20 22 38 c 0
 22 82 55 100 100 100 c 2
 115 100 l 1
 197 483 l 1
 182 483 l 2
 145 483 125 495 125 520 c 0
 125 565 156 583 203 583 c 2
 353 583 l 2
 391 583 410 572 410 547 c 0
 410 502 378 483 332 483 c 2
 297 483 l 1
 265 334 l 1
 476 487 l 1
 461 493 453 504 453 519 c 0
 453 565 489 583 531 583 c 2
 631 583 l 2
 669 583 688 572 688 547 c 0xd0
 688 504 658 483 614 483 c 1
 405 330 l 1
 459 298 503 215 525 100 c 1
 557 100 l 2
 594 100 614 88 614 63 c 0
 614 19 581 0 536 0 c 2
 426 0 l 1
 409 143 366 240 309 259 c 1
 238 208 l 1
 215 100 l 1
 250 100 l 2
 287 100 307 88 307 63 c 0xe0
EndSplineSet
Validated: 1
Layer: 2
SplineSet
307 63 m 0,0,1
 307 0 307 0 229 0 c 2,2,-1
 79 0 l 2,3,4
 22 0 22 0 22 38 c 0,5,6
 22 100 22 100 100 100 c 2,7,-1
 115 100 l 1,8,-1
 197 483 l 1,9,-1
 182 483 l 2,10,11
 125 483 125 483 125 520 c 0,12,13
 125 583 125 583 203 583 c 2,14,-1
 353 583 l 2,15,16
 410 583 410 583 410 547 c 0,17,18
 410 483 410 483 332 483 c 2,19,-1
 297 483 l 1,20,-1
 265 334 l 1,21,-1
 476 487 l 1,22,23
 453 496 453 496 453 519 c 0,24,25
 453 552 453 552 475 567.5 c 128,-1,26
 497 583 497 583 531 583 c 2,27,-1
 631 583 l 2,28,29
 688 583 688 583 688 547 c 0,30,31
 688 516 688 516 668 499.5 c 128,-1,32
 648 483 648 483 614 483 c 1,33,-1
 405 330 l 1,34,35
 446 306 446 306 477.5 246 c 128,-1,36
 509 186 509 186 525 100 c 1,37,-1
 557 100 l 2,38,39
 614 100 614 100 614 63 c 0,40,41
 614 0 614 0 536 0 c 2,42,-1
 426 0 l 1,43,44
 413 108 413 108 382.5 176.5 c 128,-1,45
 352 245 352 245 309 259 c 1,46,-1
 238 208 l 1,47,-1
 215 100 l 1,48,-1
 250 100 l 2,49,50
 307 100 307 100 307 63 c 0,0,1
EndSplineSet
EndChar

StartChar: L
Encoding: 76 76 56
Width: 600
Flags: W
HStem: 0 100<55.7947 177 277 492> 483 100<159.343 259 359 479.363>
DStem2: 155.744 0 255.744 0 0.207912 0.978148<123.025 493.913> 470.744 0 571.189 0 0.207912 0.978148<102.234 243.839>
LayerCount: 3
Fore
SplineSet
494 546 m 0
 494 501 462 483 416 483 c 2
 359 483 l 1
 277 100 l 1
 492 100 l 1
 512 192 l 2
 521 236 541 259 576 259 c 0
 603 259 615 245 615 219 c 0
 615 211 614 202 612 192 c 2
 571 0 l 1
 99 0 l 2
 53 0 42 20 42 38 c 0
 42 82 74 100 120 100 c 2
 177 100 l 1
 259 483 l 1
 202 483 l 2
 165 483 145 495 145 520 c 0
 145 565 176 583 223 583 c 2
 437 583 l 2
 474 583 494 571 494 546 c 0
EndSplineSet
Validated: 1
Layer: 2
SplineSet
494 546 m 0,0,1
 494 483 494 483 416 483 c 2,2,-1
 359 483 l 1,3,-1
 277 100 l 1,4,-1
 492 100 l 1,5,-1
 512 192 l 2,6,7
 526 259 526 259 576 259 c 0,8,9
 615 259 615 259 615 219 c 0,10,11
 615 207 615 207 612 192 c 2,12,-1
 571 0 l 1,13,-1
 99 0 l 2,14,15
 42 0 42 0 42 38 c 0,16,17
 42 100 42 100 120 100 c 2,18,-1
 177 100 l 1,19,-1
 259 483 l 1,20,-1
 202 483 l 2,21,22
 145 483 145 483 145 520 c 0,23,24
 145 583 145 583 223 583 c 2,25,-1
 437 583 l 2,26,27
 494 583 494 583 494 546 c 0,0,1
EndSplineSet
EndChar

StartChar: M
Encoding: 77 77 57
Width: 600
Flags: W
HStem: 0 100<5.125 63 163 239.845 383.795 483 583 620.06> 483 100<117.743 145 665 712.953>
DStem2: 41.7443 0 141.744 0 0.207912 0.978148<123.025 418.6> 364 286 380 138 0.5547 0.83205<0 186.102> 461.744 0 561.744 0 0.207912 0.978148<123.025 397.809>
LayerCount: 3
Fore
SplineSet
635 62 m 0
 635 19 602 0 557 0 c 2
 427 0 l 2
 381 0 370 20 370 38 c 0
 370 82 402 100 448 100 c 2
 483 100 l 1
 545 389 l 1
 380 138 l 1
 289 138 l 1
 225 389 l 1
 163 100 l 1
 198 100 l 2
 236 100 255 89 255 64 c 0
 255 20 222 0 177 0 c 2
 48 0 l 2
 11 0 -10 11 -10 37 c 0
 -10 78 21 100 63 100 c 1
 145 483 l 1
 117 486 102 499 102 521 c 0
 102 561 135 583 176 583 c 2
 289 583 l 1
 364 286 l 1
 562 583 l 1
 672 583 l 2
 710 583 729 572 729 547 c 0
 729 509 702 486 665 483 c 1
 583 100 l 1
 617 100 635 86 635 62 c 0
EndSplineSet
Validated: 1
Layer: 2
SplineSet
635 62 m 0,0,1
 635 31 635 31 613.5 15.5 c 128,-1,2
 592 0 592 0 557 0 c 2,3,-1
 427 0 l 2,4,5
 370 0 370 0 370 38 c 0,6,7
 370 100 370 100 448 100 c 2,8,-1
 483 100 l 1,9,-1
 545 389 l 1,10,-1
 380 138 l 1,11,-1
 289 138 l 1,12,-1
 225 389 l 1,13,-1
 163 100 l 1,14,-1
 198 100 l 2,15,16
 255 100 255 100 255 64 c 0,17,18
 255 32 255 32 233.5 16 c 128,-1,19
 212 0 212 0 177 0 c 2,20,-1
 48 0 l 2,21,22
 -10 0 -10 0 -10 37 c 0,23,24
 -10 67 -10 67 10 83.5 c 128,-1,25
 30 100 30 100 63 100 c 1,26,-1
 145 483 l 1,27,28
 102 488 102 488 102 521 c 0,29,30
 102 550 102 550 123 566.5 c 128,-1,31
 144 583 144 583 176 583 c 2,32,-1
 289 583 l 1,33,-1
 364 286 l 1,34,-1
 562 583 l 1,35,-1
 672 583 l 2,36,37
 729 583 729 583 729 547 c 0,38,39
 729 519 729 519 711.5 502 c 128,-1,40
 694 485 694 485 665 483 c 1,41,-1
 583 100 l 1,42,43
 635 100 635 100 635 62 c 0,0,1
EndSplineSet
EndChar

StartChar: N
Encoding: 78 78 58
Width: 600
Flags: W
HStem: 0 100<36.125 94 194 270.845> 483 100<118.343 176 456.343 534 634 692.258>
DStem2: 72.7443 0 172.744 0 0.207912 0.978148<123.025 423.699> 297 583 257 394 0.405923 -0.913907<156.492 429.288> 431.402 0 531 0 0.207912 0.978148<195.267 493.777>
LayerCount: 3
Fore
SplineSet
707 546 m 0
 707 505 677 483 634 483 c 1
 531 0 l 1
 432 0 l 1
 257 394 l 1
 194 100 l 1
 229 100 l 2
 267 100 286 89 286 64 c 0
 286 20 253 0 208 0 c 2
 79 0 l 2
 42 0 21 11 21 37 c 0
 21 78 52 100 94 100 c 1
 176 483 l 1
 161 483 l 2
 124 483 104 495 104 520 c 0
 104 565 135 583 182 583 c 2
 297 583 l 1
 472 191 l 1
 534 483 l 1
 499 483 l 2
 462 483 442 495 442 520 c 0
 442 565 473 583 520 583 c 2
 650 583 l 2
 687 583 707 571 707 546 c 0
EndSplineSet
Validated: 1
Layer: 2
SplineSet
707 546 m 0,0,1
 707 516 707 516 687 499.5 c 128,-1,2
 667 483 667 483 634 483 c 1,3,-1
 531 0 l 1,4,-1
 432 0 l 1,5,-1
 257 394 l 1,6,-1
 194 100 l 1,7,-1
 229 100 l 2,8,9
 286 100 286 100 286 64 c 0,10,11
 286 32 286 32 264.5 16 c 128,-1,12
 243 0 243 0 208 0 c 2,13,-1
 79 0 l 2,14,15
 21 0 21 0 21 37 c 0,16,17
 21 67 21 67 41 83.5 c 128,-1,18
 61 100 61 100 94 100 c 1,19,-1
 176 483 l 1,20,-1
 161 483 l 2,21,22
 104 483 104 483 104 520 c 0,23,24
 104 583 104 583 182 583 c 2,25,-1
 297 583 l 1,26,-1
 472 191 l 1,27,-1
 534 483 l 1,28,-1
 499 483 l 2,29,30
 442 483 442 483 442 520 c 0,31,32
 442 583 442 583 520 583 c 2,33,-1
 650 583 l 2,34,35
 707 583 707 583 707 546 c 0,0,1
EndSplineSet
EndChar

StartChar: O
Encoding: 79 79 59
Width: 600
Flags: W
HStem: -14 100<244.642 400.049> 497 100<326.193 481.42>
VStem: 75 103<156.686 338.017> 546 103<244.12 427.311>
LayerCount: 3
Fore
SplineSet
75 222 m 0
 75 415 249 597 427 597 c 0
 546 597 649 508 649 366 c 0
 649 157 466 -14 297 -14 c 0
 165 -14 75 87 75 222 c 0
318 86 m 0
 428 86 546 206 546 340 c 0
 546 430 490 497 406 497 c 0
 296 497 178 376 178 244 c 0
 178 154 234 86 318 86 c 0
EndSplineSet
Validated: 1
Layer: 2
SplineSet
75 222 m 0,0,1
 75 366 75 366 184 481.5 c 128,-1,2
 293 597 293 597 427 597 c 0,3,4
 519 597 519 597 584 533 c 128,-1,5
 649 469 649 469 649 366 c 0,6,7
 649 214 649 214 538.5 100 c 128,-1,8
 428 -14 428 -14 297 -14 c 0,9,10
 199 -14 199 -14 137 53 c 128,-1,11
 75 120 75 120 75 222 c 0,0,1
318 86 m 0,12,13
 402 86 402 86 474 163.5 c 128,-1,14
 546 241 546 241 546 340 c 0,15,16
 546 408 546 408 507 452.5 c 128,-1,17
 468 497 468 497 406 497 c 0,18,19
 322 497 322 497 250 419 c 128,-1,20
 178 341 178 341 178 244 c 0,21,22
 178 176 178 176 217 131 c 128,-1,23
 256 86 256 86 318 86 c 0,12,13
EndSplineSet
EndChar

StartChar: P
Encoding: 80 80 60
Width: 600
Flags: W
HStem: 0 100<35.8545 115 215 356.069> 200 100<258 457.537> 483 100<139.637 197 297 484.918>
VStem: 508 109<347.675 461.88>
DStem2: 93.7443 0 193.744 0 0.207912 0.978148<123.025 225.414 327.595 493.913>
LayerCount: 3
Fore
SplineSet
371 63 m 0
 371 19 338 0 293 0 c 2
 79 0 l 2
 33 0 22 20 22 38 c 0
 22 82 55 100 100 100 c 2
 115 100 l 1
 197 483 l 1
 182 483 l 2
 145 483 125 495 125 520 c 0
 125 564 157 583 203 583 c 2
 436 583 l 2
 547 583 617 523 617 434 c 0
 617 277 479 200 335 200 c 2
 237 200 l 1
 215 100 l 1
 314 100 l 2
 351 100 371 88 371 63 c 0
297 483 m 1
 258 300 l 1
 376 300 l 2
 449 300 508 340 508 412 c 0
 508 456 475 483 415 483 c 2
 297 483 l 1
EndSplineSet
Validated: 1
Layer: 2
SplineSet
371 63 m 0,0,1
 371 0 371 0 293 0 c 2,2,-1
 79 0 l 2,3,4
 22 0 22 0 22 38 c 0,5,6
 22 100 22 100 100 100 c 2,7,-1
 115 100 l 1,8,-1
 197 483 l 1,9,-1
 182 483 l 2,10,11
 125 483 125 483 125 520 c 0,12,13
 125 583 125 583 203 583 c 2,14,-1
 436 583 l 2,15,16
 519 583 519 583 568 542 c 128,-1,17
 617 501 617 501 617 434 c 0,18,19
 617 323 617 323 534.5 261.5 c 128,-1,20
 452 200 452 200 335 200 c 2,21,-1
 237 200 l 1,22,-1
 215 100 l 1,23,-1
 314 100 l 2,24,25
 371 100 371 100 371 63 c 0,0,1
297 483 m 1,26,-1
 258 300 l 1,27,-1
 376 300 l 2,28,29
 433 300 433 300 470.5 330 c 128,-1,30
 508 360 508 360 508 412 c 0,31,32
 508 445 508 445 484 464 c 128,-1,33
 460 483 460 483 415 483 c 2,34,-1
 297 483 l 1,26,-1
EndSplineSet
EndChar

StartChar: Q
Encoding: 81 81 61
Width: 600
Flags: W
HStem: -145 100<335.835 490.361> -117 92<262.904 373.109> -7 92<267.144 400.445> 497 100<323.51 479.358>
VStem: 73 105<155.996 335.269> 546 103<243.416 426.359>
LayerCount: 3
Fore
SplineSet
565 -52 m 0xbc
 565 -110 455 -145 413 -145 c 0xbc
 358 -145 351 -117 294 -117 c 0
 249 -117 147 -143 135 -143 c 0
 113 -143 96 -125 96 -102 c 0
 96 -78 105 -70 126 -53 c 2
 200 7 l 1
 120 59 73 113 73 209 c 0
 73 425 253 597 427 597 c 0
 559 597 649 495 649 361 c 0
 649 166 482 -7 288 -7 c 0
 286 -7 278 -7 270 -6 c 1
 261 -30 l 1
 286 -26 298 -25 313 -25 c 0x7c
 371 -25 401 -45 433 -45 c 0
 472 -45 493 -13 523 -13 c 0
 548 -13 565 -29 565 -52 c 0xbc
406 497 m 0
 299 497 178 384 178 243 c 0
 178 153 234 85 318 85 c 0
 426 85 546 200 546 339 c 0
 546 430 490 497 406 497 c 0
EndSplineSet
Validated: 1
Layer: 2
SplineSet
565 -52 m 0,0,1
 565 -91 565 -91 509.5 -118 c 128,-1,2
 454 -145 454 -145 413 -145 c 0,3,4
 386 -145 386 -145 354.5 -131 c 128,-1,5
 323 -117 323 -117 294 -117 c 0,6,7
 267 -117 267 -117 202 -130 c 128,-1,8
 137 -143 137 -143 135 -143 c 0,9,10
 119 -143 119 -143 107.5 -131 c 128,-1,11
 96 -119 96 -119 96 -102 c 128,-1,12
 96 -85 96 -85 102 -76 c 128,-1,13
 108 -67 108 -67 126 -53 c 2,14,-1
 200 7 l 1,15,16
 135 49 135 49 104 95 c 128,-1,17
 73 141 73 141 73 209 c 0,18,19
 73 288 73 288 104 360.5 c 128,-1,20
 135 433 135 433 184.5 484.5 c 128,-1,21
 234 536 234 536 298 566.5 c 128,-1,22
 362 597 362 597 427 597 c 0,23,24
 525 597 525 597 587 530 c 128,-1,25
 649 463 649 463 649 361 c 0,26,27
 649 214 649 214 541 103.5 c 128,-1,28
 433 -7 433 -7 288 -7 c 0,29,30
 278 -7 278 -7 270 -6 c 1,31,-1
 261 -30 l 1,32,33
 292 -25 292 -25 313 -25 c 0,34,35
 345 -25 345 -25 382.5 -35 c 128,-1,36
 420 -45 420 -45 433 -45 c 0,37,38
 454 -45 454 -45 481.5 -29 c 128,-1,39
 509 -13 509 -13 523 -13 c 0,40,41
 542 -13 542 -13 553.5 -24 c 128,-1,42
 565 -35 565 -35 565 -52 c 0,0,1
406 497 m 0,43,44
 322 497 322 497 250 421 c 128,-1,45
 178 345 178 345 178 243 c 0,46,47
 178 175 178 175 217 130 c 128,-1,48
 256 85 256 85 318 85 c 0,49,50
 402 85 402 85 474 161.5 c 128,-1,51
 546 238 546 238 546 339 c 0,52,53
 546 408 546 408 507 452.5 c 128,-1,54
 468 497 468 497 406 497 c 0,43,44
EndSplineSet
EndChar

StartChar: R
Encoding: 82 82 62
Width: 600
Flags: W
HStem: 0 100<35.8545 115 215 291.845 551.833 615.459> 222 100<262 363.892> 483 100<139.343 197 297 481.26>
VStem: 504 108<369.626 461.261>
DStem2: 93.7443 0 193.744 0 0.207912 0.978148<123.025 247.765 349.946 493.913>
LayerCount: 3
Fore
SplineSet
307 64 m 0
 307 20 274 0 229 0 c 2
 79 0 l 2
 33 0 22 20 22 38 c 0
 22 82 55 100 100 100 c 2
 115 100 l 1
 197 483 l 1
 182 483 l 2
 145 483 125 495 125 520 c 0
 125 565 156 583 203 583 c 2
 426 583 l 2
 541 583 612 526 612 441 c 0
 612 350 558 298 468 254 c 1
 506 213 533 167 561 100 c 1
 574 100 l 2
 611 100 631 90 631 64 c 0
 631 20 598 0 553 0 c 2
 474 0 l 1
 445 97 376 207 337 222 c 1
 241 222 l 1
 215 100 l 1
 250 100 l 2
 288 100 307 89 307 64 c 0
262 322 m 1
 338 322 l 2
 423 322 504 358 504 420 c 0
 504 457 467 483 409 483 c 2
 297 483 l 1
 262 322 l 1
EndSplineSet
Validated: 1
Layer: 2
SplineSet
307 64 m 0,0,1
 307 32 307 32 285.5 16 c 128,-1,2
 264 0 264 0 229 0 c 2,3,-1
 79 0 l 2,4,5
 22 0 22 0 22 38 c 0,6,7
 22 100 22 100 100 100 c 2,8,-1
 115 100 l 1,9,-1
 197 483 l 1,10,-1
 182 483 l 2,11,12
 125 483 125 483 125 520 c 0,13,14
 125 583 125 583 203 583 c 2,15,-1
 426 583 l 2,16,17
 512 583 512 583 562 544 c 128,-1,18
 612 505 612 505 612 441 c 0,19,20
 612 376 612 376 576 332.5 c 128,-1,21
 540 289 540 289 468 254 c 1,22,23
 520 198 520 198 561 100 c 1,24,-1
 574 100 l 2,25,26
 631 100 631 100 631 64 c 0,27,28
 631 32 631 32 609.5 16 c 128,-1,29
 588 0 588 0 553 0 c 2,30,-1
 474 0 l 1,31,32
 452 72 452 72 409 141.5 c 128,-1,33
 366 211 366 211 337 222 c 1,34,-1
 241 222 l 1,35,-1
 215 100 l 1,36,-1
 250 100 l 2,37,38
 307 100 307 100 307 64 c 0,0,1
262 322 m 1,39,-1
 338 322 l 2,40,41
 405 322 405 322 454.5 348.5 c 128,-1,42
 504 375 504 375 504 420 c 0,43,44
 504 448 504 448 478 465.5 c 128,-1,45
 452 483 452 483 409 483 c 2,46,-1
 297 483 l 1,47,-1
 262 322 l 1,39,-1
EndSplineSet
EndChar

StartChar: S
Encoding: 83 83 63
Width: 600
Flags: W
HStem: -14 100<228.205 416.743> 1 21G<99.5 121> 497 100<321.368 483.54>
VStem: 167 107<371.453 455.777> 470 106<128.897 208.705>
LayerCount: 3
Fore
SplineSet
405 497 m 0xb8
 339 497 274 463 274 408 c 0
 274 362 336 351 384 342 c 0
 479 324 576 303 576 197 c 0
 576 69 451 -14 306 -14 c 0xb8
 252 -14 201 -1 158 25 c 1
 137 5 129 1 113 1 c 0x78
 86 1 73 13 73 40 c 0
 73 48 74 57 76 67 c 2
 90 133 l 2
 99 176 119 199 154 199 c 0
 181 199 195 187 195 151 c 0
 195 115 254 86 320 86 c 0
 396 86 470 120 470 174 c 0
 470 219 408 229 342 242 c 0
 252 260 167 288 167 381 c 0
 167 512 292 597 426 597 c 0
 477 597 519 586 549 564 c 1
 564 589 575 597 595 597 c 0
 622 597 633 585 633 560 c 0
 633 552 632 542 630 531 c 2
 611 443 l 2
 602 399 582 376 548 376 c 0
 518 376 509 393 509 429 c 0
 509 470 467 497 405 497 c 0xb8
EndSplineSet
Validated: 1
Layer: 2
SplineSet
405 497 m 0,0,1
 353 497 353 497 313.5 472.5 c 128,-1,2
 274 448 274 448 274 408 c 0,3,4
 274 392 274 392 283 380 c 128,-1,5
 292 368 292 368 312 360.5 c 128,-1,6
 332 353 332 353 345 350 c 128,-1,7
 358 347 358 347 384 342 c 0,8,9
 420 335 420 335 441.5 330 c 128,-1,10
 463 325 463 325 492 314 c 128,-1,11
 521 303 521 303 536.5 289 c 128,-1,12
 552 275 552 275 564 251.5 c 128,-1,13
 576 228 576 228 576 197 c 0,14,15
 576 104 576 104 497 45 c 128,-1,16
 418 -14 418 -14 306 -14 c 0,17,18
 222 -14 222 -14 158 25 c 1,19,20
 133 1 133 1 113 1 c 0,21,22
 73 1 73 1 73 40 c 0,23,24
 73 52 73 52 76 67 c 2,25,-1
 90 133 l 2,26,27
 104 199 104 199 154 199 c 0,28,29
 195 199 195 199 195 151 c 0,30,31
 195 124 195 124 232.5 105 c 128,-1,32
 270 86 270 86 320 86 c 0,33,34
 380 86 380 86 425 110.5 c 128,-1,35
 470 135 470 135 470 174 c 0,36,37
 470 217 470 217 350.872518989 240.261305545 c 0,38,39
 345 241 345 241 342 242 c 0,40,41
 303 250 303 250 276 259 c 128,-1,42
 249 268 249 268 222 283 c 128,-1,43
 195 298 195 298 181 323 c 128,-1,44
 167 348 167 348 167 381 c 0,45,46
 167 476 167 476 244 536.5 c 128,-1,47
 321 597 321 597 426 597 c 0,48,49
 504 597 504 597 549 564 c 1,50,51
 569 597 569 597 595 597 c 0,52,53
 633 597 633 597 633 560 c 0,54,55
 633 548 633 548 630 531 c 2,56,-1
 611 443 l 2,57,58
 597 376 597 376 548 376 c 0,59,60
 526 376 526 376 517.5 388.5 c 128,-1,61
 509 401 509 401 509 429 c 0,62,63
 509 460 509 460 480.5 478.5 c 128,-1,64
 452 497 452 497 405 497 c 0,0,1
EndSplineSet
EndChar

StartChar: T
Encoding: 84 84 64
Width: 600
Flags: W
HStem: 0 100<141.931 270 370 478.069> 483 100<245 352 452 561>
DStem2: 42.1029 0 142.103 0 0.207912 0.978148<373.024 514.63> 248.744 0 348.744 0 0.207912 0.978148<123.025 493.913>
LayerCount: 3
Fore
SplineSet
493 63 m 0
 493 19 460 0 415 0 c 2
 184 0 l 2
 138 0 127 21 127 39 c 0
 127 81 160 100 205 100 c 2
 270 100 l 1
 352 483 l 1
 245 483 l 1
 225 390 l 2
 216 347 196 324 161 324 c 0
 134 324 122 338 122 364 c 0
 122 372 123 380 125 390 c 2
 166 583 l 1
 682 583 l 1
 641 390 l 2
 632 346 612 324 577 324 c 0
 550 324 538 338 538 364 c 0
 538 372 539 380 541 390 c 2
 561 483 l 1
 452 483 l 1
 370 100 l 1
 436 100 l 2
 473 100 493 88 493 63 c 0
EndSplineSet
Validated: 1
Layer: 2
SplineSet
493 63 m 0,0,1
 493 0 493 0 415 0 c 2,2,-1
 184 0 l 2,3,4
 127 0 127 0 127 39 c 0,5,6
 127 69 127 69 148.5 84.5 c 128,-1,7
 170 100 170 100 205 100 c 2,8,-1
 270 100 l 1,9,-1
 352 483 l 1,10,-1
 245 483 l 1,11,-1
 225 390 l 2,12,13
 211 324 211 324 161 324 c 0,14,15
 122 324 122 324 122 364 c 0,16,17
 122 375 122 375 125 390 c 2,18,-1
 166 583 l 1,19,-1
 682 583 l 1,20,-1
 641 390 l 2,21,22
 628 324 628 324 577 324 c 0,23,24
 538 324 538 324 538 364 c 0,25,26
 538 375 538 375 541 390 c 2,27,-1
 561 483 l 1,28,-1
 452 483 l 1,29,-1
 370 100 l 1,30,-1
 436 100 l 2,31,32
 493 100 493 100 493 63 c 0,0,1
EndSplineSet
EndChar

StartChar: U
Encoding: 85 85 65
Width: 600
Flags: W
HStem: -14 100<246.461 397.44> 483 100<136.94 174 274 372.363 454.343 532 632 689.845>
VStem: 109 102<119.888 227.889>
DStem2: 68.4501 -14 168.363 -14 0.207912 0.978148<215.762 508.084> 426.363 -14 526.45 -14 0.207912 0.978148<151.808 508.102>
LayerCount: 3
Fore
SplineSet
705 547 m 0
 705 505 675 483 632 483 c 1
 573 205 l 2
 544 67 411 -14 297 -14 c 0
 196 -14 109 50 109 158 c 0
 109 173 111 188 115 205 c 2
 174 483 l 1
 140 483 122 496 122 520 c 0
 122 564 155 583 200 583 c 2
 330 583 l 2
 368 583 387 573 387 547 c 0
 387 502 355 483 309 483 c 2
 274 483 l 1
 213 196 l 2
 212 189 211 182 211 176 c 0
 211 125 255 86 318 86 c 0
 389 86 458 135 471 196 c 2
 532 483 l 1
 497 483 l 2
 460 483 440 495 440 520 c 0
 440 565 471 583 518 583 c 2
 648 583 l 2
 686 583 705 572 705 547 c 0
EndSplineSet
Validated: 1
Layer: 2
SplineSet
705 547 m 0,0,1
 705 516 705 516 685 499.5 c 128,-1,2
 665 483 665 483 632 483 c 1,3,-1
 573 205 l 2,4,5
 552 106 552 106 470 46 c 128,-1,6
 388 -14 388 -14 297 -14 c 0,7,8
 218 -14 218 -14 163.5 33 c 128,-1,9
 109 80 109 80 109 158 c 0,10,11
 109 180 109 180 115 205 c 2,12,-1
 174 483 l 1,13,14
 122 483 122 483 122 520 c 0,15,16
 122 583 122 583 200 583 c 2,17,-1
 330 583 l 2,18,19
 387 583 387 583 387 547 c 0,20,21
 387 483 387 483 309 483 c 2,22,-1
 274 483 l 1,23,-1
 213 196 l 2,24,25
 211 182 211 182 211 176 c 0,26,27
 211 137 211 137 241 111.5 c 128,-1,28
 271 86 271 86 318 86 c 0,29,30
 371 86 371 86 416 118 c 128,-1,31
 461 150 461 150 471 196 c 2,32,-1
 532 483 l 1,33,-1
 497 483 l 2,34,35
 440 483 440 483 440 520 c 0,36,37
 440 583 440 583 518 583 c 2,38,-1
 648 583 l 2,39,40
 705 583 705 583 705 547 c 0,0,1
EndSplineSet
EndChar

StartChar: V
Encoding: 86 86 66
Width: 600
Flags: W
HStem: 0 21G<244.901 360.754> 483 100<105.637 150 262 342.752 483.775 550 656 720.296>
DStem2: 262 483 150 483 0.200794 -0.979633<0 346.553> 334 144 348 0 0.537666 0.843158<0 401.966>
LayerCount: 3
Fore
SplineSet
302 583 m 2
 325 583 358 583 358 544 c 0
 358 510 334 483 281 483 c 2
 262 483 l 1
 334 144 l 1
 550 483 l 1
 526 483 l 2
 503 483 469 483 469 524 c 0
 469 562 501 583 547 583 c 2
 679 583 l 2
 718 583 735 574 735 544 c 0
 735 503 703 483 656 483 c 1
 348 0 l 1
 249 0 l 1
 150 483 l 1
 127 483 91 484 91 524 c 0
 91 562 123 583 169 583 c 2
 302 583 l 2
EndSplineSet
Validated: 1
Layer: 2
SplineSet
302 583 m 2,0,1
 318 583 318 583 327.5 582 c 128,-1,2
 337 581 337 581 347.5 571.5 c 128,-1,3
 358 562 358 562 358 544 c 0,4,5
 358 517 358 517 338.5 500 c 128,-1,6
 319 483 319 483 281 483 c 2,7,-1
 262 483 l 1,8,-1
 334 144 l 1,9,-1
 550 483 l 1,10,-1
 526 483 l 2,11,12
 509 483 509 483 499.5 484.5 c 128,-1,13
 490 486 490 486 479.5 495.5 c 128,-1,14
 469 505 469 505 469 524 c 0,15,16
 469 552 469 552 490.5 567.5 c 128,-1,17
 512 583 512 583 547 583 c 2,18,-1
 679 583 l 2,19,20
 709 583 709 583 722 574.5 c 128,-1,21
 735 566 735 566 735 544 c 0,22,23
 735 514 735 514 713.5 498.5 c 128,-1,24
 692 483 692 483 656 483 c 1,25,-1
 348 0 l 1,26,-1
 249 0 l 1,27,-1
 150 483 l 1,28,29
 91 483 91 483 91 524 c 0,30,31
 91 552 91 552 112.5 567.5 c 128,-1,32
 134 583 134 583 169 583 c 2,33,-1
 302 583 l 2,0,1
EndSplineSet
EndChar

StartChar: W
Encoding: 87 87 67
Width: 600
Flags: W
HStem: 0 21G<98 219.83 390.545 509.749> 417 20G<333.027 450.478> 483 100<116.809 139 242 354.296 473.343 569 666 708.913>
DStem2: 98 0 220 211 0.0845819 0.996417<220.563 489.178> 220 211 359 277 0.476181 0.879347<0 124.226> 476 211 503 0 0.319757 0.9475<0 287.457>
LayerCount: 3
Fore
SplineSet
459 520 m 0
 459 565 490 583 537 583 c 2
 668 583 l 2
 706 583 725 572 725 547 c 0
 725 511 700 489 666 483 c 1
 503 0 l 1
 393 0 l 1
 359 277 l 1
 209 0 l 1
 98 0 l 1
 139 483 l 1
 115 486 101 498 101 518 c 0
 101 563 133 583 180 583 c 2
 311 583 l 2
 349 583 369 572 369 546 c 0
 369 501 337 483 290 483 c 2
 242 483 l 1
 220 211 l 1
 344 437 l 1
 448 437 l 1
 476 211 l 1
 569 483 l 1
 516 483 l 2
 479 483 459 495 459 520 c 0
EndSplineSet
Validated: 1
Layer: 2
SplineSet
459 520 m 0,0,1
 459 583 459 583 537 583 c 2,2,-1
 668 583 l 2,3,4
 725 583 725 583 725 547 c 0,5,6
 725 521 725 521 709 504.5 c 128,-1,7
 693 488 693 488 666 483 c 1,8,-1
 503 0 l 1,9,-1
 393 0 l 1,10,-1
 359 277 l 1,11,-1
 209 0 l 1,12,-1
 98 0 l 1,13,-1
 139 483 l 1,14,15
 101 488 101 488 101 518 c 0,16,17
 101 583 101 583 180 583 c 2,18,-1
 311 583 l 2,19,20
 369 583 369 583 369 546 c 0,21,22
 369 483 369 483 290 483 c 2,23,-1
 242 483 l 1,24,-1
 220 211 l 1,25,-1
 344 437 l 1,26,-1
 448 437 l 1,27,-1
 476 211 l 1,28,-1
 569 483 l 1,29,-1
 516 483 l 2,30,31
 459 483 459 483 459 520 c 0,0,1
EndSplineSet
EndChar

StartChar: X
Encoding: 88 88 68
Width: 600
Flags: W
HStem: 0 100<36.0516 90 220 251.135 372.899 423 552 587.756> 483 100<147.875 180 624 676.857>
VStem: 467 225<498.223 566.253>
DStem2: 90 100 220 100 0.726517 0.687149<94.4472 269.899 399.656 558.831> 308 484 180 483 0.536307 -0.844023<0 130.613 244.274 385.78>
LayerCount: 3
Fore
SplineSet
131 522 m 0
 131 546 150 583 209 583 c 2
 300 583 l 2
 339 583 357 575 357 544 c 0
 357 506 325 491 308 484 c 1
 380 375 l 1
 496 484 l 1
 475 496 467 506 467 522 c 0
 467 536 474 583 546 583 c 2
 636 583 l 2
 675 583 692 575 692 545 c 0
 692 525 680 485 624 483 c 1
 427 297 l 1
 552 100 l 1
 585 99 602 85 602 62 c 0
 602 18 569 0 524 0 c 2
 413 0 l 2
 375 0 357 13 357 37 c 0
 357 55 367 97 423 100 c 1
 348 220 l 1
 220 100 l 1
 249 100 265 85 265 62 c 0
 265 18 232 0 187 0 c 2
 76 0 l 2
 51 0 20 3 20 39 c 0
 20 58 34 100 90 100 c 1
 298 298 l 1
 180 483 l 1
 148 483 131 499 131 522 c 0
EndSplineSet
Validated: 1
Layer: 2
SplineSet
131 522 m 0,0,1
 131 544 131 544 150 563.5 c 128,-1,2
 169 583 169 583 209 583 c 2,3,-1
 300 583 l 2,4,5
 331 583 331 583 344 574.5 c 128,-1,6
 357 566 357 566 357 544 c 0,7,8
 357 504 357 504 308 484 c 1,9,-1
 380 375 l 1,10,-1
 496 484 l 1,11,12
 467 501 467 501 467 522 c 0,13,14
 467 529 467 529 469.5 537.5 c 128,-1,15
 472 546 472 546 479 557.5 c 128,-1,16
 486 569 486 569 503.5 576 c 128,-1,17
 521 583 521 583 546 583 c 2,18,-1
 636 583 l 2,19,20
 666 583 666 583 679 575 c 128,-1,21
 692 567 692 567 692 545 c 0,22,23
 692 524 692 524 676.5 504 c 128,-1,24
 661 484 661 484 624 483 c 1,25,-1
 427 297 l 1,26,-1
 552 100 l 1,27,28
 602 98 602 98 602 62 c 0,29,30
 602 0 602 0 524 0 c 2,31,-1
 413 0 l 2,32,33
 357 0 357 0 357 37 c 0,34,35
 357 58 357 58 371.5 78 c 128,-1,36
 386 98 386 98 423 100 c 1,37,-1
 348 220 l 1,38,-1
 220 100 l 1,39,40
 265 100 265 100 265 62 c 0,41,42
 265 0 265 0 187 0 c 2,43,-1
 76 0 l 2,44,45
 20 0 20 0 20 39 c 0,46,47
 20 59 20 59 36.5 79.5 c 128,-1,48
 53 100 53 100 90 100 c 1,49,-1
 298 298 l 1,50,-1
 180 483 l 1,51,52
 157 483 157 483 144 493.5 c 128,-1,53
 131 504 131 504 131 522 c 0,0,1
EndSplineSet
EndChar

StartChar: Y
Encoding: 89 89 69
Width: 600
Flags: W
HStem: 0 100<141.704 271 371 479.296> 483 100<148.309 188 617 677.913>
VStem: 133 225<499.68 566.957> 466 228<499.25 568.07>
DStem2: 308 484 188 483 0.431992 -0.901878<0 151.167> 374 348 402 245 0.670342 0.742053<0 183.371>
LayerCount: 3
Fore
SplineSet
466 522 m 0
 466 566 499 583 545 583 c 2
 637 583 l 2
 675 583 694 572 694 547 c 0
 694 505 662 483 617 483 c 1
 402 245 l 1
 371 100 l 1
 436 100 l 2
 474 100 494 89 494 63 c 0
 494 18 462 0 415 0 c 2
 185 0 l 2
 148 0 127 11 127 37 c 0
 127 81 159 100 206 100 c 2
 271 100 l 1
 302 245 l 1
 188 483 l 1
 152 483 133 497 133 521 c 0
 133 566 171 583 212 583 c 2
 301 583 l 2
 339 583 358 572 358 547 c 0
 358 514 340 496 308 484 c 1
 374 348 l 1
 497 484 l 1
 476 492 466 505 466 522 c 0
EndSplineSet
Validated: 1
Layer: 2
SplineSet
466 522 m 0,0,1
 466 583 466 583 545 583 c 2,2,-1
 637 583 l 2,3,4
 694 583 694 583 694 547 c 0,5,6
 694 516 694 516 673 499.5 c 128,-1,7
 652 483 652 483 617 483 c 1,8,-1
 402 245 l 1,9,-1
 371 100 l 1,10,-1
 436 100 l 2,11,12
 494 100 494 100 494 63 c 0,13,14
 494 0 494 0 415 0 c 2,15,-1
 185 0 l 2,16,17
 127 0 127 0 127 37 c 0,18,19
 127 100 127 100 206 100 c 2,20,-1
 271 100 l 1,21,-1
 302 245 l 1,22,-1
 188 483 l 1,23,24
 133 483 133 483 133 521 c 0,25,26
 133 553 133 553 155.5 568 c 128,-1,27
 178 583 178 583 212 583 c 2,28,-1
 301 583 l 2,29,30
 358 583 358 583 358 547 c 0,31,32
 358 503 358 503 308 484 c 1,33,-1
 374 348 l 1,34,-1
 497 484 l 1,35,36
 466 496 466 496 466 522 c 0,0,1
EndSplineSet
EndChar

StartChar: Z
Encoding: 90 90 70
Width: 600
Flags: W
HStem: 0 100<222 448> 483 100<299 478>
DStem2: 94 100 222 100 0.706189 0.708023<90.3922 542.349>
LayerCount: 3
Fore
SplineSet
222 100 m 1
 448 100 l 1
 464 172 l 2
 473 215 493 238 528 238 c 0
 555 238 567 225 567 199 c 0
 567 191 566 182 564 172 c 2
 527 0 l 1
 73 0 l 1
 94 100 l 1
 478 483 l 1
 299 483 l 1
 284 413 l 2
 275 369 255 347 220 347 c 0
 194 347 181 361 181 387 c 0
 181 395 182 403 184 413 c 2
 220 583 l 1
 628 583 l 1
 607 486 l 1
 222 100 l 1
EndSplineSet
Validated: 1
Layer: 2
SplineSet
222 100 m 1,0,-1
 448 100 l 1,1,-1
 464 172 l 2,2,3
 478 238 478 238 528 238 c 0,4,5
 567 238 567 238 567 199 c 0,6,7
 567 187 567 187 564 172 c 2,8,-1
 527 0 l 1,9,-1
 73 0 l 1,10,-1
 94 100 l 1,11,-1
 478 483 l 1,12,-1
 299 483 l 1,13,-1
 284 413 l 2,14,15
 270 347 270 347 220 347 c 0,16,17
 181 347 181 347 181 387 c 0,18,19
 181 398 181 398 184 413 c 2,20,-1
 220 583 l 1,21,-1
 628 583 l 1,22,-1
 607 486 l 1,23,-1
 222 100 l 1,0,-1
EndSplineSet
EndChar

StartChar: bracketleft
Encoding: 91 91 71
Width: 600
Flags: W
HStem: -148 100<340 441.363> 527 100<462 583.363>
DStem2: 219 -148 318.744 -148 0.207912 0.978148<122.972 710.772>
LayerCount: 3
Fore
SplineSet
598 591 m 0
 598 546 566 527 520 527 c 2
 462 527 l 1
 340 -48 l 1
 399 -48 l 2
 436 -48 456 -60 456 -85 c 0
 456 -129 424 -148 378 -148 c 2
 219 -148 l 1
 383 627 l 1
 541 627 l 2
 579 627 598 616 598 591 c 0
EndSplineSet
Validated: 1
Layer: 2
SplineSet
598 591 m 0,0,1
 598 527 598 527 520 527 c 2,2,-1
 462 527 l 1,3,-1
 340 -48 l 1,4,-1
 399 -48 l 2,5,6
 456 -48 456 -48 456 -85 c 0,7,8
 456 -148 456 -148 378 -148 c 2,9,-1
 219 -148 l 1,10,-1
 383 627 l 1,11,-1
 541 627 l 2,12,13
 598 627 598 627 598 591 c 0,0,1
EndSplineSet
EndChar

StartChar: backslash
Encoding: 92 92 72
Width: 600
Flags: W
VStem: 219 103<624.186 678.123>
DStem2: 322 651 225 610 0.249576 -0.968355<-10.9076 728.762>
LayerCount: 3
Fore
SplineSet
219 636 m 0
 219 662 247 695 281 695 c 0
 304 695 313 685 322 651 c 2
 499 -27 l 2
 502 -39 504 -48 504 -55 c 0
 504 -89 469 -113 443 -113 c 0
 419 -113 409 -103 400 -69 c 2
 225 610 l 2
 221 623 219 630 219 636 c 0
EndSplineSet
Validated: 1
Layer: 2
SplineSet
219 636 m 0,0,1
 219 657 219 657 238 676 c 128,-1,2
 257 695 257 695 281 695 c 0,3,4
 298 695 298 695 306.5 686 c 128,-1,5
 315 677 315 677 322 651 c 2,6,-1
 499 -27 l 2,7,8
 504 -47 504 -47 504 -55 c 0,9,10
 504 -79 504 -79 484 -96 c 128,-1,11
 464 -113 464 -113 443 -113 c 0,12,13
 425 -113 425 -113 416 -103.5 c 128,-1,14
 407 -94 407 -94 400 -69 c 2,15,-1
 225 610 l 2,16,17
 219 630 219 630 219 636 c 0,0,1
EndSplineSet
EndChar

StartChar: bracketright
Encoding: 93 93 73
Width: 600
Flags: W
HStem: -148 100<118.637 240> 527 100<260.637 362>
DStem2: 218.744 -148 319 -148 0.207912 0.978148<102.234 690.034>
LayerCount: 3
Fore
SplineSet
104 -112 m 0
 104 -67 136 -48 182 -48 c 2
 240 -48 l 1
 362 527 l 1
 303 527 l 2
 266 527 246 539 246 564 c 0
 246 608 278 627 324 627 c 2
 483 627 l 1
 319 -148 l 1
 161 -148 l 2
 123 -148 104 -137 104 -112 c 0
EndSplineSet
Validated: 1
Layer: 2
SplineSet
104 -112 m 0,0,1
 104 -48 104 -48 182 -48 c 2,2,-1
 240 -48 l 1,3,-1
 362 527 l 1,4,-1
 303 527 l 2,5,6
 246 527 246 527 246 564 c 0,7,8
 246 627 246 627 324 627 c 2,9,-1
 483 627 l 1,10,-1
 319 -148 l 1,11,-1
 161 -148 l 2,12,13
 104 -148 104 -148 104 -112 c 0,0,1
EndSplineSet
EndChar

StartChar: asciicircum
Encoding: 94 94 74
Width: 600
Flags: W
HStem: 325 327
DStem2: 194 419 258 356 0.723221 0.690617<-58.4579 203.673> 438 652 404 494 0.530979 -0.847385<115.833 310.811>
LayerCount: 3
Fore
SplineSet
598 385 m 0
 598 351 562 325 536 325 c 0
 517 325 509 330 493 355 c 2
 404 494 l 1
 258 356 l 2
 230 330 222 325 202 325 c 0
 179 325 162 342 162 365 c 0
 162 386 173 399 194 419 c 2
 438 652 l 1
 584 419 l 2
 594 403 598 395 598 385 c 0
EndSplineSet
Validated: 1
Layer: 2
SplineSet
598 385 m 0,0,1
 598 361 598 361 577.5 343 c 128,-1,2
 557 325 557 325 536 325 c 0,3,4
 522 325 522 325 513.5 330.5 c 128,-1,5
 505 336 505 336 493 355 c 2,6,-1
 404 494 l 1,7,-1
 258 356 l 2,8,9
 237 336 237 336 227 330.5 c 128,-1,10
 217 325 217 325 202 325 c 0,11,12
 185 325 185 325 173.5 336.5 c 128,-1,13
 162 348 162 348 162 365 c 0,14,15
 162 389 162 389 194 419 c 2,16,-1
 438 652 l 1,17,-1
 584 419 l 2,18,19
 598 397 598 397 598 385 c 0,0,1
EndSplineSet
EndChar

StartChar: underscore
Encoding: 95 95 75
Width: 600
Flags: W
HStem: -125 50<-28 585>
LayerCount: 3
Fore
SplineSet
596 -75 m 1
 585 -125 l 1
 -39 -125 l 1
 -28 -75 l 1
 596 -75 l 1
EndSplineSet
Validated: 1
Layer: 2
SplineSet
596 -75 m 1,0,-1
 585 -125 l 1,1,-1
 -39 -125 l 1,2,-1
 -28 -75 l 1,3,-1
 596 -75 l 1,0,-1
EndSplineSet
EndChar

StartChar: grave
Encoding: 96 96 76
Width: 600
Flags: W
HStem: 496 200
VStem: 264 200
DStem2: 339 680 390 512 0.697444 -0.71664<-31.3344 186.633>
LayerCount: 3
Fore
SplineSet
264 653 m 0
 264 672 283 696 310 696 c 0
 321 696 325 693 339 680 c 2
 448 569 l 2
 459 558 464 549 464 539 c 0
 464 514 438 496 418 496 c 0
 408 496 402 500 390 512 c 2
 281 624 l 2
 269 635 264 643 264 653 c 0
EndSplineSet
Validated: 1
Layer: 2
SplineSet
264 653 m 0,0,1
 264 668 264 668 277.5 682 c 128,-1,2
 291 696 291 696 310 696 c 0,3,4
 322 696 322 696 339 680 c 2,5,-1
 448 569 l 2,6,7
 464 553 464 553 464 539 c 0,8,9
 464 521 464 521 449 508.5 c 128,-1,10
 434 496 434 496 418 496 c 0,11,12
 406 496 406 496 390 512 c 2,13,-1
 281 624 l 2,14,15
 264 640 264 640 264 653 c 0,0,1
EndSplineSet
EndChar

StartChar: a
Encoding: 97 97 77
Width: 600
Flags: W
HStem: -16 100<178.524 349.195> 0 100<510 568.363> 185 93<346.499 428> 196 92<225.55 426.688> 350 100<237.499 447.884>
VStem: 65 109<93.7075 154.152> 453 104<279.133 340.984>
LayerCount: 3
Fore
SplineSet
583 64 m 0x6e
 583 19 551 0 505 0 c 2
 388 0 l 1x6e
 393 23 l 1
 340 -2 278 -16 219 -16 c 0
 130 -16 65 34 65 98 c 0
 65 188 182 288 345 288 c 0x9e
 377 288 407 285 447 278 c 1
 452 301 l 2
 453 305 453 308 453 311 c 0
 453 338 426 350 369 350 c 0
 299 350 240 327 209 327 c 0
 185 327 169 343 169 366 c 0
 169 395 185 412 209 420 c 0
 261 437 338 450 388 450 c 0
 496 450 557 407 557 334 c 0
 557 324 555 313 553 302 c 2
 510 100 l 1
 526 100 l 2
 564 100 583 89 583 64 c 0x6e
418 135 m 1
 428 185 l 1xae
 389 192 354 196 320 196 c 0
 254 196 174 161 174 118 c 0
 174 98 202 84 242 84 c 0x9e
 296 84 356 101 418 135 c 1
EndSplineSet
Validated: 1
Layer: 2
SplineSet
583 64 m 0,0,1
 583 0 583 0 505 0 c 2,2,-1
 388 0 l 1,3,-1
 393 23 l 1,4,5
 310 -16 310 -16 219 -16 c 0,6,7
 153 -16 153 -16 109 17 c 128,-1,8
 65 50 65 50 65 98 c 0,9,10
 65 169 65 169 146.5 228.5 c 128,-1,11
 228 288 228 288 345 288 c 0,12,13
 390 288 390 288 447 278 c 1,14,-1
 452 301 l 2,15,16
 453 305 453 305 453 311 c 0,17,18
 453 350 453 350 369 350 c 0,19,20
 329 350 329 350 274.5 338.5 c 128,-1,21
 220 327 220 327 209 327 c 0,22,23
 191 327 191 327 180 338 c 128,-1,24
 169 349 169 349 169 366 c 0,25,26
 169 407 169 407 209 420 c 0,27,28
 301 450 301 450 388 450 c 0,29,30
 469 450 469 450 513 419.5 c 128,-1,31
 557 389 557 389 557 334 c 0,32,33
 557 324 557 324 553 302 c 2,34,-1
 510 100 l 1,35,-1
 526 100 l 2,36,37
 583 100 583 100 583 64 c 0,0,1
418 135 m 1,38,-1
 428 185 l 1,39,40
 367 196 367 196 320 196 c 0,41,42
 268 196 268 196 221 172.5 c 128,-1,43
 174 149 174 149 174 118 c 0,44,45
 174 103 174 103 193 93.5 c 128,-1,46
 212 84 212 84 242 84 c 0,47,48
 325 84 325 84 418 135 c 1,38,-1
EndSplineSet
EndChar

StartChar: b
Encoding: 98 98 78
Width: 600
Flags: W
HStem: -14 100<259.929 430.245> 0 100<15.6369 95> 351 100<310.49 476.608> 524 100<126.998 185>
VStem: 520 103<168.469 309.094>
DStem2: 70.7686 -14 171.262 -14 0.207912 0.978148<230.567 337.46 445.067 549.993>
LayerCount: 3
Fore
SplineSet
112 561 m 0x78
 112 606 145 624 191 624 c 2
 307 624 l 1
 259 401 l 1
 309 435 360 451 420 451 c 0
 563 451 623 364 623 269 c 0
 623 122 501 -14 322 -14 c 0xb8
 263 -14 225 -1 181 35 c 1
 174 0 l 1
 58 0 l 2
 21 0 1 12 1 37 c 0
 1 82 33 100 79 100 c 2
 95 100 l 1
 185 524 l 1
 169 524 l 2
 132 524 112 536 112 561 c 0x78
398 351 m 0
 279 351 230 263 221 220 c 0
 219 210 218 199 218 190 c 0
 218 127 264 86 341 86 c 0
 431 86 520 148 520 243 c 0
 520 288 497 351 398 351 c 0
EndSplineSet
Validated: 1
Layer: 2
SplineSet
112 561 m 0,0,1
 112 624 112 624 191 624 c 2,2,-1
 307 624 l 1,3,-1
 259 401 l 1,4,5
 333 451 333 451 420 451 c 0,6,7
 521 451 521 451 572 399 c 128,-1,8
 623 347 623 347 623 269 c 0,9,10
 623 155 623 155 537.5 70.5 c 128,-1,11
 452 -14 452 -14 322 -14 c 0,12,13
 241 -14 241 -14 181 35 c 1,14,-1
 174 0 l 1,15,-1
 58 0 l 2,16,17
 1 0 1 0 1 37 c 0,18,19
 1 100 1 100 79 100 c 2,20,-1
 95 100 l 1,21,-1
 185 524 l 1,22,-1
 169 524 l 2,23,24
 112 524 112 524 112 561 c 0,0,1
398 351 m 0,25,26
 343 351 343 351 302 326 c 128,-1,27
 261 301 261 301 244 273.5 c 128,-1,28
 227 246 227 246 221 220 c 0,29,30
 218 205 218 205 218 190 c 0,31,32
 218 142 218 142 251 114 c 128,-1,33
 284 86 284 86 341 86 c 0,34,35
 412 86 412 86 466 130 c 128,-1,36
 520 174 520 174 520 243 c 0,37,38
 520 286 520 286 492.5 318.5 c 128,-1,39
 465 351 465 351 398 351 c 0,25,26
EndSplineSet
EndChar

StartChar: c
Encoding: 99 99 79
Width: 600
Flags: W
HStem: -16 100<235.693 477.071> 350 100<294.202 478.93>
VStem: 93 102<121.701 255.87>
LayerCount: 3
Fore
SplineSet
384 350 m 0
 284 350 195 277 195 177 c 0
 195 115 246 84 348 84 c 0
 463 84 491 113 512 128 c 0
 523 136 533 140 545 140 c 0
 569 140 585 123 585 100 c 0
 585 97 585 93 584 89 c 0
 578 63 549 37 504 16 c 0
 459 -4 393 -16 320 -16 c 0
 132 -16 93 80 93 156 c 0
 93 328 246 450 406 450 c 0
 463 450 508 440 543 420 c 1
 553 441 567 450 588 450 c 0
 613 450 625 438 625 412 c 0
 625 404 624 395 622 384 c 2
 605 307 l 2
 596 264 576 241 541 241 c 0
 509 241 500 256 500 289 c 0
 500 307 497 317 485 325 c 0
 462 341 428 350 384 350 c 0
EndSplineSet
Validated: 1
Layer: 2
SplineSet
384 350 m 0,0,1
 307 350 307 350 251 300.5 c 128,-1,2
 195 251 195 251 195 177 c 0,3,4
 195 84 195 84 348 84 c 0,5,6
 369 84 369 84 387.5 85.5 c 128,-1,7
 406 87 406 87 419 88.5 c 128,-1,8
 432 90 432 90 445 94 c 128,-1,9
 458 98 458 98 465 100 c 128,-1,10
 472 102 472 102 481.5 107.5 c 128,-1,11
 491 113 491 113 493.5 114.5 c 128,-1,12
 496 116 496 116 504 122 c 2,13,-1
 512 128 l 2,14,15
 528 140 528 140 545 140 c 0,16,17
 563 140 563 140 574 128.5 c 128,-1,18
 585 117 585 117 585 100 c 0,19,20
 585 93 585 93 584 89 c 0,21,22
 575 49 575 49 504 16 c 0,23,24
 432 -16 432 -16 320 -16 c 0,25,26
 253 -16 253 -16 206 -0.5 c 128,-1,27
 159 15 159 15 135.5 42 c 128,-1,28
 112 69 112 69 102.5 96.5 c 128,-1,29
 93 124 93 124 93 156 c 0,30,31
 93 281 93 281 187.5 365.5 c 128,-1,32
 282 450 282 450 406 450 c 0,33,34
 490 450 490 450 543 420 c 1,35,36
 557 450 557 450 588 450 c 0,37,38
 625 450 625 450 625 412 c 0,39,40
 625 400 625 400 622 384 c 2,41,-1
 605 307 l 2,42,43
 591 241 591 241 541 241 c 0,44,45
 518 241 518 241 509 252 c 128,-1,46
 500 263 500 263 500 289 c 128,-1,47
 500 315 500 315 485 325 c 0,48,49
 449 350 449 350 384 350 c 0,0,1
EndSplineSet
EndChar

StartChar: d
Encoding: 100 100 80
Width: 600
Flags: W
HStem: -14 100<220.319 384.987> 0 100<552 610.363> 351 100<264.427 438.298> 525 99<483.736 543>
VStem: 74 102<127.906 264.241>
DStem2: 427.899 -14 527.769 -14 0.207912 0.978148<159.228 263.714 424.248 551.152>
LayerCount: 3
Fore
SplineSet
625 64 m 0x78
 625 19 593 0 547 0 c 2
 431 0 l 1x78
 438 35 l 1
 377 -1 336 -14 277 -14 c 0xb8
 133 -14 74 74 74 168 c 0
 74 315 195 451 377 451 c 0
 437 451 480 435 516 401 c 1
 543 525 l 1
 527 525 l 2
 490 525 470 537 470 562 c 0
 470 606 502 624 548 624 c 2
 664 624 l 1
 552 100 l 1
 568 100 l 2
 606 100 625 89 625 64 c 0x78
477 217 m 0
 479 225 480 235 480 245 c 0
 480 292 455 351 356 351 c 0
 229 351 176 256 176 191 c 0
 176 130 222 86 300 86 c 0xb8
 419 86 468 175 477 217 c 0
EndSplineSet
Validated: 1
Layer: 2
SplineSet
625 64 m 0,0,1
 625 0 625 0 547 0 c 2,2,-1
 431 0 l 1,3,-1
 438 35 l 1,4,5
 355 -14 355 -14 277 -14 c 0,6,7
 176 -14 176 -14 125 38.5 c 128,-1,8
 74 91 74 91 74 168 c 0,9,10
 74 282 74 282 159.5 366.5 c 128,-1,11
 245 451 245 451 377 451 c 0,12,13
 463 451 463 451 516 401 c 1,14,-1
 543 525 l 1,15,-1
 527 525 l 2,16,17
 470 525 470 525 470 562 c 0,18,19
 470 624 470 624 548 624 c 2,20,-1
 664 624 l 1,21,-1
 552 100 l 1,22,-1
 568 100 l 2,23,24
 625 100 625 100 625 64 c 0,0,1
477 217 m 0,25,26
 480 229 480 229 480 245 c 0,27,28
 480 288 480 288 451.5 319.5 c 128,-1,29
 423 351 423 351 356 351 c 0,30,31
 269 351 269 351 222.5 300 c 128,-1,32
 176 249 176 249 176 191 c 0,33,34
 176 144 176 144 209.5 115 c 128,-1,35
 243 86 243 86 300 86 c 0,36,37
 342 86 342 86 376 100 c 128,-1,38
 410 114 410 114 430 136 c 128,-1,39
 450 158 450 158 461.5 178.5 c 128,-1,40
 473 199 473 199 477 217 c 0,25,26
EndSplineSet
EndChar

StartChar: e
Encoding: 101 101 81
Width: 600
Flags: W
HStem: -16 100<222.908 465.529> 172 88<200 494> 350 100<271.715 450.671>
VStem: 74 105<126.885 172> 494 107<260.497 310.852>
LayerCount: 3
Fore
SplineSet
74 166 m 0
 74 313 214 450 387 450 c 0
 517 450 601 373 601 262 c 0
 601 246 599 229 595 211 c 2
 587 172 l 1
 179 172 l 1
 189 112 236 84 324 84 c 0
 420 84 486 117 527 117 c 0
 550 117 565 101 565 78 c 0
 565 45 538 30 520 22 c 0
 470 2 365 -16 294 -16 c 0
 159 -16 74 57 74 166 c 0
200 260 m 1
 494 260 l 1
 490 315 439 350 366 350 c 0
 293 350 227 314 200 260 c 1
EndSplineSet
Validated: 1
Layer: 2
SplineSet
74 166 m 0,0,1
 74 278 74 278 166.5 364 c 128,-1,2
 259 450 259 450 387 450 c 0,3,4
 484 450 484 450 542.5 398 c 128,-1,5
 601 346 601 346 601 262 c 0,6,7
 601 238 601 238 595 211 c 2,8,-1
 587 172 l 1,9,-1
 179 172 l 1,10,11
 194 84 194 84 324 84 c 0,12,13
 379 84 379 84 446 100.5 c 128,-1,14
 513 117 513 117 527 117 c 0,15,16
 544 117 544 117 554.5 106 c 128,-1,17
 565 95 565 95 565 78 c 0,18,19
 565 42 565 42 520 22 c 0,20,21
 482 7 482 7 414.5 -4.5 c 128,-1,22
 347 -16 347 -16 294 -16 c 0,23,24
 193 -16 193 -16 133.5 34 c 128,-1,25
 74 84 74 84 74 166 c 0,0,1
200 260 m 1,26,-1
 494 260 l 1,27,28
 491 301 491 301 456 325.5 c 128,-1,29
 421 350 421 350 366 350 c 128,-1,30
 311 350 311 350 265.5 325.5 c 128,-1,31
 220 301 220 301 200 260 c 1,26,-1
EndSplineSet
EndChar

StartChar: f
Encoding: 102 102 82
Width: 600
Flags: W
HStem: 0 100<98.3429 220 320 500.845> 337 100<181.099 271 392 585.363> 523 100<414.527 651.871>
DStem2: 198.744 0 298.744 0 0.207912 0.978148<123.025 344.659 467.631 547.117>
LayerCount: 3
Fore
SplineSet
691 570 m 0
 691 535 659 509 632 509 c 0
 618 509 550 523 494 523 c 0
 437 523 407 507 400 474 c 2
 392 437 l 1
 543 437 l 2
 580 437 600 425 600 400 c 0
 600 356 568 337 522 337 c 2
 371 337 l 1
 320 100 l 1
 459 100 l 2
 497 100 516 89 516 64 c 0
 516 20 483 0 438 0 c 2
 141 0 l 2
 105 0 84 11 84 37 c 0
 84 81 115 100 162 100 c 2
 220 100 l 1
 271 337 l 1
 224 337 l 2
 188 337 167 349 167 375 c 0
 167 419 199 437 246 437 c 2
 292 437 l 1
 300 474 l 2
 320 566 405 623 524 623 c 0
 566 623 628 616 658 607 c 0
 680 601 691 588 691 570 c 0
EndSplineSet
Validated: 1
Layer: 2
SplineSet
691 570 m 0,0,1
 691 545 691 545 672 527 c 128,-1,2
 653 509 653 509 632 509 c 0,3,4
 630 509 630 509 578.5 516 c 128,-1,5
 527 523 527 523 494 523 c 0,6,7
 410 523 410 523 400 474 c 2,8,-1
 392 437 l 1,9,-1
 543 437 l 2,10,11
 600 437 600 437 600 400 c 0,12,13
 600 337 600 337 522 337 c 2,14,-1
 371 337 l 1,15,-1
 320 100 l 1,16,-1
 459 100 l 2,17,18
 516 100 516 100 516 64 c 0,19,20
 516 32 516 32 494.5 16 c 128,-1,21
 473 0 473 0 438 0 c 2,22,-1
 141 0 l 2,23,24
 84 0 84 0 84 37 c 0,25,26
 84 100 84 100 162 100 c 2,27,-1
 220 100 l 1,28,-1
 271 337 l 1,29,-1
 224 337 l 2,30,31
 167 337 167 337 167 375 c 0,32,33
 167 437 167 437 246 437 c 2,34,-1
 292 437 l 1,35,-1
 300 474 l 2,36,37
 315 543 315 543 375 583 c 128,-1,38
 435 623 435 623 524 623 c 0,39,40
 605 623 605 623 658 607 c 0,41,42
 691 598 691 598 691 570 c 0,0,1
EndSplineSet
EndChar

StartChar: g
Encoding: 103 103 83
Width: 600
Flags: W
HStem: -205 100<121.637 363.127> -14 100<218.818 365.764> 337 100<582 661.363> 351 100<266.274 417.596>
VStem: 74 103<128.156 263.902>
DStem2: 366.677 -205 466.677 -205 0.207912 0.978148<126.947 245.218 354.748 458.949>
LayerCount: 3
Fore
SplineSet
107 -168 m 0xe8
 107 -124 139 -105 185 -105 c 2
 294 -105 l 2
 351 -105 395 -72 406 -20 c 2
 417 35 l 1
 364 1 318 -14 266 -14 c 0
 150 -14 74 61 74 167 c 0
 74 334 221 451 365 451 c 0xd8
 419 451 463 434 495 401 c 1
 503 437 l 1
 619 437 l 2
 657 437 676 426 676 401 c 0
 676 356 644 337 598 337 c 2
 582 337 l 1
 506 -20 l 2
 483 -126 384 -205 275 -205 c 2
 163 -205 l 2
 127 -205 107 -193 107 -168 c 0xe8
346 351 m 0
 265 351 177 283 177 192 c 0
 177 131 223 86 289 86 c 0
 365 86 441 145 456 217 c 0
 458 227 459 236 459 245 c 0
 459 306 414 351 346 351 c 0
EndSplineSet
Validated: 1
Layer: 2
SplineSet
107 -168 m 0,0,1
 107 -105 107 -105 185 -105 c 2,2,-1
 294 -105 l 2,3,4
 337 -105 337 -105 367.5 -82 c 128,-1,5
 398 -59 398 -59 406 -20 c 2,6,-1
 417 35 l 1,7,8
 341 -14 341 -14 266 -14 c 0,9,10
 180 -14 180 -14 127 36.5 c 128,-1,11
 74 87 74 87 74 167 c 0,12,13
 74 288 74 288 163 369.5 c 128,-1,14
 252 451 252 451 365 451 c 0,15,16
 447 451 447 451 495 401 c 1,17,-1
 503 437 l 1,18,-1
 619 437 l 2,19,20
 676 437 676 437 676 401 c 0,21,22
 676 337 676 337 598 337 c 2,23,-1
 582 337 l 1,24,-1
 506 -20 l 2,25,26
 489 -99 489 -99 423 -152 c 128,-1,27
 357 -205 357 -205 275 -205 c 2,28,-1
 163 -205 l 2,29,30
 107 -205 107 -205 107 -168 c 0,0,1
346 351 m 0,31,32
 282 351 282 351 229.5 304.5 c 128,-1,33
 177 258 177 258 177 192 c 0,34,35
 177 146 177 146 208.5 116 c 128,-1,36
 240 86 240 86 289 86 c 0,37,38
 346 86 346 86 395.5 124.5 c 128,-1,39
 445 163 445 163 456 217 c 0,40,41
 459 232 459 232 459 245 c 0,42,43
 459 291 459 291 427.5 321 c 128,-1,44
 396 351 396 351 346 351 c 0,31,32
EndSplineSet
EndChar

StartChar: h
Encoding: 104 104 84
Width: 600
Flags: W
HStem: 0 100<46.77 116 216 264.742 359.213 430 530 577.856> 350 100<337.492 460.946> 524 100<147.998 206>
VStem: 470 104<254.727 338.104>
DStem2: 94.7443 0 194.744 0 0.207912 0.978148<123.025 335.956 418.6 535.681> 408.744 0 508.744 0 0.207912 0.978148<123.025 303.856>
LayerCount: 3
Fore
SplineSet
133 561 m 0
 133 606 166 624 212 624 c 2
 328 624 l 1
 278 389 l 1
 327 430 376 450 428 450 c 0
 519 450 574 401 574 324 c 0
 574 311 572 298 569 284 c 2
 530 100 l 1
 571 100 593 91 593 64 c 0
 593 19 560 0 515 0 c 2
 403 0 l 2
 366 0 345 11 345 37 c 0
 345 85 381 100 430 100 c 1
 467 271 l 2
 469 281 470 290 470 298 c 0
 470 337 443 350 395 350 c 0
 348 350 324 338 255 283 c 1
 216 100 l 1
 258 100 280 91 280 64 c 0
 280 19 247 0 201 0 c 2
 89 0 l 2
 52 0 32 12 32 37 c 0
 32 84 67 100 116 100 c 1
 206 524 l 1
 190 524 l 2
 153 524 133 536 133 561 c 0
EndSplineSet
Validated: 1
Layer: 2
SplineSet
133 561 m 0,0,1
 133 624 133 624 212 624 c 2,2,-1
 328 624 l 1,3,-1
 278 389 l 1,4,5
 351 450 351 450 428 450 c 0,6,7
 496 450 496 450 535 416 c 128,-1,8
 574 382 574 382 574 324 c 0,9,10
 574 307 574 307 569 284 c 2,11,-1
 530 100 l 1,12,13
 593 100 593 100 593 64 c 0,14,15
 593 0 593 0 515 0 c 2,16,-1
 403 0 l 2,17,18
 345 0 345 0 345 37 c 0,19,20
 345 100 345 100 430 100 c 1,21,-1
 467 271 l 2,22,23
 470 286 470 286 470 298 c 0,24,25
 470 350 470 350 395 350 c 0,26,27
 360 350 360 350 333.5 337.5 c 128,-1,28
 307 325 307 325 255 283 c 1,29,-1
 216 100 l 1,30,31
 280 100 280 100 280 64 c 0,32,33
 280 0 280 0 201 0 c 2,34,-1
 89 0 l 2,35,36
 32 0 32 0 32 37 c 0,37,38
 32 100 32 100 116 100 c 1,39,-1
 206 524 l 1,40,-1
 190 524 l 2,41,42
 133 524 133 524 133 561 c 0,0,1
EndSplineSet
EndChar

StartChar: i
Encoding: 105 105 85
Width: 600
Flags: W
HStem: 0 100<84.7947 271 371 535.069> 337 100<200.41 322> 518 105<350 446>
DStem2: 249.744 0 349.744 0 0.207912 0.978148<123.025 344.659>
LayerCount: 3
Fore
SplineSet
550 63 m 0
 550 19 517 0 472 0 c 2
 128 0 l 2
 82 0 71 20 71 38 c 0
 71 82 103 100 149 100 c 2
 271 100 l 1
 322 337 l 1
 244 337 l 2
 207 337 186 348 186 374 c 0
 186 419 217 437 265 437 c 2
 443 437 l 1
 371 100 l 1
 493 100 l 2
 530 100 550 88 550 63 c 0
468 623 m 1
 446 518 l 1
 328 518 l 1
 350 623 l 1
 468 623 l 1
EndSplineSet
Validated: 1
Layer: 2
SplineSet
550 63 m 0,0,1
 550 0 550 0 472 0 c 2,2,-1
 128 0 l 2,3,4
 71 0 71 0 71 38 c 0,5,6
 71 100 71 100 149 100 c 2,7,-1
 271 100 l 1,8,-1
 322 337 l 1,9,-1
 244 337 l 2,10,11
 186 337 186 337 186 374 c 0,12,13
 186 437 186 437 265 437 c 2,14,-1
 443 437 l 1,15,-1
 371 100 l 1,16,-1
 493 100 l 2,17,18
 550 100 550 100 550 63 c 0,0,1
468 623 m 1,19,-1
 446 518 l 1,20,-1
 328 518 l 1,21,-1
 350 623 l 1,22,-1
 468 623 l 1,19,-1
EndSplineSet
EndChar

StartChar: j
Encoding: 106 106 86
Width: 600
Flags: W
HStem: -205 100<97.9309 341.298> 337 100<215.637 460> 518 105<443 540>
DStem2: 344.677 -205 444.677 -205 0.207912 0.978148<127.456 554.133>
LayerCount: 3
Fore
SplineSet
83 -168 m 0
 83 -124 116 -105 161 -105 c 2
 272 -105 l 2
 329 -105 373 -72 384 -20 c 2
 460 337 l 1
 258 337 l 2
 222 337 201 349 201 374 c 0
 201 418 233 437 279 437 c 2
 581 437 l 1
 484 -20 l 2
 462 -125 362 -205 253 -205 c 2
 139 -205 l 2
 103 -205 83 -193 83 -168 c 0
562 623 m 1
 540 518 l 1
 421 518 l 1
 443 623 l 1
 562 623 l 1
EndSplineSet
Validated: 1
Layer: 2
SplineSet
83 -168 m 0,0,1
 83 -105 83 -105 161 -105 c 2,2,-1
 272 -105 l 2,3,4
 315 -105 315 -105 345.5 -82 c 128,-1,5
 376 -59 376 -59 384 -20 c 2,6,-1
 460 337 l 1,7,-1
 258 337 l 2,8,9
 201 337 201 337 201 374 c 0,10,11
 201 437 201 437 279 437 c 2,12,-1
 581 437 l 1,13,-1
 484 -20 l 2,14,15
 468 -99 468 -99 401.5 -152 c 128,-1,16
 335 -205 335 -205 253 -205 c 2,17,-1
 139 -205 l 2,18,19
 83 -205 83 -205 83 -168 c 0,0,1
562 623 m 1,20,-1
 540 518 l 1,21,-1
 421 518 l 1,22,-1
 443 623 l 1,23,-1
 562 623 l 1,20,-1
EndSplineSet
EndChar

StartChar: k
Encoding: 107 107 87
Width: 600
Flags: W
HStem: 0 100<57.1545 136 492 568.002> 337 100<501 592.363> 524 100<167.998 226>
DStem2: 114.744 0 215.141 0 0.207912 0.978148<102.234 188.537 314.255 535.681>
LayerCount: 3
Fore
SplineSet
359 376 m 0
 359 420 392 437 438 437 c 2
 550 437 l 2
 587 437 607 425 607 400 c 0
 607 356 575 337 529 337 c 2
 501 337 l 1
 362 241 l 1
 492 100 l 1
 525 100 l 2
 563 100 583 89 583 63 c 0
 583 18 550 0 504 0 c 2
 386 0 l 2
 348 0 329 12 329 37 c 0
 329 60 337 72 354 87 c 1
 271 178 l 1
 250 164 l 1
 215 0 l 1
 99 0 l 2
 61 0 42 12 42 37 c 0
 42 81 75 100 120 100 c 2
 136 100 l 1
 226 524 l 1
 210 524 l 2
 173 524 153 536 153 561 c 0
 153 606 186 624 232 624 c 2
 348 624 l 1
 276 287 l 1
 368 350 l 1
 361 360 359 367 359 376 c 0
EndSplineSet
Validated: 1
Layer: 2
SplineSet
359 376 m 0,0,1
 359 437 359 437 438 437 c 2,2,-1
 550 437 l 2,3,4
 607 437 607 437 607 400 c 0,5,6
 607 337 607 337 529 337 c 2,7,-1
 501 337 l 1,8,-1
 362 241 l 1,9,-1
 492 100 l 1,10,-1
 525 100 l 2,11,12
 583 100 583 100 583 63 c 0,13,14
 583 0 583 0 504 0 c 2,15,-1
 386 0 l 2,16,17
 329 0 329 0 329 37 c 0,18,19
 329 65 329 65 354 87 c 1,20,-1
 271 178 l 1,21,-1
 250 164 l 1,22,-1
 215 0 l 1,23,-1
 99 0 l 2,24,25
 42 0 42 0 42 37 c 0,26,27
 42 100 42 100 120 100 c 2,28,-1
 136 100 l 1,29,-1
 226 524 l 1,30,-1
 210 524 l 2,31,32
 153 524 153 524 153 561 c 0,33,34
 153 624 153 624 232 624 c 2,35,-1
 348 624 l 1,36,-1
 276 287 l 1,37,-1
 368 350 l 1,38,39
 359 363 359 363 359 376 c 0,0,1
EndSplineSet
EndChar

StartChar: l
Encoding: 108 108 88
Width: 600
Flags: W
HStem: 0 100<84.7947 271 371 535.069> 524 100<240.998 361>
DStem2: 249.744 0 349.744 0 0.207912 0.978148<123.025 535.681>
LayerCount: 3
Fore
SplineSet
550 63 m 0
 550 19 517 0 472 0 c 2
 128 0 l 2
 82 0 71 20 71 38 c 0
 71 82 103 100 149 100 c 2
 271 100 l 1
 361 524 l 1
 283 524 l 2
 246 524 226 535 226 561 c 0
 226 606 259 624 305 624 c 2
 483 624 l 1
 371 100 l 1
 493 100 l 2
 530 100 550 88 550 63 c 0
EndSplineSet
Validated: 1
Layer: 2
SplineSet
550 63 m 0,0,1
 550 0 550 0 472 0 c 2,2,-1
 128 0 l 2,3,4
 71 0 71 0 71 38 c 0,5,6
 71 100 71 100 149 100 c 2,7,-1
 271 100 l 1,8,-1
 361 524 l 1,9,-1
 283 524 l 2,10,11
 226 524 226 524 226 561 c 0,12,13
 226 624 226 624 305 624 c 2,14,-1
 483 624 l 1,15,-1
 371 100 l 1,16,-1
 493 100 l 2,17,18
 550 100 550 100 550 63 c 0,0,1
EndSplineSet
EndChar

StartChar: m
Encoding: 109 109 89
Width: 600
Flags: W
HStem: 0 100<5.28391 62 162 199.06 373 408.775 584 620.21> 350 100<252.856 341.5 450.048 561.997> 417 20G<120 234>
VStem: -10 224<15.84 84.375> 531 103<233.352 379.316>
DStem2: 40.7443 0 140.744 0 0.207912 0.978148<123.025 343.543> 252 0 351.744 0 0.207912 0.978148<122.972 333.807> 463 0 562.744 0 0.207912 0.978148<122.972 334.741>
LayerCount: 3
Fore
SplineSet
62 375 m 0xd8
 62 418 99 437 141 437 c 2
 234 437 l 1xb8
 229 413 l 1
 270 441 292 450 322 450 c 0
 361 450 390 434 413 401 c 1
 451 435 487 450 528 450 c 0
 593 450 634 409 634 349 c 0
 634 340 633 329 631 319 c 2
 584 100 l 1
 617 100 635 86 635 62 c 0
 635 20 604 0 557 0 c 2
 463 0 l 1
 529 311 l 2
 530 318 531 323 531 328 c 0
 531 344 522 350 502 350 c 0
 476 350 459 341 417 305 c 1
 373 100 l 1
 406 100 424 86 424 62 c 0
 424 19 390 0 346 0 c 2
 252 0 l 1
 318 311 l 2
 319 317 320 323 320 327 c 0
 320 344 311 350 291 350 c 0
 264 350 243 339 206 305 c 1
 162 100 l 1
 196 100 214 86 214 62 c 0
 214 19 181 0 136 0 c 2
 48 0 l 2
 11 0 -10 12 -10 38 c 0
 -10 79 22 100 62 100 c 1
 113 337 l 1
 80 338 62 351 62 375 c 0xd8
EndSplineSet
Validated: 1
Layer: 2
SplineSet
62 375 m 0,0,1
 62 406 62 406 84.5 421.5 c 128,-1,2
 107 437 107 437 141 437 c 2,3,-1
 234 437 l 1,4,-1
 229 413 l 1,5,6
 283 450 283 450 322 450 c 0,7,8
 379 450 379 450 413 401 c 1,9,10
 468 450 468 450 528 450 c 0,11,12
 576 450 576 450 605 422 c 128,-1,13
 634 394 634 394 634 349 c 0,14,15
 634 334 634 334 631 319 c 2,16,-1
 584 100 l 1,17,18
 635 100 635 100 635 62 c 0,19,20
 635 0 635 0 557 0 c 2,21,-1
 463 0 l 1,22,-1
 529 311 l 2,23,24
 531 325 531 325 531 328 c 0,25,26
 531 350 531 350 502 350 c 0,27,28
 482 350 482 350 465 341 c 128,-1,29
 448 332 448 332 417 305 c 1,30,-1
 373 100 l 1,31,32
 424 100 424 100 424 62 c 0,33,34
 424 31 424 31 402.5 15.5 c 128,-1,35
 381 0 381 0 346 0 c 2,36,-1
 252 0 l 1,37,-1
 318 311 l 2,38,39
 320 323 320 323 320 327 c 0,40,41
 320 350 320 350 291 350 c 0,42,43
 255 350 255 350 206 305 c 1,44,-1
 162 100 l 1,45,46
 214 100 214 100 214 62 c 0,47,48
 214 31 214 31 192.5 15.5 c 128,-1,49
 171 0 171 0 136 0 c 2,50,-1
 48 0 l 2,51,52
 -10 0 -10 0 -10 38 c 0,53,54
 -10 68 -10 68 10.5 84 c 128,-1,55
 31 100 31 100 62 100 c 1,56,-1
 113 337 l 1,57,58
 62 339 62 339 62 375 c 0,0,1
EndSplineSet
EndChar

StartChar: n
Encoding: 110 110 90
Width: 600
Flags: W
HStem: 0 100<46.6369 116 216 264.069 373.292 431 531 568.867> 350 100<336.771 460.532> 417 20G<173.5 288>
VStem: 358 225<15.4536 84.5703> 471 104<253.045 339.093>
DStem2: 94.7443 0 194.744 0 0.207912 0.978148<123.025 335.497> 409.744 0 509.744 0 0.207912 0.978148<123.025 304.926>
LayerCount: 3
Fore
SplineSet
115 375 m 0xc8
 115 420 153 437 194 437 c 2
 288 437 l 1xa8
 278 389 l 1
 336 435 373 450 428 450 c 0
 514 450 575 407 575 324 c 0xc8
 575 311 573 297 570 282 c 2
 531 100 l 1
 565 100 583 86 583 62 c 0
 583 18 549 0 505 0 c 2
 416 0 l 2
 377 0 358 12 358 37 c 0xd0
 358 78 389 100 431 100 c 1
 469 278 l 2
 471 286 471 293 471 299 c 0
 471 334 446 350 394 350 c 0
 348 350 313 333 255 282 c 1
 216 100 l 1
 222 100 l 2
 259 100 279 88 279 63 c 0
 279 19 246 0 201 0 c 2
 89 0 l 2
 53 0 32 11 32 37 c 0
 32 81 64 100 110 100 c 2
 116 100 l 1
 167 337 l 1
 134 338 115 351 115 375 c 0xc8
EndSplineSet
Validated: 1
Layer: 2
SplineSet
115 375 m 0,0,1
 115 407 115 407 137.5 422 c 128,-1,2
 160 437 160 437 194 437 c 2,3,-1
 288 437 l 1,4,-1
 278 389 l 1,5,6
 321 423 321 423 354 436.5 c 128,-1,7
 387 450 387 450 428 450 c 0,8,9
 495 450 495 450 535 417.5 c 128,-1,10
 575 385 575 385 575 324 c 0,11,12
 575 307 575 307 570 282 c 2,13,-1
 531 100 l 1,14,15
 583 100 583 100 583 62 c 0,16,17
 583 0 583 0 505 0 c 2,18,-1
 416 0 l 2,19,20
 358 0 358 0 358 37 c 0,21,22
 358 67 358 67 378 83.5 c 128,-1,23
 398 100 398 100 431 100 c 1,24,-1
 469 278 l 2,25,26
 471 286 471 286 471 299 c 0,27,28
 471 350 471 350 394 350 c 0,29,30
 359 350 359 350 328.5 335 c 128,-1,31
 298 320 298 320 255 282 c 1,32,-1
 216 100 l 1,33,-1
 222 100 l 2,34,35
 279 100 279 100 279 63 c 0,36,37
 279 0 279 0 201 0 c 2,38,-1
 89 0 l 2,39,40
 32 0 32 0 32 37 c 0,41,42
 32 100 32 100 110 100 c 2,43,-1
 116 100 l 1,44,-1
 167 337 l 1,45,46
 115 339 115 339 115 375 c 0,0,1
EndSplineSet
EndChar

StartChar: o
Encoding: 111 111 91
Width: 600
Flags: W
HStem: -16 100<235.67 408.628> 350 100<282.516 455.268>
VStem: 83 102<131.748 262.789> 507 102<175.617 302.587>
LayerCount: 3
Fore
SplineSet
83 172 m 0
 83 311 222 450 399 450 c 0
 523 450 609 370 609 263 c 0
 609 117 460 -16 297 -16 c 0
 170 -16 83 64 83 172 c 0
318 84 m 0
 426 84 507 165 507 242 c 0
 507 304 453 350 376 350 c 0
 275 350 185 279 185 192 c 0
 185 130 239 84 318 84 c 0
EndSplineSet
Validated: 1
Layer: 2
SplineSet
83 172 m 0,0,1
 83 279 83 279 176 364.5 c 128,-1,2
 269 450 269 450 399 450 c 0,3,4
 491 450 491 450 550 397 c 128,-1,5
 609 344 609 344 609 263 c 0,6,7
 609 154 609 154 514 69 c 128,-1,8
 419 -16 419 -16 297 -16 c 0,9,10
 202 -16 202 -16 142.5 37 c 128,-1,11
 83 90 83 90 83 172 c 0,0,1
318 84 m 0,12,13
 396 84 396 84 451.5 133 c 128,-1,14
 507 182 507 182 507 242 c 0,15,16
 507 289 507 289 470 319.5 c 128,-1,17
 433 350 433 350 376 350 c 0,18,19
 300 350 300 350 242.5 303.5 c 128,-1,20
 185 257 185 257 185 192 c 0,21,22
 185 145 185 145 222 114.5 c 128,-1,23
 259 84 259 84 318 84 c 0,12,13
EndSplineSet
EndChar

StartChar: p
Encoding: 112 112 92
Width: 600
Flags: W
HStem: -205 100<-27.3631 52 152 251.845> 10 100<262.291 440.211> 337 100<87.6369 146> 350 100<318.451 478.998>
VStem: 522 102<183.046 310.193>
DStem2: 30.7443 -205 130.744 -205 0.207912 0.978148<123.025 297.773 442.712 535.309>
LayerCount: 3
Fore
SplineSet
73 374 m 0xe8
 73 419 105 437 151 437 c 2
 267 437 l 1xe8
 257 392 l 1
 315 434 361 450 423 450 c 0xd8
 545 450 624 376 624 272 c 0
 624 115 481 10 331 10 c 0
 272 10 231 26 188 66 c 1
 152 -105 l 1
 210 -105 l 2
 248 -105 267 -116 267 -141 c 0
 267 -185 234 -205 188 -205 c 2
 14 -205 l 2
 -22 -205 -42 -194 -42 -168 c 0
 -42 -123 -10 -105 36 -105 c 2
 52 -105 l 1
 146 337 l 1
 130 337 l 2
 93 337 73 349 73 374 c 0xe8
522 250 m 0
 522 294 493 350 397 350 c 0xd8
 281 350 232 272 223 231 c 0
 221 223 220 215 220 207 c 0
 220 149 268 110 346 110 c 0
 434 110 522 165 522 250 c 0
EndSplineSet
Validated: 1
Layer: 2
SplineSet
73 374 m 0,0,1
 73 437 73 437 151 437 c 2,2,-1
 267 437 l 1,3,-1
 257 392 l 1,4,5
 337 450 337 450 423 450 c 0,6,7
 514 450 514 450 569 400.5 c 128,-1,8
 624 351 624 351 624 272 c 0,9,10
 624 158 624 158 536 84 c 128,-1,11
 448 10 448 10 331 10 c 0,12,13
 248 10 248 10 188 66 c 1,14,-1
 152 -105 l 1,15,-1
 210 -105 l 2,16,17
 267 -105 267 -105 267 -141 c 0,18,19
 267 -173 267 -173 245.5 -189 c 128,-1,20
 224 -205 224 -205 188 -205 c 2,21,-1
 14 -205 l 2,22,23
 -42 -205 -42 -205 -42 -168 c 0,24,25
 -42 -105 -42 -105 36 -105 c 2,26,-1
 52 -105 l 1,27,-1
 146 337 l 1,28,-1
 130 337 l 2,29,30
 73 337 73 337 73 374 c 0,0,1
522 250 m 0,31,32
 522 290 522 290 492 320 c 128,-1,33
 462 350 462 350 397 350 c 0,34,35
 320 350 320 350 276 311.5 c 128,-1,36
 232 273 232 273 223 231 c 0,37,38
 220 219 220 219 220 207 c 0,39,40
 220 163 220 163 254 136.5 c 128,-1,41
 288 110 288 110 346 110 c 0,42,43
 415 110 415 110 468.5 149.5 c 128,-1,44
 522 189 522 189 522 250 c 0,31,32
EndSplineSet
EndChar

StartChar: q
Encoding: 113 113 93
Width: 600
Flags: W
HStem: -205 100<287.637 409 509 566.845> 10 100<221.567 381.586> 337 100<603 682.363> 350 100<262.814 439.131>
VStem: 76 104<148.923 277.159>
DStem2: 387.744 -205 487.744 -205 0.207912 0.978148<123.025 276.982 374.753 467.222>
LayerCount: 3
Fore
SplineSet
273 -168 m 0xe8
 273 -124 305 -105 351 -105 c 2
 409 -105 l 1
 445 66 l 1
 384 26 336 10 277 10 c 0
 155 10 76 80 76 180 c 0
 76 340 227 450 373 450 c 0xd8
 436 450 474 434 514 392 c 1
 524 437 l 1
 640 437 l 2
 678 437 697 426 697 401 c 0
 697 356 665 337 619 337 c 2
 603 337 l 1
 509 -105 l 1
 525 -105 l 2
 563 -105 582 -116 582 -141 c 0
 582 -185 549 -205 503 -205 c 2
 329 -205 l 2
 293 -205 273 -194 273 -168 c 0xe8
305 110 m 0
 421 110 471 188 480 229 c 0
 482 237 482 245 482 253 c 0
 482 311 433 350 355 350 c 0
 242 350 180 275 180 210 c 0
 180 167 207 110 305 110 c 0
EndSplineSet
Validated: 1
Layer: 2
SplineSet
273 -168 m 0,0,1
 273 -105 273 -105 351 -105 c 2,2,-1
 409 -105 l 1,3,-1
 445 66 l 1,4,5
 360 10 360 10 277 10 c 0,6,7
 186 10 186 10 131 57 c 128,-1,8
 76 104 76 104 76 180 c 0,9,10
 76 295 76 295 167 372.5 c 128,-1,11
 258 450 258 450 373 450 c 0,12,13
 420 450 420 450 452 437 c 128,-1,14
 484 424 484 424 514 392 c 1,15,-1
 524 437 l 1,16,-1
 640 437 l 2,17,18
 697 437 697 437 697 401 c 0,19,20
 697 337 697 337 619 337 c 2,21,-1
 603 337 l 1,22,-1
 509 -105 l 1,23,-1
 525 -105 l 2,24,25
 582 -105 582 -105 582 -141 c 0,26,27
 582 -173 582 -173 560.5 -189 c 128,-1,28
 539 -205 539 -205 503 -205 c 2,29,-1
 329 -205 l 2,30,31
 273 -205 273 -205 273 -168 c 0,0,1
305 110 m 0,32,33
 382 110 382 110 426.5 149 c 128,-1,34
 471 188 471 188 480 229 c 0,35,36
 482 237 482 237 482 253 c 0,37,38
 482 297 482 297 447.5 323.5 c 128,-1,39
 413 350 413 350 355 350 c 0,40,41
 275 350 275 350 227.5 306.5 c 128,-1,42
 180 263 180 263 180 210 c 0,43,44
 180 170 180 170 209.5 140 c 128,-1,45
 239 110 239 110 305 110 c 0,32,33
EndSplineSet
EndChar

StartChar: r
Encoding: 114 114 94
Width: 600
Flags: W
HStem: 0 100<77.3429 199 299 481.296> 337 100<173.426 250> 349 100<454.114 555.938>
DStem2: 177.744 0 277.744 0 0.207912 0.978148<123.025 295.592>
LayerCount: 3
Fore
SplineSet
649 373 m 0xa0
 649 339 616 313 588 313 c 0
 551 313 554 349 517 349 c 0xa0
 485 349 443 325 331 247 c 1
 299 100 l 1
 438 100 l 2
 476 100 496 89 496 63 c 0
 496 18 464 0 417 0 c 2
 120 0 l 2
 84 0 63 11 63 37 c 0
 63 81 94 100 141 100 c 2
 199 100 l 1
 250 337 l 1
 215 337 l 2
 179 337 158 349 158 374 c 0
 158 415 189 437 236 437 c 2
 371 437 l 1xc0
 357 372 l 1
 450 432 491 449 540 449 c 0
 580 449 649 418 649 373 c 0xa0
EndSplineSet
Validated: 1
Layer: 2
SplineSet
649 373 m 0,0,1
 649 349 649 349 629.5 331 c 128,-1,2
 610 313 610 313 588 313 c 0,3,4
 570 313 570 313 553 331 c 128,-1,5
 536 349 536 349 517 349 c 0,6,7
 493 349 493 349 454.5 327.5 c 128,-1,8
 416 306 416 306 331 247 c 1,9,-1
 299 100 l 1,10,-1
 438 100 l 2,11,12
 496 100 496 100 496 63 c 0,13,14
 496 0 496 0 417 0 c 2,15,-1
 120 0 l 2,16,17
 63 0 63 0 63 37 c 0,18,19
 63 100 63 100 141 100 c 2,20,-1
 199 100 l 1,21,-1
 250 337 l 1,22,-1
 215 337 l 2,23,24
 158 337 158 337 158 374 c 0,25,26
 158 404 158 404 179 420.5 c 128,-1,27
 200 437 200 437 236 437 c 2,28,-1
 371 437 l 1,29,-1
 357 372 l 1,30,31
 427 417 427 417 465 433 c 128,-1,32
 503 449 503 449 540 449 c 0,33,34
 574 449 574 449 611.5 426.5 c 128,-1,35
 649 404 649 404 649 373 c 0,0,1
EndSplineSet
EndChar

StartChar: s
Encoding: 115 115 95
Width: 600
Flags: W
HStem: -16 100<221.758 422.399> 1 21G<109.5 130.5> 350 100<281.652 462.046>
VStem: 155 114<255.5 333.691> 445 112<106.75 158.452>
LayerCount: 3
Fore
SplineSet
318 84 m 0xb8
 383 84 445 103 445 132 c 0
 445 169 357 176 329 179 c 0
 209 192 155 225 155 286 c 0
 155 383 268 450 394 450 c 0
 443 450 482 442 517 424 c 1
 529 443 540 450 555 450 c 0
 579 450 591 438 591 412 c 0
 591 404 590 395 588 384 c 2
 580 347 l 2
 571 304 551 281 516 281 c 0
 490 281 480 298 472 321 c 1
 448 341 417 350 375 350 c 0
 323 350 269 334 269 311 c 0
 269 289 313 285 366 277 c 0
 457 263 557 245 557 154 c 0
 557 51 438 -16 301 -16 c 0xb8
 244 -16 195 -6 159 13 c 1
 146 4 137 1 124 1 c 0x78
 95 1 84 16 84 41 c 0
 84 49 85 57 87 67 c 2
 94 100 l 2
 103 144 124 167 159 167 c 0
 185 167 198 153 201 123 c 1
 224 97 264 84 318 84 c 0xb8
EndSplineSet
Validated: 1
Layer: 2
SplineSet
318 84 m 0,0,1
 369 84 369 84 407 97.5 c 128,-1,2
 445 111 445 111 445 132 c 0,3,4
 445 167 445 167 329 179 c 0,5,6
 239 189 239 189 197 214.5 c 128,-1,7
 155 240 155 240 155 286 c 0,8,9
 155 357 155 357 226 403.5 c 128,-1,10
 297 450 297 450 394 450 c 0,11,12
 466 450 466 450 517 424 c 1,13,14
 533 450 533 450 555 450 c 0,15,16
 591 450 591 450 591 412 c 0,17,18
 591 400 591 400 588 384 c 2,19,-1
 580 347 l 2,20,21
 566 281 566 281 516 281 c 0,22,23
 486 281 486 281 472 321 c 1,24,25
 437 350 437 350 375 350 c 0,26,27
 334 350 334 350 301.5 339 c 128,-1,28
 269 328 269 328 269 311 c 0,29,30
 269 298 269 298 289 291.5 c 128,-1,31
 309 285 309 285 350.540019636 279.282298057 c 0,32,33
 354 279 354 279 356 278.5 c 128,-1,34
 358 278 358 278 361 277.5 c 128,-1,35
 364 277 364 277 366 277 c 0,36,37
 401 272 401 272 422 267.5 c 128,-1,38
 443 263 443 263 472 253.5 c 128,-1,39
 501 244 501 244 517 232.5 c 128,-1,40
 533 221 533 221 545 200.5 c 128,-1,41
 557 180 557 180 557 154 c 0,42,43
 557 79 557 79 482 31.5 c 128,-1,44
 407 -16 407 -16 301 -16 c 0,45,46
 214 -16 214 -16 159 13 c 1,47,48
 142 1 142 1 124 1 c 0,49,50
 84 1 84 1 84 41 c 0,51,52
 84 52 84 52 87 67 c 2,53,-1
 94 100 l 2,54,55
 108 167 108 167 159 167 c 0,56,57
 197 167 197 167 201 123 c 1,58,59
 236 84 236 84 318 84 c 0,0,1
EndSplineSet
EndChar

StartChar: t
Encoding: 116 116 96
Width: 600
Flags: W
HStem: -16 100<246.312 430.577> 24 105<445.35 525.649> 337 100<108.343 186 307 530.363> 571 20G<272 303.5>
VStem: 137 105<89.7444 208.859>
DStem2: 110.667 -16 210.629 -16 0.207912 0.978148<161.587 360.949 483.921 600.614>
LayerCount: 3
Fore
SplineSet
545 400 m 0xb8
 545 355 513 337 467 337 c 2
 286 337 l 1
 244 141 l 2
 242 133 242 127 242 121 c 0
 242 88 269 84 318 84 c 0xb8
 430 84 475 129 508 129 c 0
 531 129 547 112 547 89 c 0
 547 55 528 42 484 24 c 0x78
 430 1 348 -16 296 -16 c 0
 195 -16 137 25 137 93 c 0
 137 102 138 112 140 122 c 2
 186 337 l 1
 151 337 l 2
 115 337 94 348 94 374 c 0
 94 418 125 437 172 437 c 2
 207 437 l 1
 226 525 l 2
 235 567 254 591 290 591 c 0
 317 591 329 578 329 552 c 0
 329 544 328 535 326 525 c 2
 307 437 l 1
 488 437 l 2
 525 437 545 425 545 400 c 0xb8
EndSplineSet
Validated: 1
Layer: 2
SplineSet
545 400 m 0,0,1
 545 337 545 337 467 337 c 2,2,-1
 286 337 l 1,3,-1
 244 141 l 2,4,5
 242 133 242 133 242 121 c 0,6,7
 242 98 242 98 259.5 91 c 128,-1,8
 277 84 277 84 318 84 c 0,9,10
 367 84 367 84 407 95 c 128,-1,11
 447 106 447 106 471.5 117.5 c 128,-1,12
 496 129 496 129 508 129 c 0,13,14
 525 129 525 129 536 117.5 c 128,-1,15
 547 106 547 106 547 89 c 0,16,17
 547 65 547 65 533 51.5 c 128,-1,18
 519 38 519 38 484 24 c 0,19,20
 444 7 444 7 389.5 -4.5 c 128,-1,21
 335 -16 335 -16 296 -16 c 0,22,23
 221 -16 221 -16 179 13 c 128,-1,24
 137 42 137 42 137 93 c 0,25,26
 137 107 137 107 140 122 c 2,27,-1
 186 337 l 1,28,-1
 151 337 l 2,29,30
 94 337 94 337 94 374 c 0,31,32
 94 437 94 437 172 437 c 2,33,-1
 207 437 l 1,34,-1
 226 525 l 2,35,36
 240 591 240 591 290 591 c 0,37,38
 329 591 329 591 329 552 c 0,39,40
 329 540 329 540 326 525 c 2,41,-1
 307 437 l 1,42,-1
 488 437 l 2,43,44
 545 437 545 437 545 400 c 0,0,1
EndSplineSet
EndChar

StartChar: u
Encoding: 117 117 97
Width: 600
Flags: W
HStem: -13 100<234.654 360.744> 0 21G<410 527.5> 337 100<107.854 167 403.925 482>
VStem: 123 103<98.0718 184.795>
DStem2: 92.0779 -13 192.44 -13 0.207912 0.978148<175.82 357.929> 407.29 -13 506.981 -13 0.207912 0.978148<146.212 357.885>
LayerCount: 3
Fore
SplineSet
583 62 m 0xb0
 583 19 550 0 505 0 c 2
 410 0 l 1x70
 420 48 l 1
 360 1 325 -13 270 -13 c 0
 182 -13 123 31 123 113 c 0
 123 126 125 141 128 156 c 2
 167 337 l 1
 140 337 l 2
 111 337 94 353 94 376 c 0
 94 419 127 437 172 437 c 2
 288 437 l 1
 229 159 l 2
 227 151 226 144 226 138 c 0
 226 103 250 87 301 87 c 0
 351 87 379 100 443 155 c 1
 482 337 l 1
 447 337 l 2
 413 337 390 350 390 376 c 0
 390 419 423 437 468 437 c 2
 603 437 l 1
 531 100 l 1
 565 100 583 86 583 62 c 0xb0
EndSplineSet
Validated: 1
Layer: 2
SplineSet
583 62 m 0,0,1
 583 31 583 31 561.5 15.5 c 128,-1,2
 540 0 540 0 505 0 c 2,3,-1
 410 0 l 1,4,-1
 420 48 l 1,5,6
 375 13 375 13 343 0 c 128,-1,7
 311 -13 311 -13 270 -13 c 0,8,9
 203 -13 203 -13 163 20 c 128,-1,10
 123 53 123 53 123 113 c 0,11,12
 123 131 123 131 128 156 c 2,13,-1
 167 337 l 1,14,-1
 140 337 l 2,15,16
 119 337 119 337 106.5 347.5 c 128,-1,17
 94 358 94 358 94 376 c 0,18,19
 94 437 94 437 172 437 c 2,20,-1
 288 437 l 1,21,-1
 229 159 l 2,22,23
 226 147 226 147 226 138 c 0,24,25
 226 87 226 87 301 87 c 0,26,27
 339 87 339 87 367 100.5 c 128,-1,28
 395 114 395 114 443 155 c 1,29,-1
 482 337 l 1,30,-1
 447 337 l 2,31,32
 390 337 390 337 390 376 c 0,33,34
 390 437 390 437 468 437 c 2,35,-1
 603 437 l 1,36,-1
 531 100 l 1,37,38
 583 100 583 100 583 62 c 0,0,1
EndSplineSet
EndChar

StartChar: v
Encoding: 118 118 98
Width: 600
Flags: W
HStem: 0 21G<241.362 365.184> 337 100<95.6369 152 265 333.29 428.655 481 590 669.363>
DStem2: 265 337 152 337 0.271324 -0.962488<0 224.028> 328 122 351 0 0.578487 0.815691<0 263.882>
LayerCount: 3
Fore
SplineSet
348 400 m 0
 348 353 313 337 265 337 c 1
 328 122 l 1
 481 337 l 1
 439 337 414 344 414 373 c 0
 414 418 446 437 492 437 c 2
 627 437 l 2
 664 437 684 425 684 400 c 0
 684 355 652 337 606 337 c 2
 590 337 l 1
 351 0 l 1
 247 0 l 1
 152 337 l 1
 138 337 l 2
 101 337 81 349 81 374 c 0
 81 419 113 437 159 437 c 2
 291 437 l 2
 328 437 348 425 348 400 c 0
EndSplineSet
Validated: 1
Layer: 2
SplineSet
348 400 m 0,0,1
 348 337 348 337 265 337 c 1,2,-1
 328 122 l 1,3,-1
 481 337 l 1,4,5
 447 337 447 337 430.5 344.5 c 128,-1,6
 414 352 414 352 414 373 c 0,7,8
 414 437 414 437 492 437 c 2,9,-1
 627 437 l 2,10,11
 684 437 684 437 684 400 c 0,12,13
 684 337 684 337 606 337 c 2,14,-1
 590 337 l 1,15,-1
 351 0 l 1,16,-1
 247 0 l 1,17,-1
 152 337 l 1,18,-1
 138 337 l 2,19,20
 81 337 81 337 81 374 c 0,21,22
 81 437 81 437 159 437 c 2,23,-1
 291 437 l 2,24,25
 348 437 348 437 348 400 c 0,0,1
EndSplineSet
EndChar

StartChar: w
Encoding: 119 119 99
Width: 600
Flags: W
HStem: 0 21G<138.231 244.713 368.354 473.231> 338 99<96.4633 126 232 295.102 471.983 520 620 669.597>
VStem: 81 227<352.5 420.957> 126 112<185 338> 456 228<352.172 420.5>
DStem2: 447 185 464 0 0.419058 0.907959<0 169.509>
LayerCount: 3
Fore
SplineSet
456 374 m 0xd8
 456 414 486 437 534 437 c 2
 627 437 l 2
 664 437 684 425 684 400 c 0
 684 362 656 338 620 338 c 1
 464 0 l 1
 372 0 l 1
 339 181 l 1
 233 0 l 1
 139 0 l 1
 126 338 l 1xd8
 97 338 81 353 81 375 c 0
 81 420 119 437 159 437 c 2
 251 437 l 2
 288 437 308 425 308 400 c 0xe8
 308 356 278 338 232 338 c 1
 238 185 l 1
 332 343 l 1
 420 343 l 1
 447 185 l 1
 520 338 l 1
 480 338 456 347 456 374 c 0xd8
EndSplineSet
Validated: 1
Layer: 2
SplineSet
456 374 m 0,0,1
 456 404 456 404 477 420.5 c 128,-1,2
 498 437 498 437 534 437 c 2,3,-1
 627 437 l 2,4,5
 684 437 684 437 684 400 c 0,6,7
 684 372 684 372 666 355 c 128,-1,8
 648 338 648 338 620 338 c 1,9,-1
 464 0 l 1,10,-1
 372 0 l 1,11,-1
 339 181 l 1,12,-1
 233 0 l 1,13,-1
 139 0 l 1,14,-1
 126 338 l 1,15,16
 105 338 105 338 93 348 c 128,-1,17
 81 358 81 358 81 375 c 0,18,19
 81 407 81 407 103.5 422 c 128,-1,20
 126 437 126 437 159 437 c 2,21,-1
 251 437 l 2,22,23
 308 437 308 437 308 400 c 0,24,25
 308 338 308 338 232 338 c 1,26,-1
 238 185 l 1,27,-1
 332 343 l 1,28,-1
 420 343 l 1,29,-1
 447 185 l 1,30,-1
 520 338 l 1,31,32
 456 338 456 338 456 374 c 0,0,1
EndSplineSet
EndChar

StartChar: x
Encoding: 120 120 100
Width: 600
Flags: W
HStem: 0 100<45.6966 96 546 577.135> 337 100<136.446 164 577 625.608>
VStem: 121 226<352.909 420.924> 415 226<353.213 420.547>
DStem2: 268 228 247 100 0.811123 0.584875<-91.8976 0 123.517 201.096>
LayerCount: 3
Fore
SplineSet
415 375 m 0
 415 399 431 437 493 437 c 2
 584 437 l 2
 605 437 641 437 641 398 c 0
 641 382 632 342 577 337 c 1
 421 227 l 1
 546 100 l 1
 575 100 591 85 591 62 c 0
 591 18 558 0 513 0 c 2
 401 0 l 2
 375 0 343 3 343 39 c 0
 343 63 360 91 395 100 c 1
 333 161 l 1
 247 100 l 1
 268 90 277 80 277 64 c 0
 277 44 267 0 198 0 c 2
 87 0 l 2
 49 0 31 13 31 37 c 0
 31 57 41 97 96 100 c 1
 268 228 l 1
 164 337 l 1
 136 337 121 353 121 375 c 0
 121 400 136 437 199 437 c 2
 291 437 l 2
 330 437 347 428 347 398 c 0
 347 387 342 360 311 342 c 1
 361 293 l 1
 433 343 l 1
 420 353 415 363 415 375 c 0
EndSplineSet
Validated: 1
Layer: 2
SplineSet
415 375 m 0,0,1
 415 398 415 398 433 417.5 c 128,-1,2
 451 437 451 437 493 437 c 2,3,-1
 584 437 l 2,4,5
 600 437 600 437 609.5 436 c 128,-1,6
 619 435 619 435 630 425.5 c 128,-1,7
 641 416 641 416 641 398 c 0,8,9
 641 387 641 387 637 375.5 c 128,-1,10
 633 364 633 364 617.5 351.5 c 128,-1,11
 602 339 602 339 577 337 c 1,12,-1
 421 227 l 1,13,-1
 546 100 l 1,14,15
 591 100 591 100 591 62 c 0,16,17
 591 0 591 0 513 0 c 2,18,-1
 401 0 l 2,19,20
 343 0 343 0 343 39 c 0,21,22
 343 59 343 59 356.5 76.5 c 128,-1,23
 370 94 370 94 395 100 c 1,24,-1
 333 161 l 1,25,-1
 247 100 l 1,26,27
 277 86 277 86 277 64 c 0,28,29
 277 51 277 51 272.5 38 c 128,-1,30
 268 25 268 25 249 12.5 c 128,-1,31
 230 0 230 0 198 0 c 2,32,-1
 87 0 l 2,33,34
 31 0 31 0 31 37 c 0,35,36
 31 59 31 59 45.5 78.5 c 128,-1,37
 60 98 60 98 96 100 c 1,38,-1
 268 228 l 1,39,-1
 164 337 l 1,40,41
 144 337 144 337 132.5 347.5 c 128,-1,42
 121 358 121 358 121 375 c 0,43,44
 121 399 121 399 139 418 c 128,-1,45
 157 437 157 437 199 437 c 2,46,-1
 291 437 l 2,47,48
 321 437 321 437 334 428.5 c 128,-1,49
 347 420 347 420 347 398 c 0,50,51
 347 363 347 363 311 342 c 1,52,-1
 361 293 l 1,53,-1
 433 343 l 1,54,55
 415 357 415 357 415 375 c 0,0,1
EndSplineSet
EndChar

StartChar: y
Encoding: 121 121 101
Width: 600
Flags: W
HStem: -205 100<0.854507 165 275 322.002> 337 100<118.401 142 256 311.365 450.309 490 599 647.614>
VStem: 102 225<352.893 420.013> 435 228<351.713 420.957>
DStem2: 256 337 142 337 0.289451 -0.957193<0 232.558> 165 -105 275 -105 0.59239 0.805651<65.163 133.217 269.443 548.625>
LayerCount: 3
Fore
SplineSet
435 375 m 0
 435 420 473 437 514 437 c 2
 606 437 l 2
 644 437 663 426 663 401 c 0
 663 363 635 337 599 337 c 1
 275 -105 l 1
 314 -105 337 -115 337 -142 c 0
 337 -186 304 -205 258 -205 c 2
 43 -205 l 2
 10 -205 -13 -194 -13 -167 c 0
 -13 -123 20 -105 65 -105 c 2
 165 -105 l 1
 243 3 l 1
 142 337 l 1
 116 337 102 352 102 374 c 0
 102 418 140 437 180 437 c 2
 270 437 l 2
 307 437 327 425 327 400 c 0
 327 360 297 338 256 337 c 1
 322 114 l 1
 490 337 l 1
 454 337 435 351 435 375 c 0
EndSplineSet
Validated: 1
Layer: 2
SplineSet
435 375 m 0,0,1
 435 407 435 407 457.5 422 c 128,-1,2
 480 437 480 437 514 437 c 2,3,-1
 606 437 l 2,4,5
 663 437 663 437 663 401 c 0,6,7
 663 373 663 373 644.5 355 c 128,-1,8
 626 337 626 337 599 337 c 1,9,-1
 275 -105 l 1,10,11
 337 -105 337 -105 337 -142 c 0,12,13
 337 -205 337 -205 258 -205 c 2,14,-1
 43 -205 l 2,15,16
 -13 -205 -13 -205 -13 -167 c 0,17,18
 -13 -105 -13 -105 65 -105 c 2,19,-1
 165 -105 l 1,20,-1
 243 3 l 1,21,-1
 142 337 l 1,22,23
 102 337 102 337 102 374 c 0,24,25
 102 405 102 405 124.5 421 c 128,-1,26
 147 437 147 437 180 437 c 2,27,-1
 270 437 l 2,28,29
 327 437 327 437 327 400 c 0,30,31
 327 371 327 371 307.5 354.5 c 128,-1,32
 288 338 288 338 256 337 c 1,33,-1
 322 114 l 1,34,-1
 490 337 l 1,35,36
 435 337 435 337 435 375 c 0,0,1
EndSplineSet
EndChar

StartChar: z
Encoding: 122 122 102
Width: 600
Flags: W
HStem: 0 154<456.102 519> 0 100<265 448.957> 337 100<264.085 418>
VStem: 163 106<283.885 336.516>
DStem2: 103 83 265 100 0.777987 0.62828<136.715 404.649>
LayerCount: 3
Fore
SplineSet
269 337 m 1x70
 267 330 259 262 203 262 c 0
 181 262 163 277 163 299 c 0
 163 306 164 315 167 328 c 2
 190 437 l 1
 599 437 l 1
 582 356 l 1
 265 100 l 1
 440 100 l 1x70
 450 135 472 154 502 154 c 0
 533 154 542 129 542 118 c 0
 542 112 541 103 538 88 c 2
 519 0 l 1xb0
 85 0 l 1
 103 83 l 1
 418 337 l 1
 269 337 l 1x70
EndSplineSet
Validated: 1
Layer: 2
SplineSet
269 337 m 1,0,1
 267.5 331 l 2,2,3
 266 325 266 325 264.5 319 c 128,-1,4
 263 313 263 313 260 304.5 c 128,-1,5
 257 296 257 296 252 289 c 128,-1,6
 247 282 247 282 240.5 275.5 c 128,-1,7
 234 269 234 269 224 265.5 c 128,-1,8
 214 262 214 262 203 262 c 0,9,10
 186 262 186 262 174.5 272.5 c 128,-1,11
 163 283 163 283 163 299 c 0,12,13
 163 311 163 311 167 328 c 2,14,-1
 190 437 l 1,15,-1
 599 437 l 1,16,-1
 582 356 l 1,17,-1
 265 100 l 1,18,-1
 440 100 l 1,19,20
 455 154 455 154 502 154 c 0,21,22
 522 154 522 154 532 142 c 128,-1,23
 542 130 542 130 542 118 c 0,24,25
 542 108 542 108 538 88 c 2,26,-1
 519 0 l 1,27,-1
 85 0 l 1,28,-1
 103 83 l 1,29,-1
 418 337 l 1,30,-1
 269 337 l 1,0,1
EndSplineSet
EndChar

StartChar: braceleft
Encoding: 123 123 103
Width: 600
Flags: W
HStem: -153 101<343.006 396.326> 522 101<457.625 539.138>
VStem: 240 103<-50.8588 65.2266> 282 103<71.7344 201.5>
DStem2: 215.155 -153 315.667 -153 0.207912 0.978148<146.144 328.631 450.101 713.251>
LayerCount: 3
Fore
SplineSet
282 169 m 0xd0
 282 204 217 172 217 227 c 0
 217 243 225 285 278 290 c 0
 304 293 312 301 318 328 c 2
 353 492 l 2
 368 563 440 623 509 623 c 0
 539 623 556 608 556 584 c 0
 556 558 534 525 495 522 c 1
 467 521 457 512 451 485 c 2
 418 328 l 2
 409 285 399 268 370 240 c 1
 380 223 385 210 385 193 c 0xd0
 385 180 383 164 378 142 c 2
 345 -15 l 2
 344 -21 343 -26 343 -31 c 0
 343 -45 351 -50 373 -52 c 0
 398 -54 412 -69 412 -91 c 0
 412 -128 381 -153 345 -153 c 0
 284 -153 240 -107 240 -48 c 0xe0
 240 -40 241 -31 243 -22 c 2
 280 151 l 2
 282 158 282 164 282 169 c 0xd0
EndSplineSet
Validated: 1
Layer: 2
SplineSet
282 169 m 128,-1,1
 282 180 282 180 272 185 c 128,-1,2
 262 190 262 190 249.5 190.5 c 128,-1,3
 237 191 237 191 227 199.5 c 128,-1,4
 217 208 217 208 217 227 c 128,-1,5
 217 246 217 246 230 266.5 c 128,-1,6
 243 287 243 287 278 290 c 0,7,8
 297 292 297 292 305 300 c 128,-1,9
 313 308 313 308 318 328 c 2,10,-1
 353 492 l 2,11,12
 364 545 364 545 410.5 584 c 128,-1,13
 457 623 457 623 509 623 c 0,14,15
 556 623 556 623 556 584 c 0,16,17
 556 563 556 563 539 543.5 c 128,-1,18
 522 524 522 524 495 522 c 0,19,20
 474 521 474 521 465 513 c 128,-1,21
 456 505 456 505 451 485 c 2,22,-1
 418 328 l 2,23,24
 411 296 411 296 401.5 278.5 c 128,-1,25
 392 261 392 261 370 240 c 1,26,27
 385 214 385 214 385 193 c 0,28,29
 385 173 385 173 378 142 c 2,30,-1
 345 -15 l 2,31,32
 343 -27 343 -27 343 -31 c 0,33,34
 343 -49 343 -49 373 -52 c 0,35,36
 412 -55 412 -55 412 -91 c 0,37,38
 412 -118 412 -118 392.5 -135.5 c 128,-1,39
 373 -153 373 -153 345 -153 c 0,40,41
 300 -153 300 -153 270 -123 c 128,-1,42
 240 -93 240 -93 240 -48 c 0,43,44
 240 -36 240 -36 243 -22 c 2,45,-1
 280 151 l 2,46,0
 282 158 282 158 282 169 c 128,-1,1
EndSplineSet
EndChar

StartChar: bar
Encoding: 124 124 104
Width: 600
Flags: W
HStem: 602 20G<414.5 445.5>
VStem: 228 243
DStem2: 217.971 -153 317.971 -153 0.207912 0.978148<41.5781 771.179>
LayerCount: 3
Fore
SplineSet
468 556 m 2
 332 -87 l 2
 323 -129 302 -153 267 -153 c 0
 241 -153 228 -139 228 -113 c 0
 228 -105 230 -97 232 -87 c 2
 368 556 l 2
 377 599 397 622 432 622 c 0
 459 622 471 608 471 582 c 0
 471 574 470 566 468 556 c 2
EndSplineSet
Validated: 1
Layer: 2
SplineSet
468 556 m 2,0,-1
 332 -87 l 2,1,2
 318 -153 318 -153 267 -153 c 0,3,4
 228 -153 228 -153 228 -113 c 0,5,6
 228 -107 228 -107 232 -87 c 2,7,-1
 368 556 l 2,8,9
 382 622 382 622 432 622 c 0,10,11
 471 622 471 622 471 582 c 0,12,13
 471 571 471 571 468 556 c 2,0,-1
EndSplineSet
EndChar

StartChar: braceright
Encoding: 125 125 105
Width: 600
Flags: W
HStem: -153 101<160.08 241.531> 522 101<303.909 356.848>
VStem: 315 103<268.5 398.266> 357 103<404.773 520.859>
DStem2: 219.667 -153 319.155 -153 0.207912 0.978148<100.893 364.075 485.545 668.032>
LayerCount: 3
Fore
SplineSet
418 301 m 0xe0
 418 266 483 298 483 243 c 0
 483 227 475 185 422 180 c 0
 396 177 388 169 382 142 c 2
 347 -22 l 2
 332 -93 259 -153 190 -153 c 0
 161 -153 144 -138 144 -114 c 0
 144 -85 169 -54 205 -52 c 0
 233 -51 243 -42 249 -15 c 2
 282 142 l 2
 291 185 301 202 330 230 c 1
 320 247 315 260 315 277 c 0xe0
 315 290 317 306 322 328 c 2
 355 485 l 2
 356 491 357 496 357 501 c 0
 357 515 349 520 327 522 c 0
 302 524 288 539 288 561 c 0
 288 596 317 623 354 623 c 0
 415 623 460 577 460 518 c 0xd0
 460 509 459 501 457 492 c 2
 420 319 l 2
 418 312 418 306 418 301 c 0xe0
EndSplineSet
Validated: 1
Layer: 2
SplineSet
418 301 m 128,-1,1
 418 290 418 290 428 285 c 128,-1,2
 438 280 438 280 450.5 279.5 c 128,-1,3
 463 279 463 279 473 270.5 c 128,-1,4
 483 262 483 262 483 243 c 128,-1,5
 483 224 483 224 470 203.5 c 128,-1,6
 457 183 457 183 422 180 c 0,7,8
 403 178 403 178 395 170 c 128,-1,9
 387 162 387 162 382 142 c 2,10,-1
 347 -22 l 2,11,12
 336 -75 336 -75 289 -114 c 128,-1,13
 242 -153 242 -153 190 -153 c 0,14,15
 144 -153 144 -153 144 -114 c 0,16,17
 144 -91 144 -91 161.5 -72 c 128,-1,18
 179 -53 179 -53 205 -52 c 0,19,20
 226 -51 226 -51 235 -43 c 128,-1,21
 244 -35 244 -35 249 -15 c 2,22,-1
 282 142 l 2,23,24
 289 174 289 174 298.5 191.5 c 128,-1,25
 308 209 308 209 330 230 c 1,26,27
 315 256 315 256 315 277 c 0,28,29
 315 297 315 297 322 328 c 2,30,-1
 355 485 l 2,31,32
 357 497 357 497 357 501 c 0,33,34
 357 519 357 519 327 522 c 0,35,36
 288 525 288 525 288 561 c 0,37,38
 288 587 288 587 307 605 c 128,-1,39
 326 623 326 623 354 623 c 0,40,41
 400 623 400 623 430 592.5 c 128,-1,42
 460 562 460 562 460 518 c 0,43,44
 460 506 460 506 457 492 c 2,45,-1
 420 319 l 2,46,0
 418 312 418 312 418 301 c 128,-1,1
EndSplineSet
EndChar

StartChar: asciitilde
Encoding: 126 126 106
Width: 600
Flags: W
HStem: 179 105<416.929 482.854> 281 104<238.243 302.992>
LayerCount: 3
Fore
SplineSet
295 385 m 0x40
 384 385 411 284 449 284 c 0
 479 284 524 364 565 364 c 0
 589 364 606 346 606 324 c 0
 606 277 496 179 429 179 c 0x80
 347 179 301 281 272 281 c 0
 243 281 199 201 156 201 c 0
 132 201 115 219 115 242 c 0
 115 289 220 385 295 385 c 0x40
EndSplineSet
Validated: 1
Layer: 2
SplineSet
295 385 m 0,0,1
 325 385 325 385 351 369 c 128,-1,2
 377 353 377 353 391.5 334.5 c 128,-1,3
 406 316 406 316 421.5 300 c 128,-1,4
 437 284 437 284 449 284 c 0,5,6
 463 284 463 284 503 324 c 128,-1,7
 543 364 543 364 565 364 c 0,8,9
 583 364 583 364 594.5 352.5 c 128,-1,10
 606 341 606 341 606 324 c 0,11,12
 606 288 606 288 542 233.5 c 128,-1,13
 478 179 478 179 429 179 c 0,14,15
 393 179 393 179 360.5 204.5 c 128,-1,16
 328 230 328 230 305.5 255.5 c 128,-1,17
 283 281 283 281 272 281 c 0,18,19
 259 281 259 281 219 241 c 128,-1,20
 179 201 179 201 156 201 c 0,21,22
 138 201 138 201 126.5 213 c 128,-1,23
 115 225 115 225 115 242 c 0,24,25
 115 279 115 279 178 332 c 128,-1,26
 241 385 241 385 295 385 c 0,0,1
EndSplineSet
EndChar

StartChar: exclamdown
Encoding: 161 161 108
Width: 600
Flags: W
HStem: 294 132<328.717 425.33>
VStem: 187 168<-182.723 -81.5156> 290 99<160.402 218.329> 300 153<322.514 397.89>
LayerCount: 3
Fore
SplineSet
187 -166 m 0xc0
 187 -151 191 -134 198 -114 c 2
 290 183 l 2
 299 214 321 232 349 232 c 0
 375 232 389 216 389 190 c 2
 389 183 l 1xa0
 355 -114 l 2
 348 -179 317 -227 252 -227 c 0
 212 -227 187 -202 187 -166 c 0xc0
300 346 m 0x90
 300 390 341 426 383 426 c 2
 400 426 l 2
 432 426 453 404 453 373 c 0
 453 336 418 294 371 294 c 2
 354 294 l 2
 322 294 300 316 300 346 c 0x90
EndSplineSet
Validated: 1
Layer: 2
SplineSet
187 -166 m 0,0,1
 187 -145 187 -145 198 -114 c 2,2,-1
 290 183 l 2,3,4
 304 232 304 232 349 232 c 0,5,6
 389 232 389 232 389 190 c 2,7,-1
 389 183 l 1,8,-1
 355 -114 l 2,9,10
 349 -166 349 -166 324 -196.5 c 128,-1,11
 299 -227 299 -227 252 -227 c 0,12,13
 222 -227 222 -227 204.5 -210 c 128,-1,14
 187 -193 187 -193 187 -166 c 0,0,1
300 346 m 0,15,16
 300 378 300 378 325.5 402 c 128,-1,17
 351 426 351 426 383 426 c 2,18,-1
 400 426 l 2,19,20
 424 426 424 426 438.5 411 c 128,-1,21
 453 396 453 396 453 373 c 0,22,23
 453 344 453 344 429 319 c 128,-1,24
 405 294 405 294 371 294 c 2,25,-1
 354 294 l 2,26,27
 330 294 330 294 315 308.5 c 128,-1,28
 300 323 300 323 300 346 c 0,15,16
EndSplineSet
EndChar

StartChar: cent
Encoding: 162 162 109
Width: 600
Flags: W
HStem: -44 241<280.984 393>
VStem: 144 103<231.285 354.866>
DStem2: 241.971 -44 341.971 -44 0.207912 0.978148<37.6217 151.882 604.477 702.985>
LayerCount: 3
Fore
SplineSet
352 197 m 0
 434 197 464 245 501 245 c 0
 524 245 541 227 541 204 c 0
 541 162 478 117 372 99 c 1
 356 22 l 2
 347 -18 329 -44 292 -44 c 0
 264 -44 252 -22 252 -8 c 0
 252 -1 253 9 256 22 c 2
 273 103 l 1
 191 124 144 184 144 264 c 0
 144 393 253 492 361 517 c 1
 377 594 l 2
 378 597 386 661 442 661 c 0
 463 661 482 646 482 624 c 0
 482 617 480 608 477 594 c 2
 463 527 l 1
 493 522 513 515 531 503 c 1
 541 506 546 507 552 507 c 0
 580 507 593 486 593 471 c 0
 593 465 592 456 589 441 c 2
 580 399 l 2
 571 359 553 333 516 333 c 0
 491 333 478 347 478 373 c 0
 478 399 478 427 411 427 c 0
 312 427 247 354 247 288 c 0
 247 236 288 197 352 197 c 0
EndSplineSet
Validated: 1
Layer: 2
SplineSet
352 197 m 128,-1,1
 399 197 399 197 443.5 221 c 128,-1,2
 488 245 488 245 501 245 c 0,3,4
 518 245 518 245 529.5 233 c 128,-1,5
 541 221 541 221 541 204 c 0,6,7
 541 171 541 171 495 141.5 c 128,-1,8
 449 112 449 112 372 99 c 1,9,-1
 356 22 l 2,10,11
 341 -44 341 -44 292 -44 c 0,12,13
 273 -44 273 -44 262.5 -32.5 c 128,-1,14
 252 -21 252 -21 252 -8 c 128,-1,15
 252 5 252 5 256 22 c 2,16,-1
 273 103 l 1,17,18
 212 119 212 119 178 161.5 c 128,-1,19
 144 204 144 204 144 264 c 0,20,21
 144 356 144 356 209 426.5 c 128,-1,22
 274 497 274 497 361 517 c 1,23,-1
 377 594 l 1,24,-1
 378 597.5 l 2,25,26
 379 601 379 601 380 605.5 c 128,-1,27
 381 610 381 610 383.5 616.5 c 128,-1,28
 386 623 386 623 389 629 c 128,-1,29
 392 635 392 635 397 641 c 128,-1,30
 402 647 402 647 408 651 c 128,-1,31
 414 655 414 655 423 658 c 128,-1,32
 432 661 432 661 442 661 c 0,33,34
 458 661 458 661 470 650.5 c 128,-1,35
 482 640 482 640 482 624 c 0,36,37
 482 617 482 617 477 594 c 2,38,-1
 463 527 l 1,39,40
 506 520 506 520 531 503 c 1,41,42
 544 507 544 507 552 507 c 0,43,44
 571 507 571 507 582 495.5 c 128,-1,45
 593 484 593 484 593 471 c 0,46,47
 593 461 593 461 589 441 c 2,48,-1
 580 399 l 2,49,50
 565 333 565 333 516 333 c 0,51,52
 478 333 478 333 478 373 c 0,53,54
 478 386 478 386 476.5 393 c 128,-1,55
 475 400 475 400 469.5 409.5 c 128,-1,56
 464 419 464 419 449.5 423 c 128,-1,57
 435 427 435 427 411 427 c 0,58,59
 340 427 340 427 293.5 384 c 128,-1,60
 247 341 247 341 247 288 c 0,61,62
 247 248 247 248 276 222.5 c 128,-1,0
 305 197 305 197 352 197 c 128,-1,1
EndSplineSet
EndChar

StartChar: sterling
Encoding: 163 163 110
Width: 600
Flags: W
HStem: 0 100<80.7761 169.969 268 481.027> 243 100<108.637 216 317.657 426.063> 444 21G<477.5 517> 498 100<344.987 456.866>
VStem: 213 102<344.189 469.337>
LayerCount: 3
Fore
SplineSet
387 343 m 2
 426 343 444 334 444 304 c 0
 444 277 419 243 366 243 c 2
 321 243 l 1
 311 182 300 151 268 100 c 1
 471 100 l 1
 482 130 502 146 530 146 c 0
 556 146 571 131 571 106 c 0
 571 70 545 0 442 0 c 2
 121 0 l 2
 96 0 65 3 65 40 c 0
 65 56 72 89 126 100 c 0
 152 105 165 113 178 132 c 0
 196 157 209 188 217 224 c 0
 217 227 219 235 220 243 c 1
 151 243 l 2
 111 243 94 252 94 284 c 0
 94 322 126 343 172 343 c 2
 216 343 l 1
 214 359 213 373 213 386 c 0
 213 515 318 598 426 598 c 0
 498 598 563 553 563 506 c 0
 563 473 532 444 502 444 c 0
 453 444 476 498 404 498 c 0
 373 498 315 480 315 409 c 0
 315 397 316 378 319 343 c 1
 387 343 l 2
EndSplineSet
Validated: 1
Layer: 2
SplineSet
387 343 m 2,0,1
 417 343 417 343 430.5 334.5 c 128,-1,2
 444 326 444 326 444 304 c 0,3,4
 444 281 444 281 423.5 262 c 128,-1,5
 403 243 403 243 366 243 c 2,6,-1
 321 243 l 1,7,8
 313 197 313 197 302.5 167.5 c 128,-1,9
 292 138 292 138 268 100 c 1,10,-1
 471 100 l 1,11,12
 488 146 488 146 530 146 c 0,13,14
 571 146 571 146 571 106 c 0,15,16
 571 69 571 69 540.5 34.5 c 128,-1,17
 510 0 510 0 442 0 c 2,18,-1
 121 0 l 2,19,20
 65 0 65 0 65 40 c 0,21,22
 65 51 65 51 68.5 61 c 128,-1,23
 72 71 72 71 86.5 83 c 128,-1,24
 101 95 101 95 126 100 c 0,25,26
 161 107 161 107 178 132 c 0,27,28
 205 169 205 169 217 224 c 0,29,30
 217 226 217 226 218.5 232.5 c 128,-1,31
 220 239 220 239 220 243 c 1,32,-1
 151 243 l 2,33,34
 120 243 120 243 107 252 c 128,-1,35
 94 261 94 261 94 284 c 0,36,37
 94 312 94 312 115.5 327.5 c 128,-1,38
 137 343 137 343 172 343 c 2,39,-1
 216 343 l 1,40,41
 213 367 213 367 213 386 c 0,42,43
 213 479 213 479 277 538.5 c 128,-1,44
 341 598 341 598 426 598 c 0,45,46
 480 598 480 598 521.5 569.5 c 128,-1,47
 563 541 563 541 563 506 c 0,48,49
 563 482 563 482 544 463 c 128,-1,50
 525 444 525 444 502 444 c 0,51,52
 486 444 486 444 476 452.5 c 128,-1,53
 466 461 466 461 461.5 471 c 128,-1,54
 457 481 457 481 442.5 489.5 c 128,-1,55
 428 498 428 498 404 498 c 0,56,57
 372 498 372 498 343.5 477 c 128,-1,58
 315 456 315 456 315 409 c 0,59,60
 315 390 315 390 319 343 c 1,61,-1
 387 343 l 2,0,1
EndSplineSet
EndChar

StartChar: currency
Encoding: 164 164 111
Width: 600
Flags: W
HStem: 97 100<287.661 406.148> 388 100<318.135 437.214>
VStem: 163 103<218.946 336.747> 458 103<248.411 367.112>
DStem2: 133 162 190 91 0.771539 0.636182<-57.8769 57.9609 461.651 573.968> 276 493 188 419 0.616244 -0.787555<-36.793 44.5348 376.063 459.325>
LayerCount: 3
Fore
SplineSet
553 126 m 0
 553 91 519 64 489 64 c 0
 472 64 466 69 448 90 c 2
 421 122 l 1
 381 103 356 97 321 97 c 0
 285 97 263 103 230 123 c 1
 190 91 l 2
 162 68 155 64 138 64 c 0
 114 64 96 81 96 104 c 0
 96 131 104 137 133 162 c 2
 173 196 l 1
 167 217 163 234 163 251 c 0
 163 310 181 345 213 388 c 1
 188 419 l 2
 178 431 172 445 172 459 c 0
 172 492 204 519 234 519 c 0
 251 519 258 515 276 493 c 2
 301 462 l 1
 342 482 368 488 404 488 c 0
 440 488 462 481 495 461 c 1
 532 491 l 2
 559 513 568 517 585 517 c 0
 609 517 626 500 626 477 c 0
 626 450 618 444 589 420 c 2
 551 388 l 1
 557 367 561 350 561 333 c 0
 561 273 544 241 510 196 c 1
 535 162 l 2
 548 146 553 137 553 126 c 0
342 197 m 0
 398 197 458 248 458 313 c 0
 458 356 428 388 382 388 c 0
 327 388 266 339 266 273 c 0
 266 230 298 197 342 197 c 0
EndSplineSet
Validated: 1
Layer: 2
SplineSet
553 126 m 0,0,1
 553 101 553 101 533 82.5 c 128,-1,2
 513 64 513 64 489 64 c 0,3,4
 477 64 477 64 469.5 69 c 128,-1,5
 462 74 462 74 448 90 c 2,6,-1
 421 122 l 1,7,8
 368 97 368 97 321 97 c 0,9,10
 273 97 273 97 230 123 c 1,11,-1
 190 91 l 2,12,13
 169 74 169 74 160 69 c 128,-1,14
 151 64 151 64 138 64 c 0,15,16
 120 64 120 64 108 75.5 c 128,-1,17
 96 87 96 87 96 104 c 0,18,19
 96 123 96 123 102.5 132 c 128,-1,20
 109 141 109 141 133 162 c 2,21,-1
 173 196 l 1,22,23
 163 231 163 231 163 251 c 0,24,25
 163 321 163 321 213 388 c 1,26,-1
 188 419 l 2,27,28
 172 438 172 438 172 459 c 0,29,30
 172 483 172 483 191.5 501 c 128,-1,31
 211 519 211 519 234 519 c 0,32,33
 247 519 247 519 255 514 c 128,-1,34
 263 509 263 509 276 493 c 2,35,-1
 301 462 l 1,36,37
 354 488 354 488 404 488 c 0,38,39
 450 488 450 488 495 461 c 1,40,-1
 532 491 l 2,41,42
 564 517 564 517 585 517 c 0,43,44
 603 517 603 517 614.5 505.5 c 128,-1,45
 626 494 626 494 626 477 c 0,46,47
 626 458 626 458 619.5 449 c 128,-1,48
 613 440 613 440 589 420 c 2,49,-1
 551 388 l 1,50,51
 561 353 561 353 561 333 c 0,52,53
 561 291 561 291 549.5 262 c 128,-1,54
 538 233 538 233 510 196 c 1,55,-1
 535 162 l 2,56,57
 553 140 553 140 553 126 c 0,0,1
342 197 m 0,58,59
 386 197 386 197 422 231.5 c 128,-1,60
 458 266 458 266 458 313 c 0,61,62
 458 346 458 346 437 367 c 128,-1,63
 416 388 416 388 382 388 c 0,64,65
 339 388 339 388 302.5 354.5 c 128,-1,66
 266 321 266 321 266 273 c 0,67,68
 266 241 266 241 287.5 219 c 128,-1,69
 309 197 309 197 342 197 c 0,58,59
EndSplineSet
EndChar

StartChar: yen
Encoding: 165 165 112
Width: 600
Flags: W
HStem: 0 100<160.775 271 371 459.574> 135 56<158.508 279 391 511.492> 225 56<177.382 285 435 530.492> 481 99<146.637 189 616 677.548>
VStem: 132 228<496.568 564.658> 466 227<496.887 564.297>
DStem2: 309 482 189 481 0.432731 -0.901523<0 149.364> 375 348 435 281 0.672858 0.739772<0 181.151>
LayerCount: 3
Fore
SplineSet
475 64 m 0
 475 21 444 0 397 0 c 2
 203 0 l 2
 157 0 146 20 146 38 c 0
 146 42 147 46 148 50 c 0
 155 85 180 100 225 100 c 2
 271 100 l 1
 279 135 l 1
 182 135 l 2
 165 135 156 142 156 155 c 0
 156 178 172 191 194 191 c 2
 291 191 l 1
 298 225 l 1
 201 225 l 2
 184 225 175 232 175 245 c 0
 175 268 190 281 213 281 c 2
 285 281 l 1
 189 481 l 1
 159 481 132 489 132 518 c 0
 132 561 164 580 210 580 c 2
 302 580 l 2
 340 580 360 569 360 543 c 0
 360 511 336 487 309 482 c 1
 375 348 l 1
 498 481 l 1
 477 487 466 501 466 519 c 0
 466 561 499 580 545 580 c 2
 636 580 l 2
 674 580 693 569 693 544 c 0
 693 501 658 480 616 480 c 1
 435 281 l 1
 507 281 l 2
 524 281 533 274 533 261 c 0
 533 238 517 225 495 225 c 2
 398 225 l 1
 391 191 l 1
 488 191 l 2
 505 191 514 184 514 171 c 0
 514 148 498 135 476 135 c 2
 379 135 l 1
 371 100 l 1
 418 100 l 2
 456 100 475 89 475 64 c 0
EndSplineSet
Validated: 1
Layer: 2
SplineSet
475 64 m 0,0,1
 475 33 475 33 454 16.5 c 128,-1,2
 433 0 433 0 397 0 c 2,3,-1
 203 0 l 2,4,5
 146 0 146 0 146 38 c 0,6,7
 146 42 146 42 148 50 c 0,8,9
 158 100 158 100 225 100 c 2,10,-1
 271 100 l 1,11,-1
 279 135 l 1,12,-1
 182 135 l 2,13,14
 156 135 156 135 156 155 c 0,15,16
 156 172 156 172 166.5 181.5 c 128,-1,17
 177 191 177 191 194 191 c 2,18,-1
 291 191 l 1,19,-1
 298 225 l 1,20,-1
 201 225 l 2,21,22
 175 225 175 225 175 245 c 0,23,24
 175 281 175 281 213 281 c 2,25,-1
 285 281 l 1,26,-1
 189 481 l 1,27,28
 132 481 132 481 132 518 c 0,29,30
 132 580 132 580 210 580 c 2,31,-1
 302 580 l 2,32,33
 360 580 360 580 360 543 c 0,34,35
 360 520 360 520 345 503 c 128,-1,36
 330 486 330 486 309 482 c 1,37,-1
 375 348 l 1,38,-1
 498 481 l 1,39,40
 466 490 466 490 466 519 c 0,41,42
 466 549 466 549 487.5 564.5 c 128,-1,43
 509 580 509 580 545 580 c 2,44,-1
 636 580 l 2,45,46
 693 580 693 580 693 544 c 0,47,48
 693 513 693 513 671 496.5 c 128,-1,49
 649 480 649 480 616 480 c 1,50,-1
 435 281 l 1,51,-1
 507 281 l 2,52,53
 533 281 533 281 533 261 c 0,54,55
 533 244 533 244 522.5 234.5 c 128,-1,56
 512 225 512 225 495 225 c 2,57,-1
 398 225 l 1,58,-1
 391 191 l 1,59,-1
 488 191 l 2,60,61
 514 191 514 191 514 171 c 0,62,63
 514 154 514 154 503.5 144.5 c 128,-1,64
 493 135 493 135 476 135 c 2,65,-1
 379 135 l 1,66,-1
 371 100 l 1,67,-1
 418 100 l 2,68,69
 475 100 475 100 475 64 c 0,0,1
EndSplineSet
EndChar

StartChar: brokenbar
Encoding: 166 166 113
Width: 600
Flags: W
HStem: 602 20G<414.5 448>
DStem2: 217.971 -153 317.971 -153 0.207912 0.978148<41.5781 321.458 491.507 772.274>
LayerCount: 3
Fore
SplineSet
432 622 m 0
 464 622 472 603 472 583 c 0
 472 573 470 564 468 556 c 2
 425 353 l 2
 416 310 396 287 361 287 c 0
 334 287 322 301 322 327 c 0
 322 335 323 343 325 353 c 2
 368 556 l 2
 377 599 397 622 432 622 c 0
375 116 m 2
 332 -87 l 2
 323 -129 302 -153 267 -153 c 0
 241 -153 228 -139 228 -113 c 0
 228 -105 230 -97 232 -87 c 2
 275 116 l 2
 284 159 304 182 339 182 c 0
 366 182 378 168 378 142 c 0
 378 134 377 126 375 116 c 2
EndSplineSet
Validated: 1
Layer: 2
SplineSet
432 622 m 0,0,1
 472 622 472 622 472 583 c 0,2,3
 472 572 472 572 468 556 c 2,4,-1
 425 353 l 2,5,6
 411 287 411 287 361 287 c 0,7,8
 322 287 322 287 322 327 c 0,9,10
 322 338 322 338 325 353 c 2,11,-1
 368 556 l 2,12,13
 382 622 382 622 432 622 c 0,0,1
375 116 m 2,14,-1
 332 -87 l 2,15,16
 318 -153 318 -153 267 -153 c 0,17,18
 228 -153 228 -153 228 -113 c 0,19,20
 228 -107 228 -107 232 -87 c 2,21,-1
 275 116 l 2,22,23
 289 182 289 182 339 182 c 0,24,25
 378 182 378 182 378 142 c 0,26,27
 378 131 378 131 375 116 c 2,14,-1
EndSplineSet
EndChar

StartChar: section
Encoding: 167 167 114
Width: 600
Flags: W
HStem: -170 182<85.3242 151.695> -170 88<152 353.469> 401 182<536.309 603.064> 493 90<331.875 536>
VStem: 93 100<242.604 316.334> 222 88<395.899 472> 376 88<-57.3594 14.947> 495 100<96.6858 167.07>
DStem2: 352 147 198 130 0.836177 -0.54846<-202.108 93.3037> 397 342 330 271 0.833538 -0.552462<-102.62 193.021>
LayerCount: 3
Fore
SplineSet
560 401 m 0x2f
 547 401 525 409 525 431 c 0
 525 437 526 445 528 456 c 2
 536 493 l 1
 392 493 l 2
 341 493 310 457 310 433 c 0
 310 409 339 379 397 342 c 2
 478 291 l 2
 564 237 595 204 595 158 c 0
 595 112 567 33 464 10 c 1
 464 -83 390 -170 276 -170 c 2
 45 -170 l 1x5f
 72 -43 l 2
 80 -6 98 12 128 12 c 0x8f
 156 12 164 -13 164 -19 c 0
 164 -24 162 -31 160 -43 c 2
 152 -82 l 1
 297 -82 l 2
 341 -82 376 -48 376 -23 c 0
 376 2 348 32 291 69 c 2
 198 130 l 2
 124 179 93 214 93 259 c 0
 93 316 135 379 222 402 c 1
 222 501 316 583 418 583 c 2
 643 583 l 1x5f
 616 456 l 2
 609 425 595 401 560 401 c 0x2f
495 126 m 0
 495 149 467 181 416 214 c 2
 330 271 l 2
 300 290 291 297 261 326 c 1
 205 326 193 301 193 285 c 0
 193 261 215 236 262 205 c 2
 352 147 l 2
 400 116 412 103 426 88 c 1
 474 88 495 104 495 126 c 0
EndSplineSet
Validated: 1
Layer: 2
SplineSet
560 401 m 0,0,1
 548 401 548 401 536.5 408.5 c 128,-1,2
 525 416 525 416 525 431 c 0,3,4
 525 440 525 440 528 456 c 2,5,-1
 536 493 l 1,6,-1
 392 493 l 2,7,8
 357 493 357 493 333.5 473 c 128,-1,9
 310 453 310 453 310 433 c 0,10,11
 310 398 310 398 397 342 c 2,12,-1
 478 291 l 2,13,14
 543 250 543 250 569 221 c 128,-1,15
 595 192 595 192 595 158 c 0,16,17
 595 114 595 114 564 69.5 c 128,-1,18
 533 25 533 25 464 10 c 1,19,20
 464 -63 464 -63 411.5 -116.5 c 128,-1,21
 359 -170 359 -170 276 -170 c 2,22,-1
 45 -170 l 1,23,-1
 72 -43 l 2,24,25
 84 12 84 12 128 12 c 0,26,27
 146 12 146 12 155 0.5 c 128,-1,28
 164 -11 164 -11 164 -19 c 0,29,30
 164 -21 164 -21 163.5 -24 c 128,-1,31
 163 -27 163 -27 162 -33 c 128,-1,32
 161 -39 161 -39 160 -43 c 2,33,-1
 152 -82 l 1,34,-1
 297 -82 l 2,35,36
 328 -82 328 -82 352 -62.5 c 128,-1,37
 376 -43 376 -43 376 -23 c 0,38,39
 376 14 376 14 291 69 c 2,40,-1
 198 130 l 2,41,42
 141 167 141 167 117 196.5 c 128,-1,43
 93 226 93 226 93 259 c 0,44,45
 93 305 93 305 126.5 345.5 c 128,-1,46
 160 386 160 386 222 402 c 1,47,48
 222 475 222 475 281.5 529 c 128,-1,49
 341 583 341 583 418 583 c 2,50,-1
 643 583 l 1,51,-1
 616 456 l 2,52,53
 604 401 604 401 560 401 c 0,0,1
495 126 m 0,54,55
 495 163 495 163 416 214 c 2,56,-1
 330 271 l 2,57,58
 295 293 295 293 261 326 c 1,59,60
 224 326 224 326 208.5 313.5 c 128,-1,61
 193 301 193 301 193 285 c 0,62,63
 193 251 193 251 262 205 c 2,64,-1
 352 147 l 2,65,66
 400 116 400 116 426 88 c 1,67,68
 495 88 495 88 495 126 c 0,54,55
EndSplineSet
EndChar

StartChar: dieresis
Encoding: 168 168 115
Width: 600
Flags: W
HStem: 534 120<284.795 359.999 492.795 567.999>
VStem: 261 122<556.892 630> 469 122<556.892 630>
LayerCount: 3
Fore
SplineSet
261 582 m 0
 261 614 293 654 335 654 c 0
 364 654 383 634 383 606 c 0
 383 564 343 534 310 534 c 0
 281 534 261 555 261 582 c 0
469 582 m 0
 469 614 501 654 543 654 c 0
 572 654 591 634 591 606 c 0
 591 564 551 534 518 534 c 0
 489 534 469 555 469 582 c 0
EndSplineSet
Validated: 1
Layer: 2
SplineSet
261 582 m 0,0,1
 261 608 261 608 283 631 c 128,-1,2
 305 654 305 654 335 654 c 0,3,4
 357 654 357 654 370 640.5 c 128,-1,5
 383 627 383 627 383 606 c 0,6,7
 383 576 383 576 359.5 555 c 128,-1,8
 336 534 336 534 310 534 c 0,9,10
 288 534 288 534 274.5 548 c 128,-1,11
 261 562 261 562 261 582 c 0,0,1
469 582 m 0,12,13
 469 608 469 608 491 631 c 128,-1,14
 513 654 513 654 543 654 c 0,15,16
 565 654 565 654 578 640.5 c 128,-1,17
 591 627 591 627 591 606 c 0,18,19
 591 576 591 576 567.5 555 c 128,-1,20
 544 534 544 534 518 534 c 0,21,22
 496 534 496 534 482.5 548 c 128,-1,23
 469 562 469 562 469 582 c 0,12,13
EndSplineSet
EndChar

StartChar: copyright
Encoding: 169 169 116
Width: 600
Flags: W
HStem: -15 73<219.986 406.522> 118 71<278.803 413.969> 395 71<314.488 432.357> 525 73<315.21 504.363>
VStem: 48 75<154.786 340.074> 189 72<205.854 334.275> 600 75<244.34 430.112>
DStem2: 131.634 -15 202.421 -15 0.207912 0.978148<288.337 407.011>
LayerCount: 3
Fore
SplineSet
192 269 m 2
 200 305 l 2
 220 397 301 466 390 466 c 0
 418 466 440 461 465 447 c 1
 473 459 483 466 497 466 c 0
 514 466 523 456 523 439 c 0
 523 436 523 432 522 428 c 2
 509 368 l 2
 503 340 487 324 465 324 c 0
 444 324 437 335 437 359 c 0
 437 379 413 395 377 395 c 0
 326 395 283 357 271 304 c 2
 263 270 l 2
 262 264 261 258 261 252 c 0
 261 213 292 189 343 189 c 0
 382 189 396 194 424 218 c 0
 432 225 443 229 452 229 c 0
 469 229 481 216 481 200 c 0
 481 154 397 118 327 118 c 0
 243 118 189 167 189 237 c 0
 189 247 190 258 192 269 c 2
426 598 m 0
 574 598 675 494 675 356 c 0
 675 150 478 -15 293 -15 c 0
 149 -15 48 91 48 229 c 0
 48 433 246 598 426 598 c 0
412 525 m 0
 273 525 123 401 123 244 c 0
 123 139 199 58 309 58 c 0
 450 58 600 184 600 341 c 0
 600 447 523 525 412 525 c 0
EndSplineSet
Validated: 1
Layer: 2
SplineSet
192 269 m 2,0,-1
 200 305 l 2,1,2
 215 374 215 374 269 420 c 128,-1,3
 323 466 323 466 390 466 c 0,4,5
 431 466 431 466 465 447 c 1,6,7
 478 466 478 466 497 466 c 0,8,9
 523 466 523 466 523 439 c 0,10,11
 523 432 523 432 522 428 c 2,12,-1
 509 368 l 2,13,14
 500 324 500 324 465 324 c 0,15,16
 437 324 437 324 437 359 c 0,17,18
 437 374 437 374 420.5 384.5 c 128,-1,19
 404 395 404 395 377 395 c 0,20,21
 339 395 339 395 309.5 369.5 c 128,-1,22
 280 344 280 344 271 304 c 2,23,-1
 263 270 l 2,24,25
 261 258 261 258 261 252 c 0,26,27
 261 223 261 223 283 206 c 128,-1,28
 305 189 305 189 343 189 c 0,29,30
 372 189 372 189 387.5 194.5 c 128,-1,31
 403 200 403 200 424 218 c 0,32,33
 437 229 437 229 452 229 c 0,34,35
 465 229 465 229 473 220.5 c 128,-1,36
 481 212 481 212 481 200 c 0,37,38
 481 167 481 167 431.5 142.5 c 128,-1,39
 382 118 382 118 327 118 c 0,40,41
 264 118 264 118 226.5 151 c 128,-1,42
 189 184 189 184 189 237 c 0,43,44
 189 253 189 253 192 269 c 2,0,-1
426 598 m 0,45,46
 536 598 536 598 605.5 529.5 c 128,-1,47
 675 461 675 461 675 356 c 0,48,49
 675 257 675 257 618 170 c 128,-1,50
 561 83 561 83 473 34 c 128,-1,51
 385 -15 385 -15 293 -15 c 0,52,53
 186 -15 186 -15 117 55 c 128,-1,54
 48 125 48 125 48 229 c 0,55,56
 48 327 48 327 105 413.5 c 128,-1,57
 162 500 162 500 249 549 c 128,-1,58
 336 598 336 598 426 598 c 0,45,46
412 525 m 0,59,60
 304 525 304 525 213.5 441.5 c 128,-1,61
 123 358 123 358 123 244 c 0,62,63
 123 164 123 164 175 111 c 128,-1,64
 227 58 227 58 309 58 c 0,65,66
 418 58 418 58 509 142.5 c 128,-1,67
 600 227 600 227 600 341 c 0,68,69
 600 421 600 421 547.5 473 c 128,-1,70
 495 525 495 525 412 525 c 0,59,60
EndSplineSet
EndChar

StartChar: ordfeminine
Encoding: 170 170 117
Width: 600
Flags: W
HStem: 182 77<175.136 522.71> 273 79<288.677 415.977> 284 78<509 550.1> 410 72<396.932 441> 417 70<304.997 440.138> 501 74<270.957 403.392> 517 78<294.28 458.56>
VStem: 194 94<330.809 397.871> 459 80<482.185 540.268>
LayerCount: 3
Fore
SplineSet
559 333 m 0xa380
 559 314 547 284 499 284 c 2
 414 284 l 1xa380
 417 295 l 1
 373 279 343 273 304 273 c 0
 240 273 194 308 194 354 c 0
 194 394 246 487 396 487 c 0xc980
 416 487 428 486 456 482 c 1
 458 490 459 491 459 496 c 0
 459 511 443 517 406 517 c 0x9380
 350 517 317 501 295 501 c 0
 277 501 265 514 265 532 c 0
 265 545 272 565 297 575 c 1x8580
 334 587 383 595 418 595 c 0
 496 595 539 566 539 514 c 0
 539 506 538 498 536 490 c 2
 509 362 l 1
 515 362 l 2
 545 362 559 353 559 333 c 0xa380
435 383 m 1
 441 410 l 1xd180
 410 416 396 417 377 417 c 0
 326 417 288 390 288 372 c 0
 288 360 303 352 327 352 c 0xc980
 359 352 406 365 435 383 c 1
531 232 m 0
 531 218 525 182 471 182 c 2
 215 182 l 2
 181 182 169 186 169 206 c 0
 169 258 201 259 231 259 c 2
 486 259 l 2
 517 259 531 250 531 232 c 0
EndSplineSet
Validated: 1
Layer: 2
SplineSet
559 333 m 0,0,1
 559 315 559 315 545 299.5 c 128,-1,2
 531 284 531 284 499 284 c 2,3,-1
 414 284 l 1,4,-1
 417 295 l 1,5,6
 357 273 357 273 304 273 c 0,7,8
 256 273 256 273 225 296 c 128,-1,9
 194 319 194 319 194 354 c 0,10,11
 194 396 194 396 245.5 441.5 c 128,-1,12
 297 487 297 487 396 487 c 0,13,14
 421 487 421 487 456 482 c 1,15,16
 459 494 459 494 459 496 c 0,17,18
 459 517 459 517 406 517 c 0,19,20
 374 517 374 517 338 509 c 128,-1,21
 302 501 302 501 295 501 c 0,22,23
 282 501 282 501 273.5 509.5 c 128,-1,24
 265 518 265 518 265 532 c 0,25,26
 265 562 265 562 297 575 c 0,27,28
 359 595 359 595 418 595 c 0,29,30
 476 595 476 595 507.5 574 c 128,-1,31
 539 553 539 553 539 514 c 0,32,33
 539 502 539 502 536 490 c 2,34,-1
 509 362 l 1,35,-1
 515 362 l 2,36,37
 559 362 559 362 559 333 c 0,0,1
435 383 m 1,38,-1
 441 410 l 1,39,40
 405 417 405 417 377 417 c 0,41,42
 341 417 341 417 314.5 402 c 128,-1,43
 288 387 288 387 288 372 c 0,44,45
 288 352 288 352 327 352 c 0,46,47
 385 352 385 352 435 383 c 1,38,-1
531 232 m 0,48,49
 531 222 531 222 528 212.5 c 128,-1,50
 525 203 525 203 510.5 192.5 c 128,-1,51
 496 182 496 182 471 182 c 2,52,-1
 215 182 l 2,53,54
 189 182 189 182 179 186.5 c 128,-1,55
 169 191 169 191 169 206 c 0,56,57
 169 225 169 225 174 236.5 c 128,-1,58
 179 248 179 248 189.5 252.5 c 128,-1,59
 200 257 200 257 208 258 c 128,-1,60
 216 259 216 259 231 259 c 2,61,-1
 486 259 l 2,62,63
 531 259 531 259 531 232 c 0,48,49
EndSplineSet
EndChar

StartChar: guillemotleft
Encoding: 171 171 118
Width: 600
Flags: W
LayerCount: 3
Fore
SplineSet
354 54 m 0
 354 35 331 20 313 20 c 0
 304 20 300 22 288 33 c 2
 79 218 l 1
 366 402 l 2
 383 413 388 415 398 415 c 0
 413 415 424 404 424 390 c 0
 424 384 423 373 402 358 c 2
 221 218 l 1
 342 77 l 2
 349 69 354 61 354 54 c 0
583 54 m 0
 583 35 560 20 542 20 c 0
 533 20 529 22 517 33 c 2
 308 218 l 1
 595 402 l 2
 612 413 617 415 627 415 c 0
 642 415 653 404 653 390 c 0
 653 384 652 373 631 358 c 2
 450 218 l 1
 571 77 l 2
 578 69 583 61 583 54 c 0
EndSplineSet
Validated: 1
Layer: 2
SplineSet
354 54 m 0,0,1
 354 40 354 40 340.5 30 c 128,-1,2
 327 20 327 20 313 20 c 0,3,4
 302 20 302 20 288 33 c 2,5,-1
 79 218 l 1,6,-1
 366 402 l 2,7,8
 386 415 386 415 398 415 c 0,9,10
 409 415 409 415 416.5 408 c 128,-1,11
 424 401 424 401 424 390 c 0,12,13
 424 374 424 374 402 358 c 2,14,-1
 221 218 l 1,15,-1
 342 77 l 2,16,17
 354 63 354 63 354 54 c 0,0,1
583 54 m 0,18,19
 583 40 583 40 569.5 30 c 128,-1,20
 556 20 556 20 542 20 c 0,21,22
 531 20 531 20 517 33 c 2,23,-1
 308 218 l 1,24,-1
 595 402 l 2,25,26
 615 415 615 415 627 415 c 0,27,28
 638 415 638 415 645.5 408 c 128,-1,29
 653 401 653 401 653 390 c 0,30,31
 653 374 653 374 631 358 c 2,32,-1
 450 218 l 1,33,-1
 571 77 l 2,34,35
 583 63 583 63 583 54 c 0,18,19
EndSplineSet
EndChar

StartChar: logicalnot
Encoding: 172 172 119
Width: 600
Flags: W
HStem: 345 100<138.623 438>
DStem2: 388.971 115 488.971 115 0.207912 0.978148<41.7859 235.168>
LayerCount: 3
Fore
SplineSet
125 383 m 0
 125 427 157 445 203 445 c 2
 560 445 l 1
 503 181 l 2
 494 138 474 115 439 115 c 0
 412 115 400 129 400 155 c 0
 400 163 401 171 403 181 c 2
 438 345 l 1
 181 345 l 2
 145 345 125 357 125 383 c 0
EndSplineSet
Validated: 1
Layer: 2
SplineSet
125 383 m 0,0,1
 125 445 125 445 203 445 c 2,2,-1
 560 445 l 1,3,-1
 503 181 l 2,4,5
 489 115 489 115 439 115 c 0,6,7
 400 115 400 115 400 155 c 0,8,9
 400 166 400 166 403 181 c 2,10,-1
 438 345 l 1,11,-1
 181 345 l 2,12,13
 125 345 125 345 125 383 c 0,0,1
EndSplineSet
EndChar

StartChar: registered
Encoding: 174 174 121
Width: 600
Flags: W
HStem: -15 73<217.018 410.788> 126 71<193.437 239 311 339.832> 387 71<249.227 279 351 420.734> 525 73<309.895 504.667>
VStem: 48 75<154.378 340.838> 187 159<132.812 189.839> 390 92<133.013 195.277> 424 72<328.104 382.631> 600 75<244.117 429.506>
DStem2: 193.938 -15 265.938 -15 0.207912 0.978148<231.706 281.714 353.303 410.901>
LayerCount: 3
Fore
SplineSet
482 171 m 0xfe80
 482 154 472 126 430 126 c 2
 390 126 l 1xfe80
 388 175 362 233 336 246 c 1
 321 246 l 1
 311 197 l 1
 333 197 346 187 346 171 c 0
 346 153 336 126 294 126 c 2
 226 126 l 2
 200 126 187 136 187 154 c 0
 187 171 200 197 239 197 c 1
 279 387 l 1
 255 388 243 397 243 414 c 0
 243 432 254 458 296 458 c 2
 389 458 l 2
 455 458 496 425 496 375 c 0xfd80
 496 331 466 288 415 266 c 1
 434 244 439 235 453 197 c 1
 471 195 482 186 482 171 c 0xfe80
361 316 m 2
 402 316 424 342 424 360 c 0xfd80
 424 376 406 387 376 387 c 2
 351 387 l 1
 336 316 l 1
 361 316 l 2
48 229 m 0
 48 414 230 598 427 598 c 0
 573 598 675 494 675 356 c 0
 675 170 498 -15 293 -15 c 0
 149 -15 48 90 48 229 c 0
309 58 m 0
 468 58 600 202 600 340 c 0
 600 445 524 525 412 525 c 0
 261 525 123 386 123 244 c 0
 123 138 199 58 309 58 c 0
EndSplineSet
Validated: 1
Layer: 2
SplineSet
482 171 m 0,0,1
 482 154 482 154 470 140 c 128,-1,2
 458 126 458 126 430 126 c 2,3,-1
 390 126 l 1,4,5
 388 163 388 163 371.5 199.5 c 128,-1,6
 355 236 355 236 336 246 c 1,7,-1
 321 246 l 1,8,-1
 311 197 l 1,9,10
 346 197 346 197 346 171 c 0,11,12
 346 154 346 154 334 140 c 128,-1,13
 322 126 322 126 294 126 c 2,14,-1
 226 126 l 2,15,16
 187 126 187 126 187 154 c 0,17,18
 187 170 187 170 200 183.5 c 128,-1,19
 213 197 213 197 239 197 c 1,20,-1
 279 387 l 1,21,22
 243 388.5 243 388.5 243 414 c 0,23,24
 243 431 243 431 255.5 444.5 c 128,-1,25
 268 458 268 458 296 458 c 2,26,-1
 389 458 l 2,27,28
 438 458 438 458 467 435.5 c 128,-1,29
 496 413 496 413 496 375 c 0,30,31
 496 342 496 342 474.5 312 c 128,-1,32
 453 282 453 282 415 266 c 1,33,34
 437 241 437 241 453 197 c 1,35,36
 482 194 482 194 482 171 c 0,0,1
361 316 m 2,37,38
 389 316 389 316 406.5 330.5 c 128,-1,39
 424 345 424 345 424 360 c 0,40,41
 424 387 424 387 376 387 c 2,42,-1
 351 387 l 1,43,-1
 336 316 l 1,44,-1
 361 316 l 2,37,38
48 229 m 0,45,46
 48 320 48 320 101 405.5 c 128,-1,47
 154 491 154 491 242.5 544.5 c 128,-1,48
 331 598 331 598 427 598 c 0,49,50
 536 598 536 598 605.5 529 c 128,-1,51
 675 460 675 460 675 356 c 0,52,53
 675 287 675 287 644 219.5 c 128,-1,54
 613 152 613 152 561.5 100.5 c 128,-1,55
 510 49 510 49 439 17 c 128,-1,56
 368 -15 368 -15 293 -15 c 0,57,58
 186 -15 186 -15 117 54.5 c 128,-1,59
 48 124 48 124 48 229 c 0,45,46
309 58 m 0,60,61
 426 58 426 58 513 146 c 128,-1,62
 600 234 600 234 600 340 c 0,63,64
 600 420 600 420 547.5 472.5 c 128,-1,65
 495 525 495 525 412 525 c 0,66,67
 300 525 300 525 211.5 438 c 128,-1,68
 123 351 123 351 123 244 c 0,69,70
 123 164 123 164 175 111 c 128,-1,71
 227 58 227 58 309 58 c 0,60,61
EndSplineSet
EndChar

StartChar: macron
Encoding: 175 175 122
Width: 600
Flags: W
HStem: 546 80<257.701 590.93>
LayerCount: 3
Fore
SplineSet
249 579 m 0
 249 598 264 626 311 626 c 2
 555 626 l 2
 586 626 600 621 600 591 c 0
 600 570 578 546 538 546 c 2
 294 546 l 2
 273 546 249 546 249 579 c 0
EndSplineSet
Validated: 1
Layer: 2
SplineSet
249 579 m 0,0,1
 249 597 249 597 264 611.5 c 128,-1,2
 279 626 279 626 311 626 c 2,3,-1
 555 626 l 2,4,5
 580 626 580 626 590 619 c 128,-1,6
 600 612 600 612 600 591 c 0,7,8
 600 574 600 574 583 560 c 128,-1,9
 566 546 566 546 538 546 c 2,10,-1
 294 546 l 2,11,12
 280 546 280 546 272.5 547 c 128,-1,13
 265 548 265 548 257 556 c 128,-1,14
 249 564 249 564 249 579 c 0,0,1
EndSplineSet
EndChar

StartChar: degree
Encoding: 176 176 123
Width: 600
Flags: W
HStem: 243 61<305.804 433.878> 535 61<343.814 475.252>
VStem: 210 63<336.917 463.388> 506 62<375.114 503.881>
LayerCount: 3
Fore
SplineSet
210 384 m 0
 210 489 312 596 427 596 c 0
 511 596 568 537 568 458 c 0
 568 350 467 243 350 243 c 0
 268 243 210 304 210 384 c 0
364 304 m 0
 435 304 506 370 506 445 c 0
 506 496 469 535 414 535 c 0
 341 535 273 466 273 397 c 0
 273 345 311 304 364 304 c 0
EndSplineSet
Validated: 1
Layer: 2
SplineSet
210 384 m 0,0,1
 210 464 210 464 276 530 c 128,-1,2
 342 596 342 596 427 596 c 0,3,4
 489 596 489 596 528.5 557 c 128,-1,5
 568 518 568 518 568 458 c 0,6,7
 568 376 568 376 502 309.5 c 128,-1,8
 436 243 436 243 350 243 c 0,9,10
 289 243 289 243 249.5 283.5 c 128,-1,11
 210 324 210 324 210 384 c 0,0,1
364 304 m 0,12,13
 418 304 418 304 462 347 c 128,-1,14
 506 390 506 390 506 445 c 0,15,16
 506 484 506 484 480.5 509.5 c 128,-1,17
 455 535 455 535 414 535 c 0,18,19
 360 535 360 535 316.5 492 c 128,-1,20
 273 449 273 449 273 397 c 0,21,22
 273 358 273 358 299 331 c 128,-1,23
 325 304 325 304 364 304 c 0,12,13
EndSplineSet
EndChar

StartChar: plusminus
Encoding: 177 177 124
Width: 600
Flags: W
HStem: 0 100<65.0991 555.363> 330 100<135.099 320 441 625.296> 604 20G<416 446.5>
DStem2: 250.112 0 350.112 0 0.207912 0.978148<209.45 337.319 460.291 617.982>
LayerCount: 3
Fore
SplineSet
640 393 m 0
 640 348 608 330 561 330 c 2
 420 330 l 1
 399 230 l 2
 390 187 370 164 335 164 c 0
 308 164 296 178 296 204 c 0
 296 212 297 220 299 230 c 2
 320 330 l 1
 178 330 l 2
 142 330 121 342 121 368 c 0
 121 412 154 430 199 430 c 2
 341 430 l 1
 369 558 l 2
 378 600 399 624 433 624 c 0
 460 624 472 611 472 585 c 0
 472 577 471 568 469 558 c 2
 441 430 l 1
 582 430 l 2
 620 430 640 419 640 393 c 0
51 38 m 0
 51 82 84 100 129 100 c 2
 513 100 l 2
 550 100 570 88 570 63 c 0
 570 18 538 0 492 0 c 2
 108 0 l 2
 72 0 51 12 51 38 c 0
EndSplineSet
Validated: 1
Layer: 2
SplineSet
640 393 m 0,0,1
 640 330 640 330 561 330 c 2,2,-1
 420 330 l 1,3,-1
 399 230 l 2,4,5
 385 164 385 164 335 164 c 0,6,7
 296 164 296 164 296 204 c 0,8,9
 296 215 296 215 299 230 c 2,10,-1
 320 330 l 1,11,-1
 178 330 l 2,12,13
 121 330 121 330 121 368 c 0,14,15
 121 430 121 430 199 430 c 2,16,-1
 341 430 l 1,17,-1
 369 558 l 2,18,19
 383 624 383 624 433 624 c 0,20,21
 472 624 472 624 472 585 c 0,22,23
 472 573 472 573 469 558 c 2,24,-1
 441 430 l 1,25,-1
 582 430 l 2,26,27
 640 430 640 430 640 393 c 0,0,1
51 38 m 0,28,29
 51 100 51 100 129 100 c 2,30,-1
 513 100 l 2,31,32
 570 100 570 100 570 63 c 0,33,34
 570 0 570 0 492 0 c 2,35,-1
 108 0 l 2,36,37
 51 0 51 0 51 38 c 0,28,29
EndSplineSet
EndChar

StartChar: twosuperior
Encoding: 178 178 125
Width: 600
Flags: W
HStem: 247 99<433.663 482> 247 67<320 442.04> 570 67<357.077 463.528>
VStem: 470 68<487.813 562.026>
LayerCount: 3
Fore
SplineSet
538 542 m 0x70
 538 470 486 433 320 314 c 1
 429 314 l 1x70
 436 335 450 346 469 346 c 0
 487 346 495 338 495 321 c 0
 495 316 495 310 493 303 c 2
 482 247 l 1xb0
 202 247 l 1
 216 315 l 1
 437 470 470 494 470 528 c 0
 470 552 448 570 414 570 c 0
 361 570 343 533 336 520 c 0
 329 508 314 500 301 500 c 0
 284 500 273 511 273 526 c 0
 273 556 334 637 429 637 c 0
 494 637 538 598 538 542 c 0x70
EndSplineSet
Validated: 1
Layer: 2
SplineSet
538 542 m 0,0,1
 538 492 538 492 498 452.5 c 128,-1,2
 458 413 458 413 320 314 c 1,3,-1
 429 314 l 1,4,5
 440 346 440 346 469 346 c 0,6,7
 495 346 495 346 495 321 c 0,8,9
 495 310 495 310 493 303 c 2,10,-1
 482 247 l 1,11,-1
 202 247 l 1,12,-1
 216 315 l 1,13,14
 388 436 388 436 429 469.5 c 128,-1,15
 470 503 470 503 470 528 c 0,16,17
 470 546 470 546 454.5 558 c 128,-1,18
 439 570 439 570 414 570 c 0,19,20
 363 570 363 570 336 520 c 0,21,22
 324 500 324 500 301 500 c 0,23,24
 288 500 288 500 280.5 507.5 c 128,-1,25
 273 515 273 515 273 526 c 0,26,27
 273 555 273 555 319 596 c 128,-1,28
 365 637 365 637 429 637 c 0,29,30
 478 637 478 637 508 610.5 c 128,-1,31
 538 584 538 584 538 542 c 0,0,1
EndSplineSet
EndChar

StartChar: threesuperior
Encoding: 179 179 126
Width: 600
Flags: W
HStem: 238 67<246.769 431.719> 418 66<352.189 438.184> 570 67<354.055 471.355>
VStem: 452 68<325.5 403.67> 475 69<498.042 564.139>
LayerCount: 3
Fore
SplineSet
348 305 m 0xf0
 410 305 452 324 452 367 c 0xf0
 452 397 420 418 375 418 c 0
 357 418 347 428 347 443 c 0
 347 467 368 484 389 484 c 0
 439 484 475 498 475 536 c 0
 475 557 454 570 420 570 c 0
 351 570 355 533 321 533 c 0
 305 533 295 545 295 560 c 0
 295 604 372 637 437 637 c 0
 501 637 544 601 544 550 c 0xe8
 544 481 477 452 473 448 c 1
 503 431 520 404 520 374 c 0
 520 324 472 238 336 238 c 0
 263 238 218 256 218 285 c 0
 218 308 240 326 259 326 c 0
 287 326 264 305 348 305 c 0xf0
EndSplineSet
Validated: 1
Layer: 2
SplineSet
348 305 m 0,0,1
 452 305 452 305 452 367 c 0,2,3
 452 389 452 389 430.5 403.5 c 128,-1,4
 409 418 409 418 375 418 c 0,5,6
 347 418 347 418 347 443 c 0,7,8
 347 460 347 460 360 472 c 128,-1,9
 373 484 373 484 389 484 c 0,10,11
 475 484 475 484 475 536 c 0,12,13
 475 570 475 570 420 570 c 0,14,15
 381 570 381 570 357.5 551.5 c 128,-1,16
 334 533 334 533 321 533 c 0,17,18
 309 533 309 533 302 540.5 c 128,-1,19
 295 548 295 548 295 560 c 0,20,21
 295 592 295 592 340 614.5 c 128,-1,22
 385 637 385 637 437 637 c 0,23,24
 485 637 485 637 514.5 612.5 c 128,-1,25
 544 588 544 588 544 550 c 0,26,27
 544 531 544 531 537 513.5 c 128,-1,28
 530 496 530 496 520 485 c 128,-1,29
 510 474 510 474 500 466 c 128,-1,30
 490 458 490 458 481.5 453 c 2,31,-1
 473 448 l 1,32,33
 520 421 520 421 520 374 c 0,34,35
 520 354 520 354 510 331.5 c 128,-1,36
 500 309 500 309 479.5 287.5 c 128,-1,37
 459 266 459 266 421.5 252 c 128,-1,38
 384 238 384 238 336 238 c 0,39,40
 281 238 281 238 249.5 250.5 c 128,-1,41
 218 263 218 263 218 285 c 0,42,43
 218 302 218 302 231 314 c 128,-1,44
 244 326 244 326 259 326 c 0,45,46
 268 326 268 326 273 322.5 c 128,-1,47
 278 319 278 319 282 315.5 c 128,-1,48
 286 312 286 312 302.5 308.5 c 128,-1,49
 319 305 319 305 348 305 c 0,0,1
EndSplineSet
EndChar

StartChar: acute
Encoding: 180 180 127
Width: 600
Flags: W
HStem: 496 200
VStem: 362 254
DStem2: 551 680 428 512 0.814084 0.580748<-235.915 37.3668>
LayerCount: 3
Fore
SplineSet
616 668 m 0
 616 650 606 639 585 624 c 2
 428 512 l 2
 410 500 402 496 392 496 c 0
 374 496 362 509 362 525 c 0
 362 534 365 549 394 569 c 2
 551 680 l 2
 569 693 575 696 586 696 c 0
 604 696 616 684 616 668 c 0
EndSplineSet
Validated: 1
Layer: 2
SplineSet
616 668 m 0,0,1
 616 646 616 646 585 624 c 2,2,-1
 428 512 l 2,3,4
 404 496 404 496 392 496 c 0,5,6
 379 496 379 496 370.5 504.5 c 128,-1,7
 362 513 362 513 362 525 c 0,8,9
 362 547 362 547 394 569 c 2,10,-1
 551 680 l 2,11,12
 573 696 573 696 586 696 c 128,-1,13
 599 696 599 696 607.5 688 c 128,-1,14
 616 680 616 680 616 668 c 0,0,1
EndSplineSet
EndChar

StartChar: paragraph
Encoding: 182 182 128
Width: 600
Flags: W
HStem: -174 78<116.085 250 448 522.225> 185 81<273.401 309> 505 78<455 499 575 665.145>
VStem: 123 114<299.27 385.769>
DStem2: 233.421 -174 311.421 -174 0.207912 0.978148<79.7426 366.869 449.841 688.915> 355.421 -174 431.421 -174 0.207912 0.978148<95.5438 694.014>
LayerCount: 3
Fore
SplineSet
673 554 m 0
 673 521 648 505 609 505 c 2
 575 505 l 1
 448 -96 l 1
 484 -96 l 2
 516 -96 530 -106 530 -125 c 0
 530 -159 505 -174 467 -174 c 2
 374 -174 l 2
 353 -174 345 -165 341 -140 c 1
 324 -168 315 -174 291 -174 c 2
 154 -174 l 2
 124 -174 108 -165 108 -145 c 0
 108 -111 135 -96 171 -96 c 2
 250 -96 l 1
 309 185 l 1
 196 197 123 257 123 334 c 0
 123 343 124 352 126 361 c 2
 136 407 l 2
 157 504 287 583 429 583 c 2
 626 583 l 2
 657 583 673 574 673 554 c 0
327 266 m 1
 376 500 l 1
 306 486 258 450 248 405 c 2
 239 361 l 2
 238 356 237 351 237 346 c 0
 237 308 270 278 327 266 c 1
499 505 m 1
 455 505 l 1
 328 -96 l 1
 340 -102 343 -108 345 -124 c 1
 352 -109 360 -102 372 -96 c 1
 499 505 l 1
EndSplineSet
Validated: 1
Layer: 2
SplineSet
673 554 m 0,0,1
 673 505 673 505 609 505 c 2,2,-1
 575 505 l 1,3,-1
 448 -96 l 1,4,-1
 484 -96 l 2,5,6
 530 -96 530 -96 530 -125 c 0,7,8
 530 -174 530 -174 467 -174 c 2,9,-1
 374 -174 l 2,10,11
 358 -174 358 -174 351 -166.5 c 128,-1,12
 344 -159 344 -159 341 -140 c 1,13,14
 328 -161 328 -161 318.5 -167.5 c 128,-1,15
 309 -174 309 -174 291 -174 c 2,16,-1
 154 -174 l 2,17,18
 108 -174 108 -174 108 -145 c 0,19,20
 108 -96 108 -96 171 -96 c 2,21,-1
 250 -96 l 1,22,-1
 309 185 l 1,23,24
 225 194 225 194 174 235 c 128,-1,25
 123 276 123 276 123 334 c 0,26,27
 123 347.5 123 347.5 126 361 c 2,28,-1
 136 407 l 2,29,30
 152 480 152 480 237.5 531.5 c 128,-1,31
 323 583 323 583 429 583 c 2,32,-1
 626 583 l 2,33,34
 673 583 673 583 673 554 c 0,0,1
327 266 m 1,35,-1
 376 500 l 1,36,37
 324 490 324 490 290 464.5 c 128,-1,38
 256 439 256 439 248 405 c 2,39,-1
 239 361 l 2,40,41
 237 351 237 351 237 346 c 0,42,43
 237 317 237 317 260.5 296 c 128,-1,44
 284 275 284 275 327 266 c 1,35,-1
499 505 m 1,45,-1
 455 505 l 1,46,-1
 328 -96 l 1,47,48
 342 -103 342 -103 345 -124 c 1,49,50
 354 -105 354 -105 372 -96 c 1,51,-1
 499 505 l 1,45,-1
EndSplineSet
EndChar

StartChar: periodcentered
Encoding: 183 183 129
Width: 600
Flags: W
HStem: 214 132<311.964 408.33>
VStem: 283 153<242.514 317.873>
LayerCount: 3
Fore
SplineSet
436 293 m 0
 436 256 401 214 354 214 c 2
 336 214 l 2
 305 214 283 236 283 266 c 0
 283 309 325 346 365 346 c 2
 383 346 l 2
 415 346 436 324 436 293 c 0
EndSplineSet
Validated: 1
Layer: 2
SplineSet
436 293 m 0,0,1
 436 264 436 264 412 239 c 128,-1,2
 388 214 388 214 354 214 c 2,3,-1
 336 214 l 2,4,5
 313 214 313 214 298 228.5 c 128,-1,6
 283 243 283 243 283 266 c 0,7,8
 283 298 283 298 308.5 322 c 128,-1,9
 334 346 334 346 365 346 c 2,10,-1
 383 346 l 2,11,12
 407 346 407 346 421.5 331 c 128,-1,13
 436 316 436 316 436 293 c 0,0,1
EndSplineSet
EndChar

StartChar: cedilla
Encoding: 184 184 130
Width: 600
Flags: W
HStem: -229 70<207.403 307.61> -100 100<262 309.252>
VStem: 310 72<-155.404 -103.396>
LayerCount: 3
Fore
SplineSet
382 -105 m 0
 382 -171 328 -229 251 -229 c 0
 215 -229 144 -211 144 -173 c 0
 144 -149 168 -131 187 -131 c 0
 208 -131 227 -159 267 -159 c 0
 301 -159 310 -140 310 -128 c 0
 310 -111 294 -100 263 -100 c 0
 258 -100 254 -100 240 -102 c 1
 262 0 l 1
 332 0 l 1
 323 -41 l 1
 363 -50 382 -71 382 -105 c 0
EndSplineSet
Validated: 1
Layer: 2
SplineSet
382 -105 m 128,-1,1
 382 -156 382 -156 345 -192.5 c 128,-1,2
 308 -229 308 -229 251 -229 c 0,3,4
 217 -229 217 -229 180.5 -214 c 128,-1,5
 144 -199 144 -199 144 -173 c 0,6,7
 144 -156 144 -156 158 -143.5 c 128,-1,8
 172 -131 172 -131 187 -131 c 0,9,10
 195 -131 195 -131 220 -145 c 128,-1,11
 245 -159 245 -159 267 -159 c 0,12,13
 290 -159 290 -159 300 -149.5 c 128,-1,14
 310 -140 310 -140 310 -128 c 0,15,16
 310 -100 310 -100 263 -100 c 0,17,18
 254 -100 254 -100 240 -102 c 1,19,-1
 262 0 l 1,20,-1
 332 0 l 1,21,-1
 323 -41 l 1,22,0
 382 -54 382 -54 382 -105 c 128,-1,1
EndSplineSet
EndChar

